<svg width="910" height="861" viewBox="0 0 910 861" fill="none" xmlns="http://www.w3.org/2000/svg">
<g filter="url(#filter0_di_102_1373)">
<path fill-rule="evenodd" clip-rule="evenodd" d="M284.478 585.236L225.188 622.298L226.046 623.317V683.853H227.096L226.771 684.223L284.955 722.236L285.698 721.391L285.809 721.523L345.092 684.452L344.588 683.853H345.188V622.299H343.188V622.363L286.464 585.291L285.473 586.417L284.478 585.236ZM284.84 719.878L228.046 682.773L228.046 622.764L285.425 586.895L343.188 624.646V683.39L284.84 719.878Z" fill="#FF0000"/>
<path d="M227.688 682.736L285.188 585.236L284.688 720.236L227.688 682.736Z" fill="#FF0000"/>
<path d="M227.812 622.736L283.688 587.736L227.812 683.984L227.812 622.736Z" fill="#FF0000"/>
<path d="M343.688 683.736L284.851 719.828L343.29 623.236L343.688 683.736Z" fill="#FF0000"/>
<path d="M342.688 624.236L283.688 721.736L283.688 585.236L342.688 624.236Z" fill="#FF0000"/>
</g>
<g filter="url(#filter1_di_102_1373)">
<path fill-rule="evenodd" clip-rule="evenodd" d="M686.478 589.236L627.188 626.298L628.046 627.317V687.853H629.096L628.771 688.223L686.955 726.236L687.698 725.391L687.81 725.523L747.092 688.452L746.588 687.853H747.188V626.299H745.188V626.363L688.464 589.291L687.473 590.417L686.478 589.236ZM686.84 723.878L630.046 686.773L630.046 626.764L687.425 590.895L745.188 628.646V687.39L686.84 723.878Z" fill="#FF0000"/>
<path d="M629.688 686.736L687.188 589.236L686.688 724.236L629.688 686.736Z" fill="#FF0000"/>
<path d="M629.812 626.736L685.688 591.736L629.812 687.984L629.812 626.736Z" fill="#FF0000"/>
<path d="M745.688 687.736L686.851 723.828L745.29 627.236L745.688 687.736Z" fill="#FF0000"/>
<path d="M744.688 628.236L685.688 725.736L685.688 589.236L744.688 628.236Z" fill="#FF0000"/>
</g>
<g filter="url(#filter2_di_102_1373)">
<path fill-rule="evenodd" clip-rule="evenodd" d="M418.478 589.236L359.188 626.298L360.046 627.317V687.853H361.096L360.771 688.223L418.955 726.236L419.698 725.391L419.809 725.523L479.092 688.452L478.588 687.853H479.188V626.299H477.188V626.363L420.464 589.291L419.473 590.417L418.478 589.236ZM418.84 723.878L362.046 686.773L362.046 626.764L419.425 590.895L477.188 628.646V687.39L418.84 723.878Z" fill="#FF0000"/>
<path d="M361.688 686.736L419.188 589.236L418.688 724.236L361.688 686.736Z" fill="#FF0000"/>
<path d="M361.812 626.736L417.688 591.736L361.812 687.984L361.812 626.736Z" fill="#FF0000"/>
<path d="M477.688 687.736L418.851 723.828L477.29 627.236L477.688 687.736Z" fill="#FF0000"/>
<path d="M476.688 628.236L417.688 725.736L417.688 589.236L476.688 628.236Z" fill="#FF0000"/>
</g>
<g filter="url(#filter3_di_102_1373)">
<path fill-rule="evenodd" clip-rule="evenodd" d="M486.478 703.236L427.188 740.298L428.046 741.317V801.853H429.096L428.771 802.223L486.955 840.236L487.698 839.391L487.809 839.523L547.092 802.452L546.588 801.853H547.188V740.299H545.188V740.363L488.464 703.291L487.473 704.417L486.478 703.236ZM486.84 837.878L430.046 800.773L430.046 740.764L487.425 704.895L545.188 742.646V801.39L486.84 837.878Z" fill="#FF0000"/>
<path d="M429.688 800.736L487.188 703.236L486.688 838.236L429.688 800.736Z" fill="#FF0000"/>
<path d="M429.812 740.736L485.688 705.736L429.812 801.984L429.812 740.736Z" fill="#FF0000"/>
<path d="M545.688 801.736L486.851 837.828L545.29 741.236L545.688 801.736Z" fill="#FF0000"/>
<path d="M544.688 742.236L485.688 839.736L485.688 703.236L544.688 742.236Z" fill="#FF0000"/>
</g>
<g filter="url(#filter4_di_102_1373)">
<path fill-rule="evenodd" clip-rule="evenodd" d="M284.478 125.236L225.188 162.298L226.046 163.317V223.853H227.096L226.771 224.223L284.955 262.236L285.698 261.391L285.809 261.523L345.092 224.452L344.588 223.853H345.188V162.299H343.188V162.363L286.464 125.291L285.473 126.417L284.478 125.236ZM284.84 259.878L228.046 222.773L228.046 162.764L285.425 126.895L343.188 164.646V223.39L284.84 259.878Z" fill="#FF0000"/>
<path d="M227.688 222.736L285.188 125.236L284.688 260.236L227.688 222.736Z" fill="#FF0000"/>
<path d="M227.812 162.736L283.688 127.736L227.812 223.984L227.812 162.736Z" fill="#FF0000"/>
<path d="M343.688 223.736L284.851 259.828L343.29 163.236L343.688 223.736Z" fill="#FF0000"/>
<path d="M342.688 164.236L283.688 261.736L283.688 125.236L342.688 164.236Z" fill="#FF0000"/>
</g>
<g filter="url(#filter5_di_102_1373)">
<path fill-rule="evenodd" clip-rule="evenodd" d="M686.478 129.236L627.188 166.298L628.046 167.317V227.853H629.096L628.771 228.223L686.955 266.236L687.698 265.391L687.81 265.523L747.092 228.452L746.588 227.853H747.188V166.299H745.188V166.363L688.464 129.291L687.473 130.417L686.478 129.236ZM686.84 263.878L630.046 226.773L630.046 166.764L687.425 130.895L745.188 168.646V227.39L686.84 263.878Z" fill="#FF0000"/>
<path d="M629.688 226.736L687.188 129.236L686.688 264.236L629.688 226.736Z" fill="#FF0000"/>
<path d="M629.812 166.736L685.688 131.736L629.812 227.984L629.812 166.736Z" fill="#FF0000"/>
<path d="M745.688 227.736L686.851 263.828L745.29 167.236L745.688 227.736Z" fill="#FF0000"/>
<path d="M744.688 168.236L685.688 265.736L685.688 129.236L744.688 168.236Z" fill="#FF0000"/>
</g>
<g filter="url(#filter6_di_102_1373)">
<path fill-rule="evenodd" clip-rule="evenodd" d="M86.4784 241.236L27.1884 278.298L28.0456 279.317L28.0456 339.853H29.096L28.7708 340.223L86.9549 378.236L87.6979 377.391L87.8095 377.523L147.092 340.452L146.588 339.853H147.188V278.299H145.188V278.363L88.4641 241.291L87.4729 242.417L86.4784 241.236ZM86.8402 375.878L30.0461 338.773L30.0456 278.764L87.4253 242.895L145.188 280.646V339.39L86.8402 375.878Z" fill="#FF0000"/>
<path d="M29.6884 338.736L87.1884 241.236L86.6884 376.236L29.6884 338.736Z" fill="#FF0000"/>
<path d="M29.8123 278.736L85.6884 243.736L29.8123 339.984L29.8123 278.736Z" fill="#FF0000"/>
<path d="M145.688 339.736L86.8515 375.828L145.29 279.236L145.688 339.736Z" fill="#FF0000"/>
<path d="M144.688 280.236L85.6884 377.736L85.6884 241.236L144.688 280.236Z" fill="#FF0000"/>
</g>
<g filter="url(#filter7_di_102_1373)">
<path fill-rule="evenodd" clip-rule="evenodd" d="M488.478 245.236L429.188 282.298L430.046 283.317V343.853H431.096L430.771 344.223L488.955 382.236L489.698 381.391L489.809 381.523L549.092 344.452L548.588 343.853H549.188V282.299H547.188V282.363L490.464 245.291L489.473 246.417L488.478 245.236ZM488.84 379.878L432.046 342.773L432.046 282.764L489.425 246.895L547.188 284.646V343.39L488.84 379.878Z" fill="#FF0000"/>
<path d="M431.688 342.736L489.188 245.236L488.688 380.236L431.688 342.736Z" fill="#FF0000"/>
<path d="M431.812 282.736L487.688 247.736L431.812 343.984L431.812 282.736Z" fill="#FF0000"/>
<path d="M547.688 343.736L488.851 379.828L547.29 283.236L547.688 343.736Z" fill="#FF0000"/>
<path d="M546.688 284.236L487.688 381.736L487.688 245.236L546.688 284.236Z" fill="#FF0000"/>
</g>
<g filter="url(#filter8_di_102_1373)">
<path fill-rule="evenodd" clip-rule="evenodd" d="M352.478 699.236L293.188 736.298L294.046 737.317V797.853H295.096L294.771 798.223L352.955 836.236L353.698 835.391L353.809 835.523L413.092 798.452L412.588 797.853H413.188V736.299H411.188V736.363L354.464 699.291L353.473 700.417L352.478 699.236ZM352.84 833.878L296.046 796.773L296.046 736.764L353.425 700.895L411.188 738.646V797.39L352.84 833.878Z" fill="#FF0000"/>
<path d="M295.688 796.736L353.188 699.236L352.688 834.236L295.688 796.736Z" fill="#FF0000"/>
<path d="M295.812 736.736L351.688 701.736L295.812 797.984L295.812 736.736Z" fill="#FF0000"/>
<path d="M411.688 797.736L352.851 833.828L411.29 737.236L411.688 797.736Z" fill="#FF0000"/>
<path d="M410.688 738.236L351.688 835.736L351.688 699.236L410.688 738.236Z" fill="#FF0000"/>
</g>
<g filter="url(#filter9_di_102_1373)">
<path fill-rule="evenodd" clip-rule="evenodd" d="M554.478 132.236L495.188 169.298L496.046 170.317V230.853H497.096L496.771 231.223L554.955 269.236L555.698 268.391L555.809 268.523L615.092 231.452L614.588 230.853H615.188V169.299H613.188V169.363L556.464 132.291L555.473 133.417L554.478 132.236ZM554.84 266.878L498.046 229.773L498.046 169.764L555.425 133.895L613.188 171.646V230.39L554.84 266.878Z" fill="#FF0000"/>
<path d="M497.688 229.736L555.188 132.236L554.688 267.236L497.688 229.736Z" fill="#FF0000"/>
<path d="M497.812 169.736L553.688 134.736L497.812 230.984L497.812 169.736Z" fill="#FF0000"/>
<path d="M613.688 230.736L554.851 266.828L613.29 170.236L613.688 230.736Z" fill="#FF0000"/>
<path d="M612.688 171.236L553.688 268.736L553.688 132.236L612.688 171.236Z" fill="#FF0000"/>
</g>
<g filter="url(#filter10_di_102_1373)">
<path fill-rule="evenodd" clip-rule="evenodd" d="M420.478 355.236L361.188 392.298L362.046 393.317V453.853H363.096L362.771 454.223L420.955 492.236L421.698 491.391L421.809 491.523L481.092 454.452L480.588 453.853H481.188V392.299H479.188V392.363L422.464 355.291L421.473 356.417L420.478 355.236ZM420.84 489.878L364.046 452.773L364.046 392.764L421.425 356.895L479.188 394.646V453.39L420.84 489.878Z" fill="#FF0000"/>
<path d="M363.688 452.736L421.188 355.236L420.688 490.236L363.688 452.736Z" fill="#FF0000"/>
<path d="M363.812 392.736L419.688 357.736L363.812 453.984L363.812 392.736Z" fill="#FF0000"/>
<path d="M479.688 453.736L420.851 489.828L479.29 393.236L479.688 453.736Z" fill="#FF0000"/>
<path d="M478.688 394.236L419.688 491.736L419.688 355.236L478.688 394.236Z" fill="#FF0000"/>
</g>
<g filter="url(#filter11_di_102_1373)">
<path fill-rule="evenodd" clip-rule="evenodd" d="M822.478 359.236L763.188 396.298L764.046 397.317V457.853H765.096L764.771 458.223L822.955 496.236L823.698 495.391L823.81 495.523L883.092 458.452L882.588 457.853H883.188V396.299H881.188V396.363L824.464 359.291L823.473 360.417L822.478 359.236ZM822.84 493.878L766.046 456.773L766.046 396.764L823.425 360.895L881.188 398.646V457.39L822.84 493.878Z" fill="#FF0000"/>
<path d="M765.688 456.736L823.188 359.236L822.688 494.236L765.688 456.736Z" fill="#FF0000"/>
<path d="M765.812 396.736L821.688 361.736L765.812 457.984L765.812 396.736Z" fill="#FF0000"/>
<path d="M881.688 457.736L822.851 493.828L881.29 397.236L881.688 457.736Z" fill="#FF0000"/>
<path d="M880.688 398.236L821.688 495.736L821.688 359.236L880.688 398.236Z" fill="#FF0000"/>
</g>
<g filter="url(#filter12_di_102_1373)">
<path fill-rule="evenodd" clip-rule="evenodd" d="M220.478 469.236L161.188 506.298L162.046 507.317V567.853H163.096L162.771 568.223L220.955 606.236L221.698 605.391L221.809 605.523L281.092 568.452L280.588 567.853H281.188V506.299H279.188V506.363L222.464 469.291L221.473 470.417L220.478 469.236ZM220.84 603.878L164.046 566.773L164.046 506.764L221.425 470.895L279.188 508.646V567.39L220.84 603.878Z" fill="#FF0000"/>
<path d="M163.688 566.736L221.188 469.236L220.688 604.236L163.688 566.736Z" fill="#FF0000"/>
<path d="M163.812 506.736L219.688 471.736L163.812 567.984L163.812 506.736Z" fill="#FF0000"/>
<path d="M279.688 567.736L220.852 603.828L279.29 507.236L279.688 567.736Z" fill="#FF0000"/>
<path d="M278.688 508.236L219.688 605.736L219.688 469.236L278.688 508.236Z" fill="#FF0000"/>
</g>
<g filter="url(#filter13_di_102_1373)">
<path fill-rule="evenodd" clip-rule="evenodd" d="M622.478 473.236L563.188 510.298L564.046 511.317V571.853H565.096L564.771 572.223L622.955 610.236L623.698 609.391L623.809 609.523L683.092 572.452L682.588 571.853H683.188V510.299H681.188V510.363L624.464 473.291L623.473 474.417L622.478 473.236ZM622.84 607.878L566.046 570.773L566.046 510.764L623.425 474.895L681.188 512.646V571.39L622.84 607.878Z" fill="#FF0000"/>
<path d="M565.688 570.736L623.188 473.236L622.688 608.236L565.688 570.736Z" fill="#FF0000"/>
<path d="M565.812 510.736L621.688 475.736L565.812 571.984L565.812 510.736Z" fill="#FF0000"/>
<path d="M681.688 571.736L622.851 607.828L681.29 511.236L681.688 571.736Z" fill="#FF0000"/>
<path d="M680.688 512.236L621.688 609.736L621.688 473.236L680.688 512.236Z" fill="#FF0000"/>
</g>
<g filter="url(#filter14_di_102_1373)">
<path fill-rule="evenodd" clip-rule="evenodd" d="M283.478 355.236L224.188 392.298L225.046 393.317V453.853H226.096L225.771 454.223L283.955 492.236L284.698 491.391L284.809 491.523L344.092 454.452L343.588 453.853H344.188V392.299H342.188V392.363L285.464 355.291L284.473 356.417L283.478 355.236ZM283.84 489.878L227.046 452.773L227.046 392.764L284.425 356.895L342.188 394.646V453.39L283.84 489.878Z" fill="#FF0000"/>
<path d="M226.688 452.736L284.188 355.236L283.688 490.236L226.688 452.736Z" fill="#FF0000"/>
<path d="M226.812 392.736L282.688 357.736L226.812 453.984L226.812 392.736Z" fill="#FF0000"/>
<path d="M342.688 453.736L283.851 489.828L342.29 393.236L342.688 453.736Z" fill="#FF0000"/>
<path d="M341.688 394.236L282.688 491.736L282.688 355.236L341.688 394.236Z" fill="#FF0000"/>
</g>
<g filter="url(#filter15_di_102_1373)">
<path fill-rule="evenodd" clip-rule="evenodd" d="M685.478 359.236L626.188 396.298L627.046 397.317V457.853H628.096L627.771 458.223L685.955 496.236L686.698 495.391L686.81 495.523L746.092 458.452L745.588 457.853H746.188V396.299H744.188V396.363L687.464 359.291L686.473 360.417L685.478 359.236ZM685.84 493.878L629.046 456.773L629.046 396.764L686.425 360.895L744.188 398.646V457.39L685.84 493.878Z" fill="#FF0000"/>
<path d="M628.688 456.736L686.188 359.236L685.688 494.236L628.688 456.736Z" fill="#FF0000"/>
<path d="M628.812 396.736L684.688 361.736L628.812 457.984L628.812 396.736Z" fill="#FF0000"/>
<path d="M744.688 457.736L685.851 493.828L744.29 397.236L744.688 457.736Z" fill="#FF0000"/>
<path d="M743.688 398.236L684.688 495.736L684.688 359.236L743.688 398.236Z" fill="#FF0000"/>
</g>
<g filter="url(#filter16_di_102_1373)">
<path fill-rule="evenodd" clip-rule="evenodd" d="M83.4784 469.236L24.1884 506.298L25.0456 507.317L25.0456 567.853H26.096L25.7708 568.223L83.9549 606.236L84.6979 605.391L84.8095 605.523L144.092 568.452L143.588 567.853H144.188V506.299H142.188V506.363L85.4641 469.291L84.4729 470.417L83.4784 469.236ZM83.8402 603.878L27.0461 566.773L27.0456 506.764L84.4253 470.895L142.188 508.646V567.39L83.8402 603.878Z" fill="#FF0000"/>
<path d="M26.6884 566.736L84.1884 469.236L83.6884 604.236L26.6884 566.736Z" fill="#FF0000"/>
<path d="M26.8123 506.736L82.6884 471.736L26.8123 567.984L26.8123 506.736Z" fill="#FF0000"/>
<path d="M142.688 567.736L83.8515 603.828L142.29 507.236L142.688 567.736Z" fill="#FF0000"/>
<path d="M141.688 508.236L82.6884 605.736L82.6884 469.236L141.688 508.236Z" fill="#FF0000"/>
</g>
<g filter="url(#filter17_di_102_1373)">
<path fill-rule="evenodd" clip-rule="evenodd" d="M485.478 473.236L426.188 510.298L427.046 511.317V571.853H428.096L427.771 572.223L485.955 610.236L486.698 609.391L486.809 609.523L546.092 572.452L545.588 571.853H546.188V510.299H544.188V510.363L487.464 473.291L486.473 474.417L485.478 473.236ZM485.84 607.878L429.046 570.773L429.046 510.764L486.425 474.895L544.188 512.646V571.39L485.84 607.878Z" fill="#FF0000"/>
<path d="M428.688 570.736L486.188 473.236L485.688 608.236L428.688 570.736Z" fill="#FF0000"/>
<path d="M428.812 510.736L484.688 475.736L428.812 571.984L428.812 510.736Z" fill="#FF0000"/>
<path d="M544.688 571.736L485.851 607.828L544.29 511.236L544.688 571.736Z" fill="#FF0000"/>
<path d="M543.688 512.236L484.688 609.736L484.688 473.236L543.688 512.236Z" fill="#FF0000"/>
</g>
<g filter="url(#filter18_d_102_1373)">
<path fill-rule="evenodd" clip-rule="evenodd" d="M354.29 467L295 506.387L295.857 507.469V571.802H296.908L296.582 572.194L354.766 612.591L355.51 611.693L355.621 611.834L414.904 572.438L414.4 571.802H415V506.387H413V506.456L356.276 467.059L355.285 468.256L354.29 467ZM354.652 610.085L297.858 570.654L297.857 506.881L355.237 468.764L413 508.882V571.31L354.652 610.085Z" fill="#FF0000"/>
</g>
<g filter="url(#filter19_d_102_1373)">
<path fill-rule="evenodd" clip-rule="evenodd" d="M756.29 471L697 510.387L697.857 511.469V575.802H698.908L698.582 576.194L756.766 616.591L757.51 615.693L757.621 615.834L816.904 576.438L816.4 575.802H817V510.387H815V510.456L758.276 471.059L757.285 472.256L756.29 471ZM756.652 614.085L699.858 574.654L699.857 510.881L757.237 472.764L815 512.882V575.31L756.652 614.085Z" fill="#FF0000"/>
</g>
<g filter="url(#filter20_d_102_1373)">
<path fill-rule="evenodd" clip-rule="evenodd" d="M154.29 581L95 620.387L95.8571 621.469V685.802H96.9075L96.5824 686.194L154.766 726.591L155.51 725.693L155.621 725.834L214.904 686.438L214.4 685.802H215V620.387H213V620.456L156.276 581.059L155.285 582.256L154.29 581ZM154.652 724.085L97.8577 684.654L97.8571 620.881L155.237 582.764L213 622.882V685.31L154.652 724.085Z" fill="#FF0000"/>
</g>
<g filter="url(#filter21_d_102_1373)">
<path fill-rule="evenodd" clip-rule="evenodd" d="M556.29 585L497 624.387L497.857 625.469V689.802H498.908L498.582 690.194L556.766 730.591L557.51 729.693L557.621 729.834L616.904 690.438L616.4 689.802H617V624.387H615V624.456L558.276 585.059L557.285 586.256L556.29 585ZM556.652 728.085L499.858 688.654L499.857 624.881L557.237 586.764L615 626.882V689.31L556.652 728.085Z" fill="#FF0000"/>
</g>
<g filter="url(#filter22_d_102_1373)">
<path fill-rule="evenodd" clip-rule="evenodd" d="M354.29 237L295 276.387L295.857 277.469V341.802H296.908L296.582 342.194L354.766 382.591L355.51 381.693L355.621 381.834L414.904 342.438L414.4 341.802H415V276.387H413V276.456L356.276 237.059L355.285 238.256L354.29 237ZM354.652 380.085L297.858 340.654L297.857 276.881L355.237 238.764L413 278.882V341.31L354.652 380.085Z" fill="#FF0000"/>
</g>
<g filter="url(#filter23_d_102_1373)">
<path fill-rule="evenodd" clip-rule="evenodd" d="M756.29 241L697 280.387L697.857 281.469V345.802H698.908L698.582 346.194L756.766 386.591L757.51 385.693L757.621 385.834L816.904 346.438L816.4 345.802H817V280.387H815V280.456L758.276 241.059L757.285 242.256L756.29 241ZM756.652 384.085L699.858 344.654L699.857 280.881L757.237 242.764L815 282.882V345.31L756.652 384.085Z" fill="#FF0000"/>
</g>
<g filter="url(#filter24_d_102_1373)">
<path fill-rule="evenodd" clip-rule="evenodd" d="M352.29 4.99997L293 44.3867L293.857 45.4689V109.802H294.908L294.582 110.194L352.766 150.591L353.51 149.693L353.621 149.834L412.904 110.438L412.4 109.802H413V44.3872H411V44.4556L354.276 5.05878L353.285 6.25565L352.29 4.99997ZM352.652 148.085L295.858 108.654L295.857 44.8814L353.237 6.76366L411 46.8819V109.31L352.652 148.085Z" fill="#FF0000"/>
<path fill-rule="evenodd" clip-rule="evenodd" d="M151.29 351L92 390.387L92.8571 391.469V455.802H93.9075L93.5824 456.194L151.766 496.591L152.51 495.693L152.621 495.834L211.904 456.438L211.4 455.802H212V390.387H210V390.456L153.276 351.059L152.285 352.256L151.29 351ZM151.652 494.085L94.8577 454.654L94.8571 390.881L152.237 352.764L210 392.882V455.31L151.652 494.085Z" fill="#FF0000"/>
<path fill-rule="evenodd" clip-rule="evenodd" d="M151.29 120L92 159.387L92.8571 160.469V224.802H93.9075L93.5824 225.194L151.766 265.591L152.51 264.693L152.621 264.834L211.904 225.438L211.4 224.802H212V159.387H210V159.456L153.276 120.059L152.285 121.256L151.29 120ZM151.652 263.085L94.8577 223.654L94.8571 159.881L152.237 121.764L210 161.882V224.31L151.652 263.085Z" fill="#FF0000"/>
</g>
<g filter="url(#filter25_d_102_1373)">
<path fill-rule="evenodd" clip-rule="evenodd" d="M556.29 355L497 394.387L497.857 395.469V459.802H498.908L498.582 460.194L556.766 500.591L557.51 499.693L557.621 499.834L616.904 460.438L616.4 459.802H617V394.387H615V394.456L558.276 355.059L557.285 356.256L556.29 355ZM556.652 498.085L499.858 458.654L499.857 394.881L557.237 356.764L615 396.882V459.31L556.652 498.085Z" fill="#FF0000"/>
</g>
<g filter="url(#filter26_d_102_1373)">
<path fill-rule="evenodd" clip-rule="evenodd" d="M222.29 236L163 275.387L163.857 276.469V340.802H164.908L164.582 341.194L222.766 381.591L223.51 380.693L223.621 380.834L282.904 341.438L282.4 340.802H283V275.387H281V275.456L224.276 236.059L223.285 237.256L222.29 236ZM222.652 379.085L165.858 339.654L165.857 275.881L223.237 237.764L281 277.882V340.31L222.652 379.085Z" fill="#FF0000"/>
</g>
<g filter="url(#filter27_d_102_1373)">
<path fill-rule="evenodd" clip-rule="evenodd" d="M421.29 123L362 162.387L362.857 163.469V227.802H363.908L363.582 228.194L421.766 268.591L422.51 267.693L422.621 267.834L481.904 228.438L481.4 227.802H482V162.387H480V162.456L423.276 123.059L422.285 124.256L421.29 123ZM421.652 266.085L364.858 226.654L364.857 162.881L422.237 124.764L480 164.882V227.31L421.652 266.085Z" fill="#FF0000"/>
</g>
<g filter="url(#filter28_d_102_1373)">
<path fill-rule="evenodd" clip-rule="evenodd" d="M624.29 240L565 279.387L565.857 280.469V344.802H566.908L566.582 345.194L624.766 385.591L625.51 384.693L625.621 384.834L684.904 345.438L684.4 344.802H685V279.387H683V279.456L626.276 240.059L625.285 241.256L624.29 240ZM624.652 383.085L567.858 343.654L567.857 279.881L625.237 241.764L683 281.882V344.31L624.652 383.085Z" fill="#FF0000"/>
</g>
<path d="M741.5 757.591C741.224 757.591 741 757.367 741 757.091V755.091C741 754.814 741.224 754.591 741.5 754.591V754.591C741.776 754.591 742 754.814 742 755.091V757.091C742 757.367 741.776 757.591 741.5 757.591V757.591Z" fill="#404040"/>
<path d="M742 757.091V755.091H740V757.091H742ZM741 755.091V757.091H743V755.091H741ZM741 757.091C741 756.814 741.224 756.591 741.5 756.591V758.591C742.328 758.591 743 757.919 743 757.091H741ZM741.5 755.591C741.224 755.591 741 755.367 741 755.091H743C743 754.262 742.328 753.591 741.5 753.591V755.591ZM742 755.091C742 755.367 741.776 755.591 741.5 755.591V753.591C740.672 753.591 740 754.262 740 755.091H742ZM740 757.091C740 757.919 740.672 758.591 741.5 758.591V756.591C741.776 756.591 742 756.814 742 757.091H740Z" fill="white"/>
<defs>
<filter id="filter0_di_102_1373" x="209.188" y="573.236" width="152" height="169" filterUnits="userSpaceOnUse" color-interpolation-filters="sRGB">
<feFlood flood-opacity="0" result="BackgroundImageFix"/>
<feColorMatrix in="SourceAlpha" type="matrix" values="0 0 0 0 0 0 0 0 0 0 0 0 0 0 0 0 0 0 127 0" result="hardAlpha"/>
<feOffset dy="4"/>
<feGaussianBlur stdDeviation="8"/>
<feComposite in2="hardAlpha" operator="out"/>
<feColorMatrix type="matrix" values="0 0 0 0 0.391667 0 0 0 0 0.391667 0 0 0 0 0.391667 0 0 0 1 0"/>
<feBlend mode="normal" in2="BackgroundImageFix" result="effect1_dropShadow_102_1373"/>
<feBlend mode="normal" in="SourceGraphic" in2="effect1_dropShadow_102_1373" result="shape"/>
<feColorMatrix in="SourceAlpha" type="matrix" values="0 0 0 0 0 0 0 0 0 0 0 0 0 0 0 0 0 0 127 0" result="hardAlpha"/>
<feOffset/>
<feGaussianBlur stdDeviation="32"/>
<feComposite in2="hardAlpha" operator="arithmetic" k2="-1" k3="1"/>
<feColorMatrix type="matrix" values="0 0 0 0 0.8875 0 0 0 0 0.8875 0 0 0 0 0.8875 0 0 0 1 0"/>
<feBlend mode="normal" in2="shape" result="effect2_innerShadow_102_1373"/>
</filter>
<filter id="filter1_di_102_1373" x="611.188" y="577.236" width="152" height="169" filterUnits="userSpaceOnUse" color-interpolation-filters="sRGB">
<feFlood flood-opacity="0" result="BackgroundImageFix"/>
<feColorMatrix in="SourceAlpha" type="matrix" values="0 0 0 0 0 0 0 0 0 0 0 0 0 0 0 0 0 0 127 0" result="hardAlpha"/>
<feOffset dy="4"/>
<feGaussianBlur stdDeviation="8"/>
<feComposite in2="hardAlpha" operator="out"/>
<feColorMatrix type="matrix" values="0 0 0 0 0.391667 0 0 0 0 0.391667 0 0 0 0 0.391667 0 0 0 1 0"/>
<feBlend mode="normal" in2="BackgroundImageFix" result="effect1_dropShadow_102_1373"/>
<feBlend mode="normal" in="SourceGraphic" in2="effect1_dropShadow_102_1373" result="shape"/>
<feColorMatrix in="SourceAlpha" type="matrix" values="0 0 0 0 0 0 0 0 0 0 0 0 0 0 0 0 0 0 127 0" result="hardAlpha"/>
<feOffset/>
<feGaussianBlur stdDeviation="32"/>
<feComposite in2="hardAlpha" operator="arithmetic" k2="-1" k3="1"/>
<feColorMatrix type="matrix" values="0 0 0 0 0.8875 0 0 0 0 0.8875 0 0 0 0 0.8875 0 0 0 1 0"/>
<feBlend mode="normal" in2="shape" result="effect2_innerShadow_102_1373"/>
</filter>
<filter id="filter2_di_102_1373" x="343.188" y="577.236" width="152" height="169" filterUnits="userSpaceOnUse" color-interpolation-filters="sRGB">
<feFlood flood-opacity="0" result="BackgroundImageFix"/>
<feColorMatrix in="SourceAlpha" type="matrix" values="0 0 0 0 0 0 0 0 0 0 0 0 0 0 0 0 0 0 127 0" result="hardAlpha"/>
<feOffset dy="4"/>
<feGaussianBlur stdDeviation="8"/>
<feComposite in2="hardAlpha" operator="out"/>
<feColorMatrix type="matrix" values="0 0 0 0 0.391667 0 0 0 0 0.391667 0 0 0 0 0.391667 0 0 0 1 0"/>
<feBlend mode="normal" in2="BackgroundImageFix" result="effect1_dropShadow_102_1373"/>
<feBlend mode="normal" in="SourceGraphic" in2="effect1_dropShadow_102_1373" result="shape"/>
<feColorMatrix in="SourceAlpha" type="matrix" values="0 0 0 0 0 0 0 0 0 0 0 0 0 0 0 0 0 0 127 0" result="hardAlpha"/>
<feOffset/>
<feGaussianBlur stdDeviation="32"/>
<feComposite in2="hardAlpha" operator="arithmetic" k2="-1" k3="1"/>
<feColorMatrix type="matrix" values="0 0 0 0 0.8875 0 0 0 0 0.8875 0 0 0 0 0.8875 0 0 0 1 0"/>
<feBlend mode="normal" in2="shape" result="effect2_innerShadow_102_1373"/>
</filter>
<filter id="filter3_di_102_1373" x="411.188" y="691.236" width="152" height="169" filterUnits="userSpaceOnUse" color-interpolation-filters="sRGB">
<feFlood flood-opacity="0" result="BackgroundImageFix"/>
<feColorMatrix in="SourceAlpha" type="matrix" values="0 0 0 0 0 0 0 0 0 0 0 0 0 0 0 0 0 0 127 0" result="hardAlpha"/>
<feOffset dy="4"/>
<feGaussianBlur stdDeviation="8"/>
<feComposite in2="hardAlpha" operator="out"/>
<feColorMatrix type="matrix" values="0 0 0 0 0.391667 0 0 0 0 0.391667 0 0 0 0 0.391667 0 0 0 1 0"/>
<feBlend mode="normal" in2="BackgroundImageFix" result="effect1_dropShadow_102_1373"/>
<feBlend mode="normal" in="SourceGraphic" in2="effect1_dropShadow_102_1373" result="shape"/>
<feColorMatrix in="SourceAlpha" type="matrix" values="0 0 0 0 0 0 0 0 0 0 0 0 0 0 0 0 0 0 127 0" result="hardAlpha"/>
<feOffset/>
<feGaussianBlur stdDeviation="32"/>
<feComposite in2="hardAlpha" operator="arithmetic" k2="-1" k3="1"/>
<feColorMatrix type="matrix" values="0 0 0 0 0.8875 0 0 0 0 0.8875 0 0 0 0 0.8875 0 0 0 1 0"/>
<feBlend mode="normal" in2="shape" result="effect2_innerShadow_102_1373"/>
</filter>
<filter id="filter4_di_102_1373" x="209.188" y="113.236" width="152" height="169" filterUnits="userSpaceOnUse" color-interpolation-filters="sRGB">
<feFlood flood-opacity="0" result="BackgroundImageFix"/>
<feColorMatrix in="SourceAlpha" type="matrix" values="0 0 0 0 0 0 0 0 0 0 0 0 0 0 0 0 0 0 127 0" result="hardAlpha"/>
<feOffset dy="4"/>
<feGaussianBlur stdDeviation="8"/>
<feComposite in2="hardAlpha" operator="out"/>
<feColorMatrix type="matrix" values="0 0 0 0 0.391667 0 0 0 0 0.391667 0 0 0 0 0.391667 0 0 0 1 0"/>
<feBlend mode="normal" in2="BackgroundImageFix" result="effect1_dropShadow_102_1373"/>
<feBlend mode="normal" in="SourceGraphic" in2="effect1_dropShadow_102_1373" result="shape"/>
<feColorMatrix in="SourceAlpha" type="matrix" values="0 0 0 0 0 0 0 0 0 0 0 0 0 0 0 0 0 0 127 0" result="hardAlpha"/>
<feOffset/>
<feGaussianBlur stdDeviation="32"/>
<feComposite in2="hardAlpha" operator="arithmetic" k2="-1" k3="1"/>
<feColorMatrix type="matrix" values="0 0 0 0 0.8875 0 0 0 0 0.8875 0 0 0 0 0.8875 0 0 0 1 0"/>
<feBlend mode="normal" in2="shape" result="effect2_innerShadow_102_1373"/>
</filter>
<filter id="filter5_di_102_1373" x="611.188" y="117.236" width="152" height="169" filterUnits="userSpaceOnUse" color-interpolation-filters="sRGB">
<feFlood flood-opacity="0" result="BackgroundImageFix"/>
<feColorMatrix in="SourceAlpha" type="matrix" values="0 0 0 0 0 0 0 0 0 0 0 0 0 0 0 0 0 0 127 0" result="hardAlpha"/>
<feOffset dy="4"/>
<feGaussianBlur stdDeviation="8"/>
<feComposite in2="hardAlpha" operator="out"/>
<feColorMatrix type="matrix" values="0 0 0 0 0.391667 0 0 0 0 0.391667 0 0 0 0 0.391667 0 0 0 1 0"/>
<feBlend mode="normal" in2="BackgroundImageFix" result="effect1_dropShadow_102_1373"/>
<feBlend mode="normal" in="SourceGraphic" in2="effect1_dropShadow_102_1373" result="shape"/>
<feColorMatrix in="SourceAlpha" type="matrix" values="0 0 0 0 0 0 0 0 0 0 0 0 0 0 0 0 0 0 127 0" result="hardAlpha"/>
<feOffset/>
<feGaussianBlur stdDeviation="32"/>
<feComposite in2="hardAlpha" operator="arithmetic" k2="-1" k3="1"/>
<feColorMatrix type="matrix" values="0 0 0 0 0.8875 0 0 0 0 0.8875 0 0 0 0 0.8875 0 0 0 1 0"/>
<feBlend mode="normal" in2="shape" result="effect2_innerShadow_102_1373"/>
</filter>
<filter id="filter6_di_102_1373" x="11.1884" y="229.236" width="152" height="169" filterUnits="userSpaceOnUse" color-interpolation-filters="sRGB">
<feFlood flood-opacity="0" result="BackgroundImageFix"/>
<feColorMatrix in="SourceAlpha" type="matrix" values="0 0 0 0 0 0 0 0 0 0 0 0 0 0 0 0 0 0 127 0" result="hardAlpha"/>
<feOffset dy="4"/>
<feGaussianBlur stdDeviation="8"/>
<feComposite in2="hardAlpha" operator="out"/>
<feColorMatrix type="matrix" values="0 0 0 0 0.391667 0 0 0 0 0.391667 0 0 0 0 0.391667 0 0 0 1 0"/>
<feBlend mode="normal" in2="BackgroundImageFix" result="effect1_dropShadow_102_1373"/>
<feBlend mode="normal" in="SourceGraphic" in2="effect1_dropShadow_102_1373" result="shape"/>
<feColorMatrix in="SourceAlpha" type="matrix" values="0 0 0 0 0 0 0 0 0 0 0 0 0 0 0 0 0 0 127 0" result="hardAlpha"/>
<feOffset/>
<feGaussianBlur stdDeviation="32"/>
<feComposite in2="hardAlpha" operator="arithmetic" k2="-1" k3="1"/>
<feColorMatrix type="matrix" values="0 0 0 0 0.8875 0 0 0 0 0.8875 0 0 0 0 0.8875 0 0 0 1 0"/>
<feBlend mode="normal" in2="shape" result="effect2_innerShadow_102_1373"/>
</filter>
<filter id="filter7_di_102_1373" x="413.188" y="233.236" width="152" height="169" filterUnits="userSpaceOnUse" color-interpolation-filters="sRGB">
<feFlood flood-opacity="0" result="BackgroundImageFix"/>
<feColorMatrix in="SourceAlpha" type="matrix" values="0 0 0 0 0 0 0 0 0 0 0 0 0 0 0 0 0 0 127 0" result="hardAlpha"/>
<feOffset dy="4"/>
<feGaussianBlur stdDeviation="8"/>
<feComposite in2="hardAlpha" operator="out"/>
<feColorMatrix type="matrix" values="0 0 0 0 0.391667 0 0 0 0 0.391667 0 0 0 0 0.391667 0 0 0 1 0"/>
<feBlend mode="normal" in2="BackgroundImageFix" result="effect1_dropShadow_102_1373"/>
<feBlend mode="normal" in="SourceGraphic" in2="effect1_dropShadow_102_1373" result="shape"/>
<feColorMatrix in="SourceAlpha" type="matrix" values="0 0 0 0 0 0 0 0 0 0 0 0 0 0 0 0 0 0 127 0" result="hardAlpha"/>
<feOffset/>
<feGaussianBlur stdDeviation="32"/>
<feComposite in2="hardAlpha" operator="arithmetic" k2="-1" k3="1"/>
<feColorMatrix type="matrix" values="0 0 0 0 0.8875 0 0 0 0 0.8875 0 0 0 0 0.8875 0 0 0 1 0"/>
<feBlend mode="normal" in2="shape" result="effect2_innerShadow_102_1373"/>
</filter>
<filter id="filter8_di_102_1373" x="277.188" y="687.236" width="152" height="169" filterUnits="userSpaceOnUse" color-interpolation-filters="sRGB">
<feFlood flood-opacity="0" result="BackgroundImageFix"/>
<feColorMatrix in="SourceAlpha" type="matrix" values="0 0 0 0 0 0 0 0 0 0 0 0 0 0 0 0 0 0 127 0" result="hardAlpha"/>
<feOffset dy="4"/>
<feGaussianBlur stdDeviation="8"/>
<feComposite in2="hardAlpha" operator="out"/>
<feColorMatrix type="matrix" values="0 0 0 0 0.391667 0 0 0 0 0.391667 0 0 0 0 0.391667 0 0 0 1 0"/>
<feBlend mode="normal" in2="BackgroundImageFix" result="effect1_dropShadow_102_1373"/>
<feBlend mode="normal" in="SourceGraphic" in2="effect1_dropShadow_102_1373" result="shape"/>
<feColorMatrix in="SourceAlpha" type="matrix" values="0 0 0 0 0 0 0 0 0 0 0 0 0 0 0 0 0 0 127 0" result="hardAlpha"/>
<feOffset/>
<feGaussianBlur stdDeviation="32"/>
<feComposite in2="hardAlpha" operator="arithmetic" k2="-1" k3="1"/>
<feColorMatrix type="matrix" values="0 0 0 0 0.8875 0 0 0 0 0.8875 0 0 0 0 0.8875 0 0 0 1 0"/>
<feBlend mode="normal" in2="shape" result="effect2_innerShadow_102_1373"/>
</filter>
<filter id="filter9_di_102_1373" x="479.188" y="120.236" width="152" height="169" filterUnits="userSpaceOnUse" color-interpolation-filters="sRGB">
<feFlood flood-opacity="0" result="BackgroundImageFix"/>
<feColorMatrix in="SourceAlpha" type="matrix" values="0 0 0 0 0 0 0 0 0 0 0 0 0 0 0 0 0 0 127 0" result="hardAlpha"/>
<feOffset dy="4"/>
<feGaussianBlur stdDeviation="8"/>
<feComposite in2="hardAlpha" operator="out"/>
<feColorMatrix type="matrix" values="0 0 0 0 0.391667 0 0 0 0 0.391667 0 0 0 0 0.391667 0 0 0 1 0"/>
<feBlend mode="normal" in2="BackgroundImageFix" result="effect1_dropShadow_102_1373"/>
<feBlend mode="normal" in="SourceGraphic" in2="effect1_dropShadow_102_1373" result="shape"/>
<feColorMatrix in="SourceAlpha" type="matrix" values="0 0 0 0 0 0 0 0 0 0 0 0 0 0 0 0 0 0 127 0" result="hardAlpha"/>
<feOffset/>
<feGaussianBlur stdDeviation="32"/>
<feComposite in2="hardAlpha" operator="arithmetic" k2="-1" k3="1"/>
<feColorMatrix type="matrix" values="0 0 0 0 0.8875 0 0 0 0 0.8875 0 0 0 0 0.8875 0 0 0 1 0"/>
<feBlend mode="normal" in2="shape" result="effect2_innerShadow_102_1373"/>
</filter>
<filter id="filter10_di_102_1373" x="345.188" y="343.236" width="152" height="169" filterUnits="userSpaceOnUse" color-interpolation-filters="sRGB">
<feFlood flood-opacity="0" result="BackgroundImageFix"/>
<feColorMatrix in="SourceAlpha" type="matrix" values="0 0 0 0 0 0 0 0 0 0 0 0 0 0 0 0 0 0 127 0" result="hardAlpha"/>
<feOffset dy="4"/>
<feGaussianBlur stdDeviation="8"/>
<feComposite in2="hardAlpha" operator="out"/>
<feColorMatrix type="matrix" values="0 0 0 0 0.391667 0 0 0 0 0.391667 0 0 0 0 0.391667 0 0 0 1 0"/>
<feBlend mode="normal" in2="BackgroundImageFix" result="effect1_dropShadow_102_1373"/>
<feBlend mode="normal" in="SourceGraphic" in2="effect1_dropShadow_102_1373" result="shape"/>
<feColorMatrix in="SourceAlpha" type="matrix" values="0 0 0 0 0 0 0 0 0 0 0 0 0 0 0 0 0 0 127 0" result="hardAlpha"/>
<feOffset/>
<feGaussianBlur stdDeviation="32"/>
<feComposite in2="hardAlpha" operator="arithmetic" k2="-1" k3="1"/>
<feColorMatrix type="matrix" values="0 0 0 0 0.8875 0 0 0 0 0.8875 0 0 0 0 0.8875 0 0 0 1 0"/>
<feBlend mode="normal" in2="shape" result="effect2_innerShadow_102_1373"/>
</filter>
<filter id="filter11_di_102_1373" x="747.188" y="347.236" width="152" height="169" filterUnits="userSpaceOnUse" color-interpolation-filters="sRGB">
<feFlood flood-opacity="0" result="BackgroundImageFix"/>
<feColorMatrix in="SourceAlpha" type="matrix" values="0 0 0 0 0 0 0 0 0 0 0 0 0 0 0 0 0 0 127 0" result="hardAlpha"/>
<feOffset dy="4"/>
<feGaussianBlur stdDeviation="8"/>
<feComposite in2="hardAlpha" operator="out"/>
<feColorMatrix type="matrix" values="0 0 0 0 0.391667 0 0 0 0 0.391667 0 0 0 0 0.391667 0 0 0 1 0"/>
<feBlend mode="normal" in2="BackgroundImageFix" result="effect1_dropShadow_102_1373"/>
<feBlend mode="normal" in="SourceGraphic" in2="effect1_dropShadow_102_1373" result="shape"/>
<feColorMatrix in="SourceAlpha" type="matrix" values="0 0 0 0 0 0 0 0 0 0 0 0 0 0 0 0 0 0 127 0" result="hardAlpha"/>
<feOffset/>
<feGaussianBlur stdDeviation="32"/>
<feComposite in2="hardAlpha" operator="arithmetic" k2="-1" k3="1"/>
<feColorMatrix type="matrix" values="0 0 0 0 0.8875 0 0 0 0 0.8875 0 0 0 0 0.8875 0 0 0 1 0"/>
<feBlend mode="normal" in2="shape" result="effect2_innerShadow_102_1373"/>
</filter>
<filter id="filter12_di_102_1373" x="145.188" y="457.236" width="152" height="169" filterUnits="userSpaceOnUse" color-interpolation-filters="sRGB">
<feFlood flood-opacity="0" result="BackgroundImageFix"/>
<feColorMatrix in="SourceAlpha" type="matrix" values="0 0 0 0 0 0 0 0 0 0 0 0 0 0 0 0 0 0 127 0" result="hardAlpha"/>
<feOffset dy="4"/>
<feGaussianBlur stdDeviation="8"/>
<feComposite in2="hardAlpha" operator="out"/>
<feColorMatrix type="matrix" values="0 0 0 0 0.391667 0 0 0 0 0.391667 0 0 0 0 0.391667 0 0 0 1 0"/>
<feBlend mode="normal" in2="BackgroundImageFix" result="effect1_dropShadow_102_1373"/>
<feBlend mode="normal" in="SourceGraphic" in2="effect1_dropShadow_102_1373" result="shape"/>
<feColorMatrix in="SourceAlpha" type="matrix" values="0 0 0 0 0 0 0 0 0 0 0 0 0 0 0 0 0 0 127 0" result="hardAlpha"/>
<feOffset/>
<feGaussianBlur stdDeviation="32"/>
<feComposite in2="hardAlpha" operator="arithmetic" k2="-1" k3="1"/>
<feColorMatrix type="matrix" values="0 0 0 0 0.8875 0 0 0 0 0.8875 0 0 0 0 0.8875 0 0 0 1 0"/>
<feBlend mode="normal" in2="shape" result="effect2_innerShadow_102_1373"/>
</filter>
<filter id="filter13_di_102_1373" x="547.188" y="461.236" width="152" height="169" filterUnits="userSpaceOnUse" color-interpolation-filters="sRGB">
<feFlood flood-opacity="0" result="BackgroundImageFix"/>
<feColorMatrix in="SourceAlpha" type="matrix" values="0 0 0 0 0 0 0 0 0 0 0 0 0 0 0 0 0 0 127 0" result="hardAlpha"/>
<feOffset dy="4"/>
<feGaussianBlur stdDeviation="8"/>
<feComposite in2="hardAlpha" operator="out"/>
<feColorMatrix type="matrix" values="0 0 0 0 0.391667 0 0 0 0 0.391667 0 0 0 0 0.391667 0 0 0 1 0"/>
<feBlend mode="normal" in2="BackgroundImageFix" result="effect1_dropShadow_102_1373"/>
<feBlend mode="normal" in="SourceGraphic" in2="effect1_dropShadow_102_1373" result="shape"/>
<feColorMatrix in="SourceAlpha" type="matrix" values="0 0 0 0 0 0 0 0 0 0 0 0 0 0 0 0 0 0 127 0" result="hardAlpha"/>
<feOffset/>
<feGaussianBlur stdDeviation="32"/>
<feComposite in2="hardAlpha" operator="arithmetic" k2="-1" k3="1"/>
<feColorMatrix type="matrix" values="0 0 0 0 0.8875 0 0 0 0 0.8875 0 0 0 0 0.8875 0 0 0 1 0"/>
<feBlend mode="normal" in2="shape" result="effect2_innerShadow_102_1373"/>
</filter>
<filter id="filter14_di_102_1373" x="208.188" y="343.236" width="152" height="169" filterUnits="userSpaceOnUse" color-interpolation-filters="sRGB">
<feFlood flood-opacity="0" result="BackgroundImageFix"/>
<feColorMatrix in="SourceAlpha" type="matrix" values="0 0 0 0 0 0 0 0 0 0 0 0 0 0 0 0 0 0 127 0" result="hardAlpha"/>
<feOffset dy="4"/>
<feGaussianBlur stdDeviation="8"/>
<feComposite in2="hardAlpha" operator="out"/>
<feColorMatrix type="matrix" values="0 0 0 0 0.391667 0 0 0 0 0.391667 0 0 0 0 0.391667 0 0 0 1 0"/>
<feBlend mode="normal" in2="BackgroundImageFix" result="effect1_dropShadow_102_1373"/>
<feBlend mode="normal" in="SourceGraphic" in2="effect1_dropShadow_102_1373" result="shape"/>
<feColorMatrix in="SourceAlpha" type="matrix" values="0 0 0 0 0 0 0 0 0 0 0 0 0 0 0 0 0 0 127 0" result="hardAlpha"/>
<feOffset/>
<feGaussianBlur stdDeviation="32"/>
<feComposite in2="hardAlpha" operator="arithmetic" k2="-1" k3="1"/>
<feColorMatrix type="matrix" values="0 0 0 0 0.8875 0 0 0 0 0.8875 0 0 0 0 0.8875 0 0 0 1 0"/>
<feBlend mode="normal" in2="shape" result="effect2_innerShadow_102_1373"/>
</filter>
<filter id="filter15_di_102_1373" x="610.188" y="347.236" width="152" height="169" filterUnits="userSpaceOnUse" color-interpolation-filters="sRGB">
<feFlood flood-opacity="0" result="BackgroundImageFix"/>
<feColorMatrix in="SourceAlpha" type="matrix" values="0 0 0 0 0 0 0 0 0 0 0 0 0 0 0 0 0 0 127 0" result="hardAlpha"/>
<feOffset dy="4"/>
<feGaussianBlur stdDeviation="8"/>
<feComposite in2="hardAlpha" operator="out"/>
<feColorMatrix type="matrix" values="0 0 0 0 0.391667 0 0 0 0 0.391667 0 0 0 0 0.391667 0 0 0 1 0"/>
<feBlend mode="normal" in2="BackgroundImageFix" result="effect1_dropShadow_102_1373"/>
<feBlend mode="normal" in="SourceGraphic" in2="effect1_dropShadow_102_1373" result="shape"/>
<feColorMatrix in="SourceAlpha" type="matrix" values="0 0 0 0 0 0 0 0 0 0 0 0 0 0 0 0 0 0 127 0" result="hardAlpha"/>
<feOffset/>
<feGaussianBlur stdDeviation="32"/>
<feComposite in2="hardAlpha" operator="arithmetic" k2="-1" k3="1"/>
<feColorMatrix type="matrix" values="0 0 0 0 0.8875 0 0 0 0 0.8875 0 0 0 0 0.8875 0 0 0 1 0"/>
<feBlend mode="normal" in2="shape" result="effect2_innerShadow_102_1373"/>
</filter>
<filter id="filter16_di_102_1373" x="8.18845" y="457.236" width="152" height="169" filterUnits="userSpaceOnUse" color-interpolation-filters="sRGB">
<feFlood flood-opacity="0" result="BackgroundImageFix"/>
<feColorMatrix in="SourceAlpha" type="matrix" values="0 0 0 0 0 0 0 0 0 0 0 0 0 0 0 0 0 0 127 0" result="hardAlpha"/>
<feOffset dy="4"/>
<feGaussianBlur stdDeviation="8"/>
<feComposite in2="hardAlpha" operator="out"/>
<feColorMatrix type="matrix" values="0 0 0 0 0.391667 0 0 0 0 0.391667 0 0 0 0 0.391667 0 0 0 1 0"/>
<feBlend mode="normal" in2="BackgroundImageFix" result="effect1_dropShadow_102_1373"/>
<feBlend mode="normal" in="SourceGraphic" in2="effect1_dropShadow_102_1373" result="shape"/>
<feColorMatrix in="SourceAlpha" type="matrix" values="0 0 0 0 0 0 0 0 0 0 0 0 0 0 0 0 0 0 127 0" result="hardAlpha"/>
<feOffset/>
<feGaussianBlur stdDeviation="32"/>
<feComposite in2="hardAlpha" operator="arithmetic" k2="-1" k3="1"/>
<feColorMatrix type="matrix" values="0 0 0 0 0.8875 0 0 0 0 0.8875 0 0 0 0 0.8875 0 0 0 1 0"/>
<feBlend mode="normal" in2="shape" result="effect2_innerShadow_102_1373"/>
</filter>
<filter id="filter17_di_102_1373" x="410.188" y="461.236" width="152" height="169" filterUnits="userSpaceOnUse" color-interpolation-filters="sRGB">
<feFlood flood-opacity="0" result="BackgroundImageFix"/>
<feColorMatrix in="SourceAlpha" type="matrix" values="0 0 0 0 0 0 0 0 0 0 0 0 0 0 0 0 0 0 127 0" result="hardAlpha"/>
<feOffset dy="4"/>
<feGaussianBlur stdDeviation="8"/>
<feComposite in2="hardAlpha" operator="out"/>
<feColorMatrix type="matrix" values="0 0 0 0 0.391667 0 0 0 0 0.391667 0 0 0 0 0.391667 0 0 0 1 0"/>
<feBlend mode="normal" in2="BackgroundImageFix" result="effect1_dropShadow_102_1373"/>
<feBlend mode="normal" in="SourceGraphic" in2="effect1_dropShadow_102_1373" result="shape"/>
<feColorMatrix in="SourceAlpha" type="matrix" values="0 0 0 0 0 0 0 0 0 0 0 0 0 0 0 0 0 0 127 0" result="hardAlpha"/>
<feOffset/>
<feGaussianBlur stdDeviation="32"/>
<feComposite in2="hardAlpha" operator="arithmetic" k2="-1" k3="1"/>
<feColorMatrix type="matrix" values="0 0 0 0 0.8875 0 0 0 0 0.8875 0 0 0 0 0.8875 0 0 0 1 0"/>
<feBlend mode="normal" in2="shape" result="effect2_innerShadow_102_1373"/>
</filter>
<filter id="filter18_d_102_1373" x="286" y="462" width="138" height="163.591" filterUnits="userSpaceOnUse" color-interpolation-filters="sRGB">
<feFlood flood-opacity="0" result="BackgroundImageFix"/>
<feColorMatrix in="SourceAlpha" type="matrix" values="0 0 0 0 0 0 0 0 0 0 0 0 0 0 0 0 0 0 127 0" result="hardAlpha"/>
<feOffset dy="4"/>
<feGaussianBlur stdDeviation="4.5"/>
<feComposite in2="hardAlpha" operator="out"/>
<feColorMatrix type="matrix" values="0 0 0 0 0 0 0 0 0 0 0 0 0 0 0 0 0 0 1 0"/>
<feBlend mode="normal" in2="BackgroundImageFix" result="effect1_dropShadow_102_1373"/>
<feBlend mode="normal" in="SourceGraphic" in2="effect1_dropShadow_102_1373" result="shape"/>
</filter>
<filter id="filter19_d_102_1373" x="688" y="466" width="138" height="163.591" filterUnits="userSpaceOnUse" color-interpolation-filters="sRGB">
<feFlood flood-opacity="0" result="BackgroundImageFix"/>
<feColorMatrix in="SourceAlpha" type="matrix" values="0 0 0 0 0 0 0 0 0 0 0 0 0 0 0 0 0 0 127 0" result="hardAlpha"/>
<feOffset dy="4"/>
<feGaussianBlur stdDeviation="4.5"/>
<feComposite in2="hardAlpha" operator="out"/>
<feColorMatrix type="matrix" values="0 0 0 0 0 0 0 0 0 0 0 0 0 0 0 0 0 0 1 0"/>
<feBlend mode="normal" in2="BackgroundImageFix" result="effect1_dropShadow_102_1373"/>
<feBlend mode="normal" in="SourceGraphic" in2="effect1_dropShadow_102_1373" result="shape"/>
</filter>
<filter id="filter20_d_102_1373" x="86" y="576" width="138" height="163.591" filterUnits="userSpaceOnUse" color-interpolation-filters="sRGB">
<feFlood flood-opacity="0" result="BackgroundImageFix"/>
<feColorMatrix in="SourceAlpha" type="matrix" values="0 0 0 0 0 0 0 0 0 0 0 0 0 0 0 0 0 0 127 0" result="hardAlpha"/>
<feOffset dy="4"/>
<feGaussianBlur stdDeviation="4.5"/>
<feComposite in2="hardAlpha" operator="out"/>
<feColorMatrix type="matrix" values="0 0 0 0 0 0 0 0 0 0 0 0 0 0 0 0 0 0 1 0"/>
<feBlend mode="normal" in2="BackgroundImageFix" result="effect1_dropShadow_102_1373"/>
<feBlend mode="normal" in="SourceGraphic" in2="effect1_dropShadow_102_1373" result="shape"/>
</filter>
<filter id="filter21_d_102_1373" x="488" y="580" width="138" height="163.591" filterUnits="userSpaceOnUse" color-interpolation-filters="sRGB">
<feFlood flood-opacity="0" result="BackgroundImageFix"/>
<feColorMatrix in="SourceAlpha" type="matrix" values="0 0 0 0 0 0 0 0 0 0 0 0 0 0 0 0 0 0 127 0" result="hardAlpha"/>
<feOffset dy="4"/>
<feGaussianBlur stdDeviation="4.5"/>
<feComposite in2="hardAlpha" operator="out"/>
<feColorMatrix type="matrix" values="0 0 0 0 0 0 0 0 0 0 0 0 0 0 0 0 0 0 1 0"/>
<feBlend mode="normal" in2="BackgroundImageFix" result="effect1_dropShadow_102_1373"/>
<feBlend mode="normal" in="SourceGraphic" in2="effect1_dropShadow_102_1373" result="shape"/>
</filter>
<filter id="filter22_d_102_1373" x="286" y="232" width="138" height="163.591" filterUnits="userSpaceOnUse" color-interpolation-filters="sRGB">
<feFlood flood-opacity="0" result="BackgroundImageFix"/>
<feColorMatrix in="SourceAlpha" type="matrix" values="0 0 0 0 0 0 0 0 0 0 0 0 0 0 0 0 0 0 127 0" result="hardAlpha"/>
<feOffset dy="4"/>
<feGaussianBlur stdDeviation="4.5"/>
<feComposite in2="hardAlpha" operator="out"/>
<feColorMatrix type="matrix" values="0 0 0 0 0 0 0 0 0 0 0 0 0 0 0 0 0 0 1 0"/>
<feBlend mode="normal" in2="BackgroundImageFix" result="effect1_dropShadow_102_1373"/>
<feBlend mode="normal" in="SourceGraphic" in2="effect1_dropShadow_102_1373" result="shape"/>
</filter>
<filter id="filter23_d_102_1373" x="688" y="236" width="138" height="163.591" filterUnits="userSpaceOnUse" color-interpolation-filters="sRGB">
<feFlood flood-opacity="0" result="BackgroundImageFix"/>
<feColorMatrix in="SourceAlpha" type="matrix" values="0 0 0 0 0 0 0 0 0 0 0 0 0 0 0 0 0 0 127 0" result="hardAlpha"/>
<feOffset dy="4"/>
<feGaussianBlur stdDeviation="4.5"/>
<feComposite in2="hardAlpha" operator="out"/>
<feColorMatrix type="matrix" values="0 0 0 0 0 0 0 0 0 0 0 0 0 0 0 0 0 0 1 0"/>
<feBlend mode="normal" in2="BackgroundImageFix" result="effect1_dropShadow_102_1373"/>
<feBlend mode="normal" in="SourceGraphic" in2="effect1_dropShadow_102_1373" result="shape"/>
</filter>
<filter id="filter24_d_102_1373" x="83" y="0" width="339" height="509.591" filterUnits="userSpaceOnUse" color-interpolation-filters="sRGB">
<feFlood flood-opacity="0" result="BackgroundImageFix"/>
<feColorMatrix in="SourceAlpha" type="matrix" values="0 0 0 0 0 0 0 0 0 0 0 0 0 0 0 0 0 0 127 0" result="hardAlpha"/>
<feOffset dy="4"/>
<feGaussianBlur stdDeviation="4.5"/>
<feComposite in2="hardAlpha" operator="out"/>
<feColorMatrix type="matrix" values="0 0 0 0 0 0 0 0 0 0 0 0 0 0 0 0 0 0 1 0"/>
<feBlend mode="normal" in2="BackgroundImageFix" result="effect1_dropShadow_102_1373"/>
<feBlend mode="normal" in="SourceGraphic" in2="effect1_dropShadow_102_1373" result="shape"/>
</filter>
<filter id="filter25_d_102_1373" x="488" y="350" width="138" height="163.591" filterUnits="userSpaceOnUse" color-interpolation-filters="sRGB">
<feFlood flood-opacity="0" result="BackgroundImageFix"/>
<feColorMatrix in="SourceAlpha" type="matrix" values="0 0 0 0 0 0 0 0 0 0 0 0 0 0 0 0 0 0 127 0" result="hardAlpha"/>
<feOffset dy="4"/>
<feGaussianBlur stdDeviation="4.5"/>
<feComposite in2="hardAlpha" operator="out"/>
<feColorMatrix type="matrix" values="0 0 0 0 0 0 0 0 0 0 0 0 0 0 0 0 0 0 1 0"/>
<feBlend mode="normal" in2="BackgroundImageFix" result="effect1_dropShadow_102_1373"/>
<feBlend mode="normal" in="SourceGraphic" in2="effect1_dropShadow_102_1373" result="shape"/>
</filter>
<filter id="filter26_d_102_1373" x="154" y="231" width="138" height="163.591" filterUnits="userSpaceOnUse" color-interpolation-filters="sRGB">
<feFlood flood-opacity="0" result="BackgroundImageFix"/>
<feColorMatrix in="SourceAlpha" type="matrix" values="0 0 0 0 0 0 0 0 0 0 0 0 0 0 0 0 0 0 127 0" result="hardAlpha"/>
<feOffset dy="4"/>
<feGaussianBlur stdDeviation="4.5"/>
<feComposite in2="hardAlpha" operator="out"/>
<feColorMatrix type="matrix" values="0 0 0 0 0 0 0 0 0 0 0 0 0 0 0 0 0 0 1 0"/>
<feBlend mode="normal" in2="BackgroundImageFix" result="effect1_dropShadow_102_1373"/>
<feBlend mode="normal" in="SourceGraphic" in2="effect1_dropShadow_102_1373" result="shape"/>
</filter>
<filter id="filter27_d_102_1373" x="353" y="118" width="138" height="163.591" filterUnits="userSpaceOnUse" color-interpolation-filters="sRGB">
<feFlood flood-opacity="0" result="BackgroundImageFix"/>
<feColorMatrix in="SourceAlpha" type="matrix" values="0 0 0 0 0 0 0 0 0 0 0 0 0 0 0 0 0 0 127 0" result="hardAlpha"/>
<feOffset dy="4"/>
<feGaussianBlur stdDeviation="4.5"/>
<feComposite in2="hardAlpha" operator="out"/>
<feColorMatrix type="matrix" values="0 0 0 0 0 0 0 0 0 0 0 0 0 0 0 0 0 0 1 0"/>
<feBlend mode="normal" in2="BackgroundImageFix" result="effect1_dropShadow_102_1373"/>
<feBlend mode="normal" in="SourceGraphic" in2="effect1_dropShadow_102_1373" result="shape"/>
</filter>
<filter id="filter28_d_102_1373" x="556" y="235" width="138" height="163.591" filterUnits="userSpaceOnUse" color-interpolation-filters="sRGB">
<feFlood flood-opacity="0" result="BackgroundImageFix"/>
<feColorMatrix in="SourceAlpha" type="matrix" values="0 0 0 0 0 0 0 0 0 0 0 0 0 0 0 0 0 0 127 0" result="hardAlpha"/>
<feOffset dy="4"/>
<feGaussianBlur stdDeviation="4.5"/>
<feComposite in2="hardAlpha" operator="out"/>
<feColorMatrix type="matrix" values="0 0 0 0 0 0 0 0 0 0 0 0 0 0 0 0 0 0 1 0"/>
<feBlend mode="normal" in2="BackgroundImageFix" result="effect1_dropShadow_102_1373"/>
<feBlend mode="normal" in="SourceGraphic" in2="effect1_dropShadow_102_1373" result="shape"/>
</filter>
</defs>
</svg>
