<svg width="876" height="397" viewBox="0 0 876 397" fill="none" xmlns="http://www.w3.org/2000/svg">
<line x1="192.869" y1="312.449" x2="177.816" y2="291.698" stroke="black"/>
<line x1="193.062" y1="312.706" x2="177.62" y2="333.068" stroke="black"/>
<line x1="153.221" y1="332.904" x2="178.221" y2="332.904" stroke="black"/>
<line x1="153.221" y1="291.904" x2="178.221" y2="291.904" stroke="black"/>
<path d="M138.221 312.404L153.277 333.153" stroke="black"/>
<line x1="137.823" y1="312.467" x2="153.261" y2="292.102" stroke="black"/>
<line x1="283.662" y1="312.449" x2="268.609" y2="291.698" stroke="black"/>
<line x1="283.855" y1="312.706" x2="268.412" y2="333.068" stroke="black"/>
<line x1="244.014" y1="332.904" x2="269.014" y2="332.904" stroke="black"/>
<line x1="244.014" y1="291.904" x2="269.014" y2="291.904" stroke="black"/>
<path d="M229.014 312.404L244.07 333.153" stroke="black"/>
<line x1="228.616" y1="312.467" x2="244.054" y2="292.102" stroke="black"/>
<line x1="238.266" y1="288.081" x2="223.213" y2="267.329" stroke="black"/>
<line x1="238.458" y1="288.338" x2="223.016" y2="308.7" stroke="black"/>
<line x1="198.618" y1="308.536" x2="223.618" y2="308.536" stroke="black"/>
<line x1="198.618" y1="267.536" x2="223.618" y2="267.536" stroke="black"/>
<path d="M183.618 288.036L198.674 308.785" stroke="black"/>
<line x1="183.219" y1="288.098" x2="198.658" y2="267.734" stroke="black"/>
<line x1="238.266" y1="335.802" x2="223.213" y2="315.051" stroke="black"/>
<line x1="238.458" y1="336.059" x2="223.016" y2="356.421" stroke="black"/>
<line x1="198.618" y1="356.257" x2="223.618" y2="356.257" stroke="black"/>
<line x1="198.618" y1="315.257" x2="223.618" y2="315.257" stroke="black"/>
<path d="M183.618 335.757L198.674 356.506" stroke="black"/>
<line x1="183.219" y1="335.82" x2="198.658" y2="315.455" stroke="black"/>
<line x1="419.852" y1="331.741" x2="404.799" y2="310.989" stroke="black"/>
<line x1="420.044" y1="331.998" x2="404.602" y2="352.36" stroke="black"/>
<line x1="380.204" y1="352.196" x2="405.204" y2="352.196" stroke="black"/>
<line x1="380.204" y1="311.196" x2="405.204" y2="311.196" stroke="black"/>
<path d="M365.204 331.696L380.26 352.445" stroke="black"/>
<line x1="364.805" y1="331.758" x2="380.244" y2="311.394" stroke="black"/>
<line x1="510.644" y1="331.741" x2="495.592" y2="310.989" stroke="black"/>
<line x1="510.837" y1="331.998" x2="495.395" y2="352.36" stroke="black"/>
<line x1="470.996" y1="352.196" x2="495.996" y2="352.196" stroke="black"/>
<line x1="470.996" y1="311.196" x2="495.996" y2="311.196" stroke="black"/>
<path d="M455.996 331.696L471.053 352.445" stroke="black"/>
<line x1="455.598" y1="331.758" x2="471.037" y2="311.394" stroke="black"/>
<line x1="465.248" y1="307.373" x2="450.195" y2="286.621" stroke="black"/>
<line x1="465.44" y1="307.629" x2="449.998" y2="327.991" stroke="black"/>
<line x1="425.6" y1="327.827" x2="450.6" y2="327.827" stroke="black"/>
<line x1="425.6" y1="286.827" x2="450.6" y2="286.827" stroke="black"/>
<path d="M410.6 307.327L425.656 328.076" stroke="black"/>
<line x1="410.202" y1="307.39" x2="425.64" y2="287.025" stroke="black"/>
<line x1="465.248" y1="355.094" x2="450.195" y2="334.342" stroke="black"/>
<line x1="465.44" y1="355.351" x2="449.998" y2="375.713" stroke="black"/>
<line x1="425.6" y1="375.549" x2="450.6" y2="375.549" stroke="black"/>
<line x1="425.6" y1="334.549" x2="450.6" y2="334.549" stroke="black"/>
<path d="M410.6 355.049L425.656 375.798" stroke="black"/>
<line x1="410.202" y1="355.111" x2="425.64" y2="334.747" stroke="black"/>
<line x1="329.059" y1="286.05" x2="314.006" y2="265.299" stroke="black"/>
<line x1="329.251" y1="286.307" x2="313.809" y2="306.669" stroke="black"/>
<line x1="289.411" y1="306.505" x2="314.411" y2="306.505" stroke="black"/>
<line x1="289.411" y1="265.505" x2="314.411" y2="265.505" stroke="black"/>
<path d="M274.411 286.005L289.467 306.754" stroke="black"/>
<line x1="274.012" y1="286.068" x2="289.451" y2="265.703" stroke="black"/>
<line x1="419.852" y1="286.05" x2="404.799" y2="265.299" stroke="black"/>
<line x1="420.044" y1="286.307" x2="404.602" y2="306.669" stroke="black"/>
<line x1="380.204" y1="306.505" x2="405.204" y2="306.505" stroke="black"/>
<line x1="380.204" y1="265.505" x2="405.204" y2="265.505" stroke="black"/>
<path d="M365.204 286.005L380.26 306.754" stroke="black"/>
<line x1="364.805" y1="286.068" x2="380.244" y2="265.703" stroke="black"/>
<line x1="374.455" y1="261.682" x2="359.402" y2="240.93" stroke="black"/>
<line x1="374.647" y1="261.939" x2="359.205" y2="282.301" stroke="black"/>
<line x1="334.807" y1="282.137" x2="359.807" y2="282.137" stroke="black"/>
<line x1="334.807" y1="241.137" x2="359.807" y2="241.137" stroke="black"/>
<path d="M319.807 261.637L334.863 282.386" stroke="black"/>
<line x1="319.409" y1="261.699" x2="334.847" y2="241.335" stroke="black"/>
<line x1="374.455" y1="309.403" x2="359.402" y2="288.652" stroke="black"/>
<line x1="374.647" y1="309.66" x2="359.205" y2="330.022" stroke="black"/>
<line x1="334.807" y1="329.858" x2="359.807" y2="329.858" stroke="black"/>
<line x1="334.807" y1="288.858" x2="359.807" y2="288.858" stroke="black"/>
<path d="M319.807 309.358L334.863 330.107" stroke="black"/>
<line x1="319.409" y1="309.421" x2="334.847" y2="289.056" stroke="black"/>
<line x1="238.266" y1="237.314" x2="223.213" y2="216.562" stroke="black"/>
<line x1="238.458" y1="237.571" x2="223.016" y2="257.933" stroke="black"/>
<line x1="198.618" y1="257.769" x2="223.618" y2="257.769" stroke="black"/>
<line x1="198.618" y1="216.769" x2="223.618" y2="216.769" stroke="black"/>
<path d="M183.618 237.269L198.674 258.018" stroke="black"/>
<line x1="183.219" y1="237.331" x2="198.658" y2="216.966" stroke="black"/>
<line x1="329.059" y1="237.314" x2="314.006" y2="216.562" stroke="black"/>
<line x1="329.251" y1="237.571" x2="313.809" y2="257.933" stroke="black"/>
<line x1="289.411" y1="257.769" x2="314.411" y2="257.769" stroke="black"/>
<line x1="289.411" y1="216.769" x2="314.411" y2="216.769" stroke="black"/>
<path d="M274.411 237.269L289.467 258.018" stroke="black"/>
<line x1="274.012" y1="237.331" x2="289.451" y2="216.966" stroke="black"/>
<line x1="283.662" y1="212.945" x2="268.609" y2="192.194" stroke="black"/>
<line x1="283.855" y1="213.202" x2="268.412" y2="233.564" stroke="black"/>
<line x1="244.014" y1="233.4" x2="269.014" y2="233.4" stroke="black"/>
<line x1="244.014" y1="192.4" x2="269.014" y2="192.4" stroke="black"/>
<path d="M229.014 212.9L244.07 233.649" stroke="black"/>
<line x1="228.616" y1="212.963" x2="244.054" y2="192.598" stroke="black"/>
<line x1="283.662" y1="260.667" x2="268.609" y2="239.915" stroke="black"/>
<line x1="283.855" y1="260.924" x2="268.412" y2="281.285" stroke="black"/>
<line x1="244.014" y1="281.121" x2="269.014" y2="281.121" stroke="black"/>
<line x1="244.014" y1="240.121" x2="269.014" y2="240.121" stroke="black"/>
<path d="M229.014 260.621L244.07 281.37" stroke="black"/>
<line x1="228.616" y1="260.684" x2="244.054" y2="240.319" stroke="black"/>
<line x1="147.473" y1="191.623" x2="132.42" y2="170.872" stroke="black"/>
<line x1="147.665" y1="191.88" x2="132.223" y2="212.242" stroke="black"/>
<line x1="107.825" y1="212.078" x2="132.825" y2="212.078" stroke="black"/>
<line x1="107.825" y1="171.078" x2="132.825" y2="171.078" stroke="black"/>
<path d="M92.8247 191.578L107.881 212.327" stroke="black"/>
<line x1="92.4263" y1="191.64" x2="107.865" y2="171.276" stroke="black"/>
<line x1="238.266" y1="191.623" x2="223.213" y2="170.872" stroke="black"/>
<line x1="238.458" y1="191.88" x2="223.016" y2="212.242" stroke="black"/>
<line x1="198.618" y1="212.078" x2="223.618" y2="212.078" stroke="black"/>
<line x1="198.618" y1="171.078" x2="223.618" y2="171.078" stroke="black"/>
<path d="M183.618 191.578L198.674 212.327" stroke="black"/>
<line x1="183.219" y1="191.64" x2="198.658" y2="171.276" stroke="black"/>
<line x1="192.869" y1="167.255" x2="177.816" y2="146.503" stroke="black"/>
<line x1="193.062" y1="167.512" x2="177.62" y2="187.874" stroke="black"/>
<line x1="153.221" y1="187.71" x2="178.221" y2="187.71" stroke="black"/>
<line x1="153.221" y1="146.71" x2="178.221" y2="146.71" stroke="black"/>
<path d="M138.221 167.21L153.277 187.959" stroke="black"/>
<line x1="137.823" y1="167.272" x2="153.261" y2="146.908" stroke="black"/>
<line x1="192.869" y1="214.976" x2="177.816" y2="194.225" stroke="black"/>
<line x1="193.062" y1="215.233" x2="177.62" y2="235.595" stroke="black"/>
<line x1="153.221" y1="235.431" x2="178.221" y2="235.431" stroke="black"/>
<line x1="153.221" y1="194.431" x2="178.221" y2="194.431" stroke="black"/>
<path d="M138.221 214.931L153.277 235.68" stroke="black"/>
<line x1="137.823" y1="214.993" x2="153.261" y2="194.629" stroke="black"/>
<line x1="510.644" y1="283.004" x2="495.592" y2="262.253" stroke="black"/>
<line x1="510.837" y1="283.261" x2="495.395" y2="303.623" stroke="black"/>
<line x1="470.996" y1="303.459" x2="495.996" y2="303.459" stroke="black"/>
<line x1="470.996" y1="262.459" x2="495.996" y2="262.459" stroke="black"/>
<path d="M455.996 282.959L471.053 303.708" stroke="black"/>
<line x1="455.598" y1="283.022" x2="471.037" y2="262.657" stroke="black"/>
<line x1="601.437" y1="283.004" x2="586.385" y2="262.253" stroke="black"/>
<line x1="601.63" y1="283.261" x2="586.188" y2="303.623" stroke="black"/>
<line x1="561.789" y1="303.459" x2="586.789" y2="303.459" stroke="black"/>
<line x1="561.789" y1="262.459" x2="586.789" y2="262.459" stroke="black"/>
<path d="M546.789 282.959L561.846 303.708" stroke="black"/>
<line x1="546.391" y1="283.022" x2="561.829" y2="262.657" stroke="black"/>
<line x1="556.041" y1="258.636" x2="540.988" y2="237.884" stroke="black"/>
<line x1="556.233" y1="258.893" x2="540.791" y2="279.255" stroke="black"/>
<line x1="516.393" y1="279.091" x2="541.393" y2="279.091" stroke="black"/>
<line x1="516.393" y1="238.091" x2="541.393" y2="238.091" stroke="black"/>
<path d="M501.393 258.591L516.449 279.34" stroke="black"/>
<line x1="500.995" y1="258.653" x2="516.433" y2="238.289" stroke="black"/>
<line x1="556.041" y1="306.357" x2="540.988" y2="285.606" stroke="black"/>
<line x1="556.233" y1="306.614" x2="540.791" y2="326.976" stroke="black"/>
<line x1="516.393" y1="326.812" x2="541.393" y2="326.812" stroke="black"/>
<line x1="516.393" y1="285.812" x2="541.393" y2="285.812" stroke="black"/>
<path d="M501.393 306.312L516.449 327.061" stroke="black"/>
<line x1="500.995" y1="306.375" x2="516.433" y2="286.01" stroke="black"/>
<line x1="419.852" y1="237.314" x2="404.799" y2="216.562" stroke="black"/>
<line x1="420.044" y1="237.571" x2="404.602" y2="257.933" stroke="black"/>
<line x1="380.204" y1="257.769" x2="405.204" y2="257.769" stroke="black"/>
<line x1="380.204" y1="216.769" x2="405.204" y2="216.769" stroke="black"/>
<path d="M365.204 237.269L380.26 258.018" stroke="black"/>
<line x1="364.805" y1="237.331" x2="380.244" y2="216.966" stroke="black"/>
<line x1="510.644" y1="237.314" x2="495.592" y2="216.562" stroke="black"/>
<line x1="510.837" y1="237.571" x2="495.395" y2="257.933" stroke="black"/>
<line x1="470.996" y1="257.769" x2="495.996" y2="257.769" stroke="black"/>
<line x1="470.996" y1="216.769" x2="495.996" y2="216.769" stroke="black"/>
<path d="M455.996 237.269L471.053 258.018" stroke="black"/>
<line x1="455.598" y1="237.331" x2="471.037" y2="216.966" stroke="black"/>
<line x1="465.248" y1="212.945" x2="450.195" y2="192.194" stroke="black"/>
<line x1="465.44" y1="213.202" x2="449.998" y2="233.564" stroke="black"/>
<line x1="425.6" y1="233.4" x2="450.6" y2="233.4" stroke="black"/>
<line x1="425.6" y1="192.4" x2="450.6" y2="192.4" stroke="black"/>
<path d="M410.6 212.9L425.656 233.649" stroke="black"/>
<line x1="410.202" y1="212.963" x2="425.64" y2="192.598" stroke="black"/>
<line x1="465.248" y1="260.667" x2="450.195" y2="239.915" stroke="black"/>
<line x1="465.44" y1="260.924" x2="449.998" y2="281.285" stroke="black"/>
<line x1="425.6" y1="281.121" x2="450.6" y2="281.121" stroke="black"/>
<line x1="425.6" y1="240.121" x2="450.6" y2="240.121" stroke="black"/>
<path d="M410.6 260.621L425.656 281.37" stroke="black"/>
<line x1="410.202" y1="260.684" x2="425.64" y2="240.319" stroke="black"/>
<line x1="329.059" y1="188.577" x2="314.006" y2="167.826" stroke="black"/>
<line x1="329.251" y1="188.834" x2="313.809" y2="209.196" stroke="black"/>
<line x1="289.411" y1="209.032" x2="314.411" y2="209.032" stroke="black"/>
<line x1="289.411" y1="168.032" x2="314.411" y2="168.032" stroke="black"/>
<path d="M274.411 188.532L289.467 209.281" stroke="black"/>
<line x1="274.012" y1="188.594" x2="289.451" y2="168.23" stroke="black"/>
<line x1="419.852" y1="188.577" x2="404.799" y2="167.826" stroke="black"/>
<line x1="420.044" y1="188.834" x2="404.602" y2="209.196" stroke="black"/>
<line x1="380.204" y1="209.032" x2="405.204" y2="209.032" stroke="black"/>
<line x1="380.204" y1="168.032" x2="405.204" y2="168.032" stroke="black"/>
<path d="M365.204 188.532L380.26 209.281" stroke="black"/>
<line x1="364.805" y1="188.594" x2="380.244" y2="168.23" stroke="black"/>
<line x1="374.455" y1="164.209" x2="359.402" y2="143.457" stroke="black"/>
<line x1="374.647" y1="164.466" x2="359.205" y2="184.828" stroke="black"/>
<line x1="334.807" y1="184.664" x2="359.807" y2="184.664" stroke="black"/>
<line x1="334.807" y1="143.664" x2="359.807" y2="143.664" stroke="black"/>
<path d="M319.807 164.164L334.863 184.913" stroke="black"/>
<line x1="319.409" y1="164.226" x2="334.847" y2="143.862" stroke="black"/>
<line x1="374.455" y1="211.93" x2="359.402" y2="191.178" stroke="black"/>
<line x1="374.647" y1="212.187" x2="359.205" y2="232.549" stroke="black"/>
<line x1="334.807" y1="232.385" x2="359.807" y2="232.385" stroke="black"/>
<line x1="334.807" y1="191.385" x2="359.807" y2="191.385" stroke="black"/>
<path d="M319.807 211.885L334.863 232.634" stroke="black"/>
<line x1="319.409" y1="211.947" x2="334.847" y2="191.583" stroke="black"/>
<line x1="238.266" y1="142.887" x2="223.213" y2="122.135" stroke="black"/>
<line x1="238.458" y1="143.144" x2="223.016" y2="163.505" stroke="black"/>
<line x1="198.618" y1="163.341" x2="223.618" y2="163.341" stroke="black"/>
<line x1="198.618" y1="122.341" x2="223.618" y2="122.341" stroke="black"/>
<path d="M183.618 142.841L198.674 163.59" stroke="black"/>
<line x1="183.219" y1="142.904" x2="198.658" y2="122.539" stroke="black"/>
<line x1="329.059" y1="142.887" x2="314.006" y2="122.135" stroke="black"/>
<line x1="329.251" y1="143.144" x2="313.809" y2="163.505" stroke="black"/>
<line x1="289.411" y1="163.341" x2="314.411" y2="163.341" stroke="black"/>
<line x1="289.411" y1="122.341" x2="314.411" y2="122.341" stroke="black"/>
<path d="M274.411 142.841L289.467 163.59" stroke="black"/>
<line x1="274.012" y1="142.904" x2="289.451" y2="122.539" stroke="black"/>
<line x1="283.662" y1="118.518" x2="268.609" y2="97.7667" stroke="black"/>
<line x1="283.855" y1="118.775" x2="268.412" y2="139.137" stroke="black"/>
<line x1="244.014" y1="138.973" x2="269.014" y2="138.973" stroke="black"/>
<line x1="244.014" y1="97.9731" x2="269.014" y2="97.9731" stroke="black"/>
<path d="M229.014 118.473L244.07 139.222" stroke="black"/>
<line x1="228.616" y1="118.536" x2="244.054" y2="98.1711" stroke="black"/>
<line x1="283.662" y1="166.24" x2="268.609" y2="145.488" stroke="black"/>
<line x1="283.855" y1="166.497" x2="268.412" y2="186.858" stroke="black"/>
<line x1="244.014" y1="186.694" x2="269.014" y2="186.694" stroke="black"/>
<line x1="244.014" y1="145.694" x2="269.014" y2="145.694" stroke="black"/>
<path d="M229.014 166.194L244.07 186.943" stroke="black"/>
<line x1="228.616" y1="166.257" x2="244.054" y2="145.892" stroke="black"/>
<line x1="601.437" y1="139.841" x2="586.385" y2="119.089" stroke="black"/>
<line x1="601.63" y1="140.098" x2="586.188" y2="160.459" stroke="black"/>
<line x1="561.789" y1="160.295" x2="586.789" y2="160.295" stroke="black"/>
<line x1="561.789" y1="119.295" x2="586.789" y2="119.295" stroke="black"/>
<path d="M546.789 139.795L561.846 160.544" stroke="black"/>
<line x1="546.391" y1="139.858" x2="561.829" y2="119.493" stroke="black"/>
<line x1="692.23" y1="139.841" x2="677.178" y2="119.089" stroke="black"/>
<line x1="692.423" y1="140.098" x2="676.981" y2="160.459" stroke="black"/>
<line x1="652.582" y1="160.295" x2="677.582" y2="160.295" stroke="black"/>
<line x1="652.582" y1="119.295" x2="677.582" y2="119.295" stroke="black"/>
<path d="M637.582 139.795L652.639 160.544" stroke="black"/>
<line x1="637.184" y1="139.858" x2="652.622" y2="119.493" stroke="black"/>
<line x1="646.834" y1="115.472" x2="631.781" y2="94.7207" stroke="black"/>
<line x1="647.026" y1="115.729" x2="631.584" y2="136.091" stroke="black"/>
<line x1="607.186" y1="135.927" x2="632.186" y2="135.927" stroke="black"/>
<line x1="607.186" y1="94.9271" x2="632.186" y2="94.9271" stroke="black"/>
<path d="M592.186 115.427L607.242 136.176" stroke="black"/>
<line x1="591.787" y1="115.49" x2="607.226" y2="95.125" stroke="black"/>
<line x1="646.834" y1="163.194" x2="631.781" y2="142.442" stroke="black"/>
<line x1="647.026" y1="163.45" x2="631.584" y2="183.812" stroke="black"/>
<line x1="607.186" y1="183.648" x2="632.186" y2="183.648" stroke="black"/>
<line x1="607.186" y1="142.648" x2="632.186" y2="142.648" stroke="black"/>
<path d="M592.186 163.148L607.242 183.897" stroke="black"/>
<line x1="591.787" y1="163.211" x2="607.226" y2="142.846" stroke="black"/>
<line x1="510.644" y1="94.15" x2="495.592" y2="73.3984" stroke="black"/>
<line x1="510.837" y1="94.407" x2="495.395" y2="114.769" stroke="black"/>
<line x1="470.996" y1="114.605" x2="495.996" y2="114.605" stroke="black"/>
<line x1="470.996" y1="73.6049" x2="495.996" y2="73.6049" stroke="black"/>
<path d="M455.996 94.1049L471.053 114.854" stroke="black"/>
<line x1="455.598" y1="94.1673" x2="471.037" y2="73.8028" stroke="black"/>
<line x1="601.437" y1="94.15" x2="586.385" y2="73.3984" stroke="black"/>
<line x1="601.63" y1="94.407" x2="586.188" y2="114.769" stroke="black"/>
<line x1="561.789" y1="114.605" x2="586.789" y2="114.605" stroke="black"/>
<line x1="561.789" y1="73.6049" x2="586.789" y2="73.6049" stroke="black"/>
<path d="M546.789 94.1049L561.846 114.854" stroke="black"/>
<line x1="546.391" y1="94.1673" x2="561.829" y2="73.8028" stroke="black"/>
<line x1="556.041" y1="69.7818" x2="540.988" y2="49.0302" stroke="black"/>
<line x1="556.233" y1="70.0387" x2="540.791" y2="90.4006" stroke="black"/>
<line x1="516.393" y1="90.2366" x2="541.393" y2="90.2366" stroke="black"/>
<line x1="516.393" y1="49.2366" x2="541.393" y2="49.2366" stroke="black"/>
<path d="M501.393 69.7366L516.449 90.4856" stroke="black"/>
<line x1="500.995" y1="69.7991" x2="516.433" y2="49.4345" stroke="black"/>
<line x1="556.041" y1="117.503" x2="540.988" y2="96.7514" stroke="black"/>
<line x1="556.233" y1="117.76" x2="540.791" y2="138.122" stroke="black"/>
<line x1="516.393" y1="137.958" x2="541.393" y2="137.958" stroke="black"/>
<line x1="516.393" y1="96.9578" x2="541.393" y2="96.9578" stroke="black"/>
<path d="M501.393 117.458L516.449 138.207" stroke="black"/>
<line x1="500.995" y1="117.52" x2="516.433" y2="97.1557" stroke="black"/>
<line x1="146.441" y1="95.1654" x2="131.388" y2="74.4138" stroke="black"/>
<line x1="146.633" y1="95.4223" x2="131.191" y2="115.784" stroke="black"/>
<line x1="106.793" y1="115.62" x2="131.793" y2="115.62" stroke="black"/>
<line x1="106.793" y1="74.6202" x2="131.793" y2="74.6202" stroke="black"/>
<path d="M91.793 95.1202L106.849 115.869" stroke="black"/>
<line x1="91.3945" y1="95.1827" x2="106.833" y2="74.8181" stroke="black"/>
<line x1="237.234" y1="95.1654" x2="222.181" y2="74.4138" stroke="black"/>
<line x1="237.426" y1="95.4223" x2="221.984" y2="115.784" stroke="black"/>
<line x1="197.586" y1="115.62" x2="222.586" y2="115.62" stroke="black"/>
<line x1="197.586" y1="74.6202" x2="222.586" y2="74.6202" stroke="black"/>
<path d="M182.586 95.1202L197.642 115.869" stroke="black"/>
<line x1="182.187" y1="95.1827" x2="197.626" y2="74.8181" stroke="black"/>
<line x1="191.837" y1="70.7971" x2="176.785" y2="50.0455" stroke="black"/>
<line x1="192.03" y1="71.0541" x2="176.588" y2="91.4159" stroke="black"/>
<line x1="152.189" y1="91.2519" x2="177.189" y2="91.2519" stroke="black"/>
<line x1="152.189" y1="50.2519" x2="177.189" y2="50.2519" stroke="black"/>
<path d="M137.189 70.7519L152.246 91.5009" stroke="black"/>
<line x1="136.791" y1="70.8144" x2="152.229" y2="50.4499" stroke="black"/>
<line x1="191.837" y1="118.518" x2="176.785" y2="97.7667" stroke="black"/>
<line x1="192.03" y1="118.775" x2="176.588" y2="139.137" stroke="black"/>
<line x1="152.189" y1="138.973" x2="177.189" y2="138.973" stroke="black"/>
<line x1="152.189" y1="97.9731" x2="177.189" y2="97.9731" stroke="black"/>
<path d="M137.189 118.473L152.246 139.222" stroke="black"/>
<line x1="136.791" y1="118.536" x2="152.229" y2="98.1711" stroke="black"/>
<line x1="55.648" y1="49.4749" x2="40.5952" y2="28.7233" stroke="black"/>
<line x1="55.8404" y1="49.7318" x2="40.3984" y2="70.0937" stroke="black"/>
<line x1="16" y1="69.9297" x2="41" y2="69.9297" stroke="black"/>
<line x1="16" y1="28.9297" x2="41" y2="28.9297" stroke="black"/>
<path d="M1 49.4297L16.0563 70.1787" stroke="black"/>
<line x1="0.601556" y1="49.4922" x2="16.0401" y2="29.1276" stroke="black"/>
<line x1="146.441" y1="49.4749" x2="131.388" y2="28.7233" stroke="black"/>
<line x1="146.633" y1="49.7318" x2="131.191" y2="70.0937" stroke="black"/>
<line x1="106.793" y1="69.9297" x2="131.793" y2="69.9297" stroke="black"/>
<line x1="106.793" y1="28.9297" x2="131.793" y2="28.9297" stroke="black"/>
<path d="M91.793 49.4297L106.849 70.1787" stroke="black"/>
<line x1="91.3945" y1="49.4922" x2="106.833" y2="29.1276" stroke="black"/>
<line x1="101.044" y1="25.1066" x2="85.9917" y2="4.35497" stroke="black"/>
<line x1="101.237" y1="25.3635" x2="85.7949" y2="45.7254" stroke="black"/>
<line x1="61.3965" y1="45.5614" x2="86.3965" y2="45.5614" stroke="black"/>
<line x1="61.3965" y1="4.56139" x2="86.3965" y2="4.56139" stroke="black"/>
<path d="M46.3965 25.0614L61.4528 45.8104" stroke="black"/>
<line x1="45.998" y1="25.1239" x2="61.4366" y2="4.75932" stroke="black"/>
<line x1="101.044" y1="72.8278" x2="85.9917" y2="52.0762" stroke="black"/>
<line x1="101.237" y1="73.0847" x2="85.7949" y2="93.4466" stroke="black"/>
<line x1="61.3965" y1="93.2826" x2="86.3965" y2="93.2826" stroke="black"/>
<line x1="61.3965" y1="52.2826" x2="86.3965" y2="52.2826" stroke="black"/>
<path d="M46.3965 72.7826L61.4528 93.5316" stroke="black"/>
<line x1="45.998" y1="72.8451" x2="61.4366" y2="52.4805" stroke="black"/>
<line x1="601.437" y1="235.283" x2="586.385" y2="214.531" stroke="black"/>
<line x1="601.63" y1="235.54" x2="586.188" y2="255.902" stroke="black"/>
<line x1="561.789" y1="255.738" x2="586.789" y2="255.738" stroke="black"/>
<line x1="561.789" y1="214.738" x2="586.789" y2="214.738" stroke="black"/>
<path d="M546.789 235.238L561.846 255.987" stroke="black"/>
<line x1="546.391" y1="235.3" x2="561.829" y2="214.936" stroke="black"/>
<line x1="692.23" y1="235.283" x2="677.178" y2="214.531" stroke="black"/>
<line x1="692.423" y1="235.54" x2="676.981" y2="255.902" stroke="black"/>
<line x1="652.582" y1="255.738" x2="677.582" y2="255.738" stroke="black"/>
<line x1="652.582" y1="214.738" x2="677.582" y2="214.738" stroke="black"/>
<path d="M637.582 235.238L652.639 255.987" stroke="black"/>
<line x1="637.184" y1="235.3" x2="652.622" y2="214.936" stroke="black"/>
<line x1="646.834" y1="210.915" x2="631.781" y2="190.163" stroke="black"/>
<line x1="647.026" y1="211.172" x2="631.584" y2="231.534" stroke="black"/>
<line x1="607.186" y1="231.37" x2="632.186" y2="231.37" stroke="black"/>
<line x1="607.186" y1="190.37" x2="632.186" y2="190.37" stroke="black"/>
<path d="M592.186 210.87L607.242 231.619" stroke="black"/>
<line x1="591.787" y1="210.932" x2="607.226" y2="190.568" stroke="black"/>
<line x1="646.834" y1="258.636" x2="631.781" y2="237.884" stroke="black"/>
<line x1="647.026" y1="258.893" x2="631.584" y2="279.255" stroke="black"/>
<line x1="607.186" y1="279.091" x2="632.186" y2="279.091" stroke="black"/>
<line x1="607.186" y1="238.091" x2="632.186" y2="238.091" stroke="black"/>
<path d="M592.186 258.591L607.242 279.34" stroke="black"/>
<line x1="591.787" y1="258.653" x2="607.226" y2="238.289" stroke="black"/>
<line x1="510.644" y1="189.593" x2="495.592" y2="168.841" stroke="black"/>
<line x1="510.837" y1="189.849" x2="495.395" y2="210.211" stroke="black"/>
<line x1="470.996" y1="210.047" x2="495.996" y2="210.047" stroke="black"/>
<line x1="470.996" y1="169.047" x2="495.996" y2="169.047" stroke="black"/>
<path d="M455.996 189.547L471.053 210.296" stroke="black"/>
<line x1="455.598" y1="189.61" x2="471.037" y2="169.245" stroke="black"/>
<line x1="601.437" y1="189.593" x2="586.385" y2="168.841" stroke="black"/>
<line x1="601.63" y1="189.849" x2="586.188" y2="210.211" stroke="black"/>
<line x1="561.789" y1="210.047" x2="586.789" y2="210.047" stroke="black"/>
<line x1="561.789" y1="169.047" x2="586.789" y2="169.047" stroke="black"/>
<path d="M546.789 189.547L561.846 210.296" stroke="black"/>
<line x1="546.391" y1="189.61" x2="561.829" y2="169.245" stroke="black"/>
<line x1="556.041" y1="165.224" x2="540.988" y2="144.473" stroke="black"/>
<line x1="556.233" y1="165.481" x2="540.791" y2="185.843" stroke="black"/>
<line x1="516.393" y1="185.679" x2="541.393" y2="185.679" stroke="black"/>
<line x1="516.393" y1="144.679" x2="541.393" y2="144.679" stroke="black"/>
<path d="M501.393 165.179L516.449 185.928" stroke="black"/>
<line x1="500.995" y1="165.242" x2="516.433" y2="144.877" stroke="black"/>
<line x1="556.041" y1="212.945" x2="540.988" y2="192.194" stroke="black"/>
<line x1="556.233" y1="213.202" x2="540.791" y2="233.564" stroke="black"/>
<line x1="516.393" y1="233.4" x2="541.393" y2="233.4" stroke="black"/>
<line x1="516.393" y1="192.4" x2="541.393" y2="192.4" stroke="black"/>
<path d="M501.393 212.9L516.449 233.649" stroke="black"/>
<line x1="500.995" y1="212.963" x2="516.433" y2="192.598" stroke="black"/>
<line x1="692.23" y1="91.104" x2="677.178" y2="70.3524" stroke="black"/>
<line x1="692.423" y1="91.361" x2="676.981" y2="111.723" stroke="black"/>
<line x1="652.582" y1="111.559" x2="677.582" y2="111.559" stroke="black"/>
<line x1="652.582" y1="70.5588" x2="677.582" y2="70.5588" stroke="black"/>
<path d="M637.582 91.0588L652.639 111.808" stroke="black"/>
<line x1="637.184" y1="91.1213" x2="652.622" y2="70.7568" stroke="black"/>
<line x1="783.023" y1="91.104" x2="767.971" y2="70.3524" stroke="black"/>
<line x1="783.216" y1="91.361" x2="767.774" y2="111.723" stroke="black"/>
<line x1="743.375" y1="111.559" x2="768.375" y2="111.559" stroke="black"/>
<line x1="743.375" y1="70.5588" x2="768.375" y2="70.5588" stroke="black"/>
<path d="M728.375 91.0588L743.432 111.808" stroke="black"/>
<line x1="727.977" y1="91.1213" x2="743.415" y2="70.7568" stroke="black"/>
<line x1="737.627" y1="66.7357" x2="722.574" y2="45.9841" stroke="black"/>
<line x1="737.819" y1="66.9927" x2="722.377" y2="87.3545" stroke="black"/>
<line x1="697.979" y1="87.1905" x2="722.979" y2="87.1905" stroke="black"/>
<line x1="697.979" y1="46.1905" x2="722.979" y2="46.1905" stroke="black"/>
<path d="M682.979 66.6905L698.035 87.4395" stroke="black"/>
<line x1="682.58" y1="66.753" x2="698.019" y2="46.3885" stroke="black"/>
<line x1="737.627" y1="114.457" x2="722.574" y2="93.7053" stroke="black"/>
<line x1="737.819" y1="114.714" x2="722.377" y2="135.076" stroke="black"/>
<line x1="697.979" y1="134.912" x2="722.979" y2="134.912" stroke="black"/>
<line x1="697.979" y1="93.9118" x2="722.979" y2="93.9118" stroke="black"/>
<path d="M682.979 114.412L698.035 135.161" stroke="black"/>
<line x1="682.58" y1="114.474" x2="698.019" y2="94.1097" stroke="black"/>
<line x1="601.437" y1="45.4135" x2="586.385" y2="24.6619" stroke="black"/>
<line x1="601.63" y1="45.6704" x2="586.188" y2="66.0323" stroke="black"/>
<line x1="561.789" y1="65.8683" x2="586.789" y2="65.8683" stroke="black"/>
<line x1="561.789" y1="24.8683" x2="586.789" y2="24.8683" stroke="black"/>
<path d="M546.789 45.3683L561.846 66.1173" stroke="black"/>
<line x1="546.391" y1="45.4308" x2="561.829" y2="25.0662" stroke="black"/>
<line x1="692.23" y1="45.4135" x2="677.178" y2="24.6619" stroke="black"/>
<line x1="692.423" y1="45.6704" x2="676.981" y2="66.0323" stroke="black"/>
<line x1="652.582" y1="65.8683" x2="677.582" y2="65.8683" stroke="black"/>
<line x1="652.582" y1="24.8683" x2="677.582" y2="24.8683" stroke="black"/>
<path d="M637.582 45.3683L652.639 66.1173" stroke="black"/>
<line x1="637.184" y1="45.4308" x2="652.622" y2="25.0662" stroke="black"/>
<line x1="646.834" y1="21.0452" x2="631.781" y2="0.293583" stroke="black"/>
<line x1="647.026" y1="21.3021" x2="631.584" y2="41.664" stroke="black"/>
<line x1="607.186" y1="41.5" x2="632.186" y2="41.5" stroke="black"/>
<line x1="607.186" y1="0.500004" x2="632.186" y2="0.500004" stroke="black"/>
<path d="M592.186 21L607.242 41.749" stroke="black"/>
<line x1="591.787" y1="21.0625" x2="607.226" y2="0.697942" stroke="black"/>
<line x1="646.834" y1="68.7664" x2="631.781" y2="48.0148" stroke="black"/>
<line x1="647.026" y1="69.0234" x2="631.584" y2="89.3852" stroke="black"/>
<line x1="607.186" y1="89.2212" x2="632.186" y2="89.2212" stroke="black"/>
<line x1="607.186" y1="48.2212" x2="632.186" y2="48.2212" stroke="black"/>
<path d="M592.186 68.7212L607.242 89.4702" stroke="black"/>
<line x1="591.787" y1="68.7837" x2="607.226" y2="48.4192" stroke="black"/>
<line x1="418.82" y1="139.841" x2="403.767" y2="119.089" stroke="black"/>
<line x1="419.012" y1="140.098" x2="403.57" y2="160.459" stroke="black"/>
<line x1="379.172" y1="160.295" x2="404.172" y2="160.295" stroke="black"/>
<line x1="379.172" y1="119.295" x2="404.172" y2="119.295" stroke="black"/>
<path d="M364.172 139.795L379.228 160.544" stroke="black"/>
<line x1="363.773" y1="139.858" x2="379.212" y2="119.493" stroke="black"/>
<line x1="509.613" y1="139.841" x2="494.56" y2="119.089" stroke="black"/>
<line x1="509.805" y1="140.098" x2="494.363" y2="160.459" stroke="black"/>
<line x1="469.965" y1="160.295" x2="494.965" y2="160.295" stroke="black"/>
<line x1="469.965" y1="119.295" x2="494.965" y2="119.295" stroke="black"/>
<path d="M454.965 139.795L470.021 160.544" stroke="black"/>
<line x1="454.566" y1="139.858" x2="470.005" y2="119.493" stroke="black"/>
<line x1="464.216" y1="115.472" x2="449.163" y2="94.7207" stroke="black"/>
<line x1="464.409" y1="115.729" x2="448.967" y2="136.091" stroke="black"/>
<line x1="424.568" y1="135.927" x2="449.568" y2="135.927" stroke="black"/>
<line x1="424.568" y1="94.9271" x2="449.568" y2="94.9271" stroke="black"/>
<path d="M409.568 115.427L424.625 136.176" stroke="black"/>
<line x1="409.17" y1="115.49" x2="424.608" y2="95.125" stroke="black"/>
<line x1="464.216" y1="163.194" x2="449.163" y2="142.442" stroke="black"/>
<line x1="464.409" y1="163.45" x2="448.967" y2="183.812" stroke="black"/>
<line x1="424.568" y1="183.648" x2="449.568" y2="183.648" stroke="black"/>
<line x1="424.568" y1="142.648" x2="449.568" y2="142.648" stroke="black"/>
<path d="M409.568 163.148L424.625 183.897" stroke="black"/>
<line x1="409.17" y1="163.211" x2="424.608" y2="142.846" stroke="black"/>
<line x1="328.027" y1="94.15" x2="312.974" y2="73.3984" stroke="black"/>
<line x1="328.219" y1="94.407" x2="312.777" y2="114.769" stroke="black"/>
<line x1="288.379" y1="114.605" x2="313.379" y2="114.605" stroke="black"/>
<line x1="288.379" y1="73.6049" x2="313.379" y2="73.6049" stroke="black"/>
<path d="M273.379 94.1049L288.435 114.854" stroke="black"/>
<line x1="272.98" y1="94.1673" x2="288.419" y2="73.8028" stroke="black"/>
<line x1="418.82" y1="94.15" x2="403.767" y2="73.3984" stroke="black"/>
<line x1="419.012" y1="94.407" x2="403.57" y2="114.769" stroke="black"/>
<line x1="379.172" y1="114.605" x2="404.172" y2="114.605" stroke="black"/>
<line x1="379.172" y1="73.6049" x2="404.172" y2="73.6049" stroke="black"/>
<path d="M364.172 94.1049L379.228 114.854" stroke="black"/>
<line x1="363.773" y1="94.1673" x2="379.212" y2="73.8028" stroke="black"/>
<line x1="373.423" y1="69.7818" x2="358.371" y2="49.0302" stroke="black"/>
<line x1="373.616" y1="70.0387" x2="358.174" y2="90.4006" stroke="black"/>
<line x1="333.775" y1="90.2366" x2="358.775" y2="90.2366" stroke="black"/>
<line x1="333.775" y1="49.2366" x2="358.775" y2="49.2366" stroke="black"/>
<path d="M318.775 69.7366L333.832 90.4856" stroke="black"/>
<line x1="318.377" y1="69.7991" x2="333.815" y2="49.4345" stroke="black"/>
<line x1="373.423" y1="117.503" x2="358.371" y2="96.7514" stroke="black"/>
<line x1="373.616" y1="117.76" x2="358.174" y2="138.122" stroke="black"/>
<line x1="333.775" y1="137.958" x2="358.775" y2="137.958" stroke="black"/>
<line x1="333.775" y1="96.9578" x2="358.775" y2="96.9578" stroke="black"/>
<path d="M318.775 117.458L333.832 138.207" stroke="black"/>
<line x1="318.377" y1="117.52" x2="333.815" y2="97.1557" stroke="black"/>
<line x1="330.09" y1="334.787" x2="315.038" y2="314.035" stroke="black"/>
<line x1="330.283" y1="335.044" x2="314.841" y2="355.406" stroke="black"/>
<line x1="290.442" y1="355.242" x2="315.442" y2="355.242" stroke="black"/>
<line x1="290.442" y1="314.242" x2="315.442" y2="314.242" stroke="black"/>
<path d="M275.442 334.742L290.499 355.491" stroke="black"/>
<line x1="275.044" y1="334.804" x2="290.482" y2="314.44" stroke="black"/>
<line x1="738.659" y1="352.048" x2="723.606" y2="331.296" stroke="black"/>
<line x1="738.851" y1="352.305" x2="723.409" y2="372.667" stroke="black"/>
<line x1="699.011" y1="372.503" x2="724.011" y2="372.503" stroke="black"/>
<line x1="699.011" y1="331.503" x2="724.011" y2="331.503" stroke="black"/>
<path d="M684.011 352.003L699.067 372.752" stroke="black"/>
<line x1="683.612" y1="352.065" x2="699.051" y2="331.701" stroke="black"/>
<line x1="829.452" y1="352.048" x2="814.399" y2="331.296" stroke="black"/>
<line x1="829.644" y1="352.305" x2="814.202" y2="372.667" stroke="black"/>
<line x1="789.804" y1="372.503" x2="814.804" y2="372.503" stroke="black"/>
<line x1="789.804" y1="331.503" x2="814.804" y2="331.503" stroke="black"/>
<path d="M774.804 352.003L789.86 372.752" stroke="black"/>
<line x1="774.405" y1="352.065" x2="789.844" y2="331.701" stroke="black"/>
<line x1="784.055" y1="327.679" x2="769.002" y2="306.928" stroke="black"/>
<line x1="784.247" y1="327.936" x2="768.805" y2="348.298" stroke="black"/>
<line x1="744.407" y1="348.134" x2="769.407" y2="348.134" stroke="black"/>
<line x1="744.407" y1="307.134" x2="769.407" y2="307.134" stroke="black"/>
<path d="M729.407 327.634L744.463 348.383" stroke="black"/>
<line x1="729.009" y1="327.697" x2="744.447" y2="307.332" stroke="black"/>
<line x1="784.055" y1="375.401" x2="769.002" y2="354.649" stroke="black"/>
<line x1="784.247" y1="375.658" x2="768.805" y2="396.02" stroke="black"/>
<line x1="744.407" y1="395.855" x2="769.407" y2="395.855" stroke="black"/>
<line x1="744.407" y1="354.855" x2="769.407" y2="354.855" stroke="black"/>
<path d="M729.407 375.355L744.463 396.105" stroke="black"/>
<line x1="729.009" y1="375.418" x2="744.447" y2="355.053" stroke="black"/>
<line x1="647.866" y1="306.357" x2="632.813" y2="285.606" stroke="black"/>
<line x1="648.058" y1="306.614" x2="632.616" y2="326.976" stroke="black"/>
<line x1="608.218" y1="326.812" x2="633.218" y2="326.812" stroke="black"/>
<line x1="608.218" y1="285.812" x2="633.218" y2="285.812" stroke="black"/>
<path d="M593.218 306.312L608.274 327.061" stroke="black"/>
<line x1="592.819" y1="306.375" x2="608.258" y2="286.01" stroke="black"/>
<line x1="738.659" y1="306.357" x2="723.606" y2="285.606" stroke="black"/>
<line x1="738.851" y1="306.614" x2="723.409" y2="326.976" stroke="black"/>
<line x1="699.011" y1="326.812" x2="724.011" y2="326.812" stroke="black"/>
<line x1="699.011" y1="285.812" x2="724.011" y2="285.812" stroke="black"/>
<path d="M684.011 306.312L699.067 327.061" stroke="black"/>
<line x1="683.612" y1="306.375" x2="699.051" y2="286.01" stroke="black"/>
<line x1="693.262" y1="281.989" x2="678.209" y2="261.237" stroke="black"/>
<line x1="693.455" y1="282.246" x2="678.013" y2="302.608" stroke="black"/>
<line x1="653.614" y1="302.444" x2="678.614" y2="302.444" stroke="black"/>
<line x1="653.614" y1="261.444" x2="678.614" y2="261.444" stroke="black"/>
<path d="M638.614 281.944L653.67 302.693" stroke="black"/>
<line x1="638.216" y1="282.006" x2="653.654" y2="261.642" stroke="black"/>
<line x1="693.262" y1="329.71" x2="678.209" y2="308.959" stroke="black"/>
<line x1="693.455" y1="329.967" x2="678.013" y2="350.329" stroke="black"/>
<line x1="653.614" y1="350.165" x2="678.614" y2="350.165" stroke="black"/>
<line x1="653.614" y1="309.165" x2="678.614" y2="309.165" stroke="black"/>
<path d="M638.614 329.665L653.67 350.414" stroke="black"/>
<line x1="638.216" y1="329.727" x2="653.654" y2="309.363" stroke="black"/>
<line x1="101.044" y1="263.713" x2="85.9917" y2="242.961" stroke="black"/>
<line x1="101.237" y1="263.97" x2="85.7949" y2="284.332" stroke="black"/>
<line x1="61.3965" y1="284.168" x2="86.3965" y2="284.168" stroke="black"/>
<line x1="61.3965" y1="243.168" x2="86.3965" y2="243.168" stroke="black"/>
<path d="M46.3965 263.668L61.4528 284.417" stroke="black"/>
<line x1="45.998" y1="263.73" x2="61.4366" y2="243.365" stroke="black"/>
<line x1="191.837" y1="263.713" x2="176.785" y2="242.961" stroke="black"/>
<line x1="192.03" y1="263.97" x2="176.588" y2="284.332" stroke="black"/>
<line x1="152.189" y1="284.168" x2="177.189" y2="284.168" stroke="black"/>
<line x1="152.189" y1="243.168" x2="177.189" y2="243.168" stroke="black"/>
<path d="M137.189 263.668L152.246 284.417" stroke="black"/>
<line x1="136.791" y1="263.73" x2="152.23" y2="243.365" stroke="black"/>
<line x1="146.441" y1="239.344" x2="131.388" y2="218.593" stroke="black"/>
<line x1="146.633" y1="239.601" x2="131.191" y2="259.963" stroke="black"/>
<line x1="106.793" y1="259.799" x2="131.793" y2="259.799" stroke="black"/>
<line x1="106.793" y1="218.799" x2="131.793" y2="218.799" stroke="black"/>
<path d="M91.793 239.299L106.849 260.048" stroke="black"/>
<line x1="91.3945" y1="239.362" x2="106.833" y2="218.997" stroke="black"/>
<line x1="146.441" y1="287.066" x2="131.388" y2="266.314" stroke="black"/>
<line x1="146.633" y1="287.323" x2="131.191" y2="307.684" stroke="black"/>
<line x1="106.793" y1="307.52" x2="131.793" y2="307.52" stroke="black"/>
<line x1="106.793" y1="266.52" x2="131.793" y2="266.52" stroke="black"/>
<path d="M91.793 287.02L106.849 307.769" stroke="black"/>
<line x1="91.3945" y1="287.083" x2="106.833" y2="266.718" stroke="black"/>
<line x1="418.82" y1="45.4135" x2="403.767" y2="24.6619" stroke="black"/>
<line x1="419.012" y1="45.6704" x2="403.57" y2="66.0323" stroke="black"/>
<line x1="379.172" y1="65.8683" x2="404.172" y2="65.8683" stroke="black"/>
<line x1="379.172" y1="24.8683" x2="404.172" y2="24.8683" stroke="black"/>
<path d="M364.172 45.3683L379.228 66.1173" stroke="black"/>
<line x1="363.773" y1="45.4308" x2="379.212" y2="25.0662" stroke="black"/>
<line x1="509.613" y1="45.4135" x2="494.56" y2="24.6619" stroke="black"/>
<line x1="509.805" y1="45.6704" x2="494.363" y2="66.0323" stroke="black"/>
<line x1="469.965" y1="65.8683" x2="494.965" y2="65.8683" stroke="black"/>
<line x1="469.965" y1="24.8683" x2="494.965" y2="24.8683" stroke="black"/>
<path d="M454.965 45.3683L470.021 66.1173" stroke="black"/>
<line x1="454.566" y1="45.4308" x2="470.005" y2="25.0662" stroke="black"/>
<line x1="464.216" y1="21.0452" x2="449.163" y2="0.293583" stroke="black"/>
<line x1="464.409" y1="21.3021" x2="448.967" y2="41.664" stroke="black"/>
<line x1="424.568" y1="41.5" x2="449.568" y2="41.5" stroke="black"/>
<line x1="424.568" y1="0.500004" x2="449.568" y2="0.500004" stroke="black"/>
<path d="M409.568 21L424.625 41.749" stroke="black"/>
<line x1="409.17" y1="21.0625" x2="424.608" y2="0.697942" stroke="black"/>
<line x1="464.216" y1="68.7664" x2="449.163" y2="48.0148" stroke="black"/>
<line x1="464.409" y1="69.0234" x2="448.967" y2="89.3852" stroke="black"/>
<line x1="424.568" y1="89.2212" x2="449.568" y2="89.2212" stroke="black"/>
<line x1="424.568" y1="48.2212" x2="449.568" y2="48.2212" stroke="black"/>
<path d="M409.568 68.7212L424.625 89.4702" stroke="black"/>
<line x1="409.17" y1="68.7837" x2="424.608" y2="48.4192" stroke="black"/>
<line x1="237.234" y1="46.4288" x2="222.181" y2="25.6772" stroke="black"/>
<line x1="237.426" y1="46.6858" x2="221.984" y2="67.0476" stroke="black"/>
<line x1="197.586" y1="66.8836" x2="222.586" y2="66.8836" stroke="black"/>
<line x1="197.586" y1="25.8836" x2="222.586" y2="25.8836" stroke="black"/>
<path d="M182.586 46.3836L197.642 67.1326" stroke="black"/>
<line x1="182.187" y1="46.4461" x2="197.626" y2="26.0816" stroke="black"/>
<line x1="328.027" y1="46.4288" x2="312.974" y2="25.6772" stroke="black"/>
<line x1="328.219" y1="46.6858" x2="312.777" y2="67.0476" stroke="black"/>
<line x1="288.379" y1="66.8836" x2="313.379" y2="66.8836" stroke="black"/>
<line x1="288.379" y1="25.8836" x2="313.379" y2="25.8836" stroke="black"/>
<path d="M273.379 46.3836L288.435 67.1326" stroke="black"/>
<line x1="272.98" y1="46.4461" x2="288.419" y2="26.0816" stroke="black"/>
<line x1="282.63" y1="22.0605" x2="267.578" y2="1.30893" stroke="black"/>
<line x1="282.823" y1="22.3175" x2="267.381" y2="42.6794" stroke="black"/>
<line x1="242.982" y1="42.5154" x2="267.982" y2="42.5154" stroke="black"/>
<line x1="242.982" y1="1.51535" x2="267.982" y2="1.51535" stroke="black"/>
<path d="M227.982 22.0153L243.039 42.7644" stroke="black"/>
<line x1="227.584" y1="22.0778" x2="243.022" y2="1.71329" stroke="black"/>
<line x1="282.63" y1="69.7818" x2="267.578" y2="49.0302" stroke="black"/>
<line x1="282.823" y1="70.0387" x2="267.381" y2="90.4006" stroke="black"/>
<line x1="242.982" y1="90.2366" x2="267.982" y2="90.2366" stroke="black"/>
<line x1="242.982" y1="49.2366" x2="267.982" y2="49.2366" stroke="black"/>
<path d="M227.982 69.7366L243.039 90.4856" stroke="black"/>
<line x1="227.584" y1="69.7991" x2="243.022" y2="49.4345" stroke="black"/>
<line x1="784.055" y1="232.237" x2="769.002" y2="211.485" stroke="black"/>
<line x1="784.247" y1="232.494" x2="768.805" y2="252.856" stroke="black"/>
<line x1="744.407" y1="252.692" x2="769.407" y2="252.692" stroke="black"/>
<line x1="744.407" y1="211.692" x2="769.407" y2="211.692" stroke="black"/>
<path d="M729.407 232.192L744.463 252.941" stroke="black"/>
<line x1="729.009" y1="232.254" x2="744.447" y2="211.89" stroke="black"/>
<line x1="874.848" y1="232.237" x2="859.795" y2="211.485" stroke="black"/>
<line x1="875.04" y1="232.494" x2="859.598" y2="252.856" stroke="black"/>
<line x1="835.2" y1="252.692" x2="860.2" y2="252.692" stroke="black"/>
<line x1="835.2" y1="211.692" x2="860.2" y2="211.692" stroke="black"/>
<path d="M820.2 232.192L835.256 252.941" stroke="black"/>
<line x1="819.802" y1="232.254" x2="835.24" y2="211.89" stroke="black"/>
<line x1="829.452" y1="207.869" x2="814.399" y2="187.117" stroke="black"/>
<line x1="829.644" y1="208.126" x2="814.202" y2="228.488" stroke="black"/>
<line x1="789.804" y1="228.324" x2="814.804" y2="228.324" stroke="black"/>
<line x1="789.804" y1="187.324" x2="814.804" y2="187.324" stroke="black"/>
<path d="M774.804 207.824L789.86 228.573" stroke="black"/>
<line x1="774.405" y1="207.886" x2="789.844" y2="187.521" stroke="black"/>
<line x1="829.452" y1="255.59" x2="814.399" y2="234.838" stroke="black"/>
<line x1="829.644" y1="255.847" x2="814.202" y2="276.209" stroke="black"/>
<line x1="789.804" y1="276.045" x2="814.804" y2="276.045" stroke="black"/>
<line x1="789.804" y1="235.045" x2="814.804" y2="235.045" stroke="black"/>
<path d="M774.804 255.545L789.86 276.294" stroke="black"/>
<line x1="774.405" y1="255.607" x2="789.844" y2="235.243" stroke="black"/>
<line x1="693.262" y1="186.546" x2="678.209" y2="165.795" stroke="black"/>
<line x1="693.455" y1="186.803" x2="678.013" y2="207.165" stroke="black"/>
<line x1="653.614" y1="207.001" x2="678.614" y2="207.001" stroke="black"/>
<line x1="653.614" y1="166.001" x2="678.614" y2="166.001" stroke="black"/>
<path d="M638.614 186.501L653.67 207.25" stroke="black"/>
<line x1="638.216" y1="186.564" x2="653.654" y2="166.199" stroke="black"/>
<line x1="784.055" y1="186.546" x2="769.002" y2="165.795" stroke="black"/>
<line x1="784.247" y1="186.803" x2="768.805" y2="207.165" stroke="black"/>
<line x1="744.407" y1="207.001" x2="769.407" y2="207.001" stroke="black"/>
<line x1="744.407" y1="166.001" x2="769.407" y2="166.001" stroke="black"/>
<path d="M729.407 186.501L744.463 207.25" stroke="black"/>
<line x1="729.009" y1="186.564" x2="744.447" y2="166.199" stroke="black"/>
<line x1="738.659" y1="162.178" x2="723.606" y2="141.427" stroke="black"/>
<line x1="738.851" y1="162.435" x2="723.409" y2="182.797" stroke="black"/>
<line x1="699.011" y1="182.633" x2="724.011" y2="182.633" stroke="black"/>
<line x1="699.011" y1="141.633" x2="724.011" y2="141.633" stroke="black"/>
<path d="M684.011 162.133L699.067 182.882" stroke="black"/>
<line x1="683.612" y1="162.195" x2="699.051" y2="141.831" stroke="black"/>
<line x1="738.659" y1="209.899" x2="723.606" y2="189.148" stroke="black"/>
<line x1="738.851" y1="210.156" x2="723.409" y2="230.518" stroke="black"/>
<line x1="699.011" y1="230.354" x2="724.011" y2="230.354" stroke="black"/>
<line x1="699.011" y1="189.354" x2="724.011" y2="189.354" stroke="black"/>
<path d="M684.011 209.854L699.067 230.603" stroke="black"/>
<line x1="683.612" y1="209.917" x2="699.051" y2="189.552" stroke="black"/>
<line x1="601.437" y1="331.741" x2="586.385" y2="310.989" stroke="black"/>
<line x1="601.63" y1="331.998" x2="586.188" y2="352.36" stroke="black"/>
<line x1="561.789" y1="352.196" x2="586.789" y2="352.196" stroke="black"/>
<line x1="561.789" y1="311.196" x2="586.789" y2="311.196" stroke="black"/>
<path d="M546.789 331.696L561.846 352.445" stroke="black"/>
<line x1="546.391" y1="331.758" x2="561.829" y2="311.394" stroke="black"/>
<line x1="556.041" y1="355.094" x2="540.988" y2="334.342" stroke="black"/>
<line x1="556.233" y1="355.351" x2="540.791" y2="375.713" stroke="black"/>
<line x1="516.393" y1="375.549" x2="541.393" y2="375.549" stroke="black"/>
<line x1="516.393" y1="334.549" x2="541.393" y2="334.549" stroke="black"/>
<path d="M501.393 355.049L516.449 375.798" stroke="black"/>
<line x1="500.995" y1="355.111" x2="516.433" y2="334.747" stroke="black"/>
<line x1="739.69" y1="257.621" x2="724.638" y2="236.869" stroke="black"/>
<line x1="739.883" y1="257.878" x2="724.441" y2="278.239" stroke="black"/>
<line x1="700.042" y1="278.075" x2="725.042" y2="278.075" stroke="black"/>
<line x1="700.042" y1="237.075" x2="725.042" y2="237.075" stroke="black"/>
<path d="M685.042 257.575L700.099 278.324" stroke="black"/>
<line x1="684.644" y1="257.638" x2="700.082" y2="237.273" stroke="black"/>
<line x1="786.119" y1="283.004" x2="771.066" y2="262.253" stroke="black"/>
<line x1="786.311" y1="283.261" x2="770.869" y2="303.623" stroke="black"/>
<line x1="746.471" y1="303.459" x2="771.471" y2="303.459" stroke="black"/>
<line x1="746.471" y1="262.459" x2="771.471" y2="262.459" stroke="black"/>
<path d="M731.471 282.959L746.527 303.708" stroke="black"/>
<line x1="731.072" y1="283.022" x2="746.511" y2="262.657" stroke="black"/>
<line x1="647.866" y1="353.063" x2="632.813" y2="332.312" stroke="black"/>
<line x1="648.058" y1="353.32" x2="632.616" y2="373.682" stroke="black"/>
<line x1="608.218" y1="373.518" x2="633.218" y2="373.518" stroke="black"/>
<line x1="608.218" y1="332.518" x2="633.218" y2="332.518" stroke="black"/>
<path d="M593.218 353.018L608.274 373.767" stroke="black"/>
<line x1="592.819" y1="353.08" x2="608.258" y2="332.716" stroke="black"/>
<line x1="147.473" y1="143.902" x2="132.42" y2="123.15" stroke="black"/>
<line x1="147.665" y1="144.159" x2="132.223" y2="164.521" stroke="black"/>
<line x1="107.825" y1="164.357" x2="132.825" y2="164.357" stroke="black"/>
<line x1="107.825" y1="123.357" x2="132.825" y2="123.357" stroke="black"/>
<path d="M92.8247 143.857L107.881 164.606" stroke="black"/>
<line x1="92.4263" y1="143.919" x2="107.865" y2="123.555" stroke="black"/>
<line x1="146.441" y1="336.818" x2="131.388" y2="316.066" stroke="black"/>
<line x1="146.633" y1="337.075" x2="131.191" y2="357.436" stroke="black"/>
<line x1="106.793" y1="357.272" x2="131.793" y2="357.272" stroke="black"/>
<line x1="106.793" y1="316.272" x2="131.793" y2="316.272" stroke="black"/>
<path d="M91.793 336.772L106.849 357.521" stroke="black"/>
<line x1="91.3945" y1="336.835" x2="106.833" y2="316.47" stroke="black"/>
<line x1="375.487" y1="357.124" x2="360.434" y2="336.373" stroke="black"/>
<line x1="375.679" y1="357.381" x2="360.237" y2="377.743" stroke="black"/>
<line x1="335.839" y1="377.579" x2="360.839" y2="377.579" stroke="black"/>
<line x1="335.839" y1="336.579" x2="360.839" y2="336.579" stroke="black"/>
<path d="M320.839 357.079L335.895 377.828" stroke="black"/>
<line x1="320.44" y1="357.142" x2="335.879" y2="336.777" stroke="black"/>
<line x1="191.837" y1="359.155" x2="176.785" y2="338.404" stroke="black"/>
<line x1="192.03" y1="359.412" x2="176.588" y2="379.774" stroke="black"/>
<line x1="152.189" y1="379.61" x2="177.189" y2="379.61" stroke="black"/>
<line x1="152.189" y1="338.61" x2="177.189" y2="338.61" stroke="black"/>
<path d="M137.189 359.11L152.246 379.859" stroke="black"/>
<line x1="136.791" y1="359.172" x2="152.23" y2="338.808" stroke="black"/>
<line x1="283.662" y1="359.155" x2="268.609" y2="338.404" stroke="black"/>
<line x1="283.855" y1="359.412" x2="268.412" y2="379.774" stroke="black"/>
<line x1="244.014" y1="379.61" x2="269.014" y2="379.61" stroke="black"/>
<line x1="244.014" y1="338.61" x2="269.014" y2="338.61" stroke="black"/>
<path d="M229.014 359.11L244.07 379.859" stroke="black"/>
<line x1="228.616" y1="359.172" x2="244.054" y2="338.808" stroke="black"/>
</svg>
