<svg width="956" height="477" viewBox="0 0 956 477" fill="none" xmlns="http://www.w3.org/2000/svg">
<rect width="956" height="477" fill="#989898"/>
<line x1="641.437" y1="275.283" x2="626.385" y2="254.531" stroke="#393939"/>
<line x1="641.63" y1="275.54" x2="626.188" y2="295.902" stroke="#393939"/>
<line x1="601.789" y1="295.738" x2="626.789" y2="295.738" stroke="#393939"/>
<line x1="601.789" y1="254.738" x2="626.789" y2="254.738" stroke="#393939"/>
<path d="M586.789 275.238L601.846 295.987" stroke="#393939"/>
<line x1="586.391" y1="275.3" x2="601.829" y2="254.936" stroke="#393939"/>
<line x1="732.23" y1="275.283" x2="717.178" y2="254.531" stroke="#393939"/>
<line x1="732.423" y1="275.54" x2="716.981" y2="295.902" stroke="#393939"/>
<line x1="692.582" y1="295.738" x2="717.582" y2="295.738" stroke="#393939"/>
<line x1="692.582" y1="254.738" x2="717.582" y2="254.738" stroke="#393939"/>
<path d="M677.582 275.238L692.639 295.987" stroke="#393939"/>
<line x1="677.184" y1="275.3" x2="692.622" y2="254.936" stroke="#393939"/>
<line x1="686.834" y1="250.915" x2="671.781" y2="230.163" stroke="#393939"/>
<line x1="687.026" y1="251.172" x2="671.584" y2="271.534" stroke="#393939"/>
<line x1="647.186" y1="271.37" x2="672.186" y2="271.37" stroke="#393939"/>
<line x1="647.186" y1="230.37" x2="672.186" y2="230.37" stroke="#393939"/>
<path d="M632.186 250.87L647.242 271.619" stroke="#393939"/>
<line x1="631.787" y1="250.932" x2="647.226" y2="230.568" stroke="#393939"/>
<line x1="686.834" y1="298.636" x2="671.781" y2="277.884" stroke="#393939"/>
<line x1="687.026" y1="298.893" x2="671.584" y2="319.255" stroke="#393939"/>
<line x1="647.186" y1="319.091" x2="672.186" y2="319.091" stroke="#393939"/>
<line x1="647.186" y1="278.091" x2="672.186" y2="278.091" stroke="#393939"/>
<path d="M632.186 298.591L647.242 319.34" stroke="#393939"/>
<line x1="631.787" y1="298.653" x2="647.226" y2="278.289" stroke="#393939"/>
<line x1="550.644" y1="229.593" x2="535.592" y2="208.841" stroke="#393939"/>
<line x1="550.837" y1="229.849" x2="535.395" y2="250.211" stroke="#393939"/>
<line x1="510.996" y1="250.047" x2="535.996" y2="250.047" stroke="#393939"/>
<line x1="510.996" y1="209.047" x2="535.996" y2="209.047" stroke="#393939"/>
<path d="M495.996 229.547L511.053 250.296" stroke="#393939"/>
<line x1="495.598" y1="229.61" x2="511.037" y2="209.245" stroke="#393939"/>
<line x1="641.437" y1="229.593" x2="626.385" y2="208.841" stroke="#393939"/>
<line x1="641.63" y1="229.849" x2="626.188" y2="250.211" stroke="#393939"/>
<line x1="601.789" y1="250.047" x2="626.789" y2="250.047" stroke="#393939"/>
<line x1="601.789" y1="209.047" x2="626.789" y2="209.047" stroke="#393939"/>
<path d="M586.789 229.547L601.846 250.296" stroke="#393939"/>
<line x1="586.391" y1="229.61" x2="601.829" y2="209.245" stroke="#393939"/>
<line x1="596.041" y1="205.224" x2="580.988" y2="184.473" stroke="#393939"/>
<line x1="596.233" y1="205.481" x2="580.791" y2="225.843" stroke="#393939"/>
<line x1="556.393" y1="225.679" x2="581.393" y2="225.679" stroke="#393939"/>
<line x1="556.393" y1="184.679" x2="581.393" y2="184.679" stroke="#393939"/>
<path d="M541.393 205.179L556.449 225.928" stroke="#393939"/>
<line x1="540.995" y1="205.242" x2="556.433" y2="184.877" stroke="#393939"/>
<line x1="596.041" y1="252.945" x2="580.988" y2="232.194" stroke="#393939"/>
<line x1="596.233" y1="253.202" x2="580.791" y2="273.564" stroke="#393939"/>
<line x1="556.393" y1="273.4" x2="581.393" y2="273.4" stroke="#393939"/>
<line x1="556.393" y1="232.4" x2="581.393" y2="232.4" stroke="#393939"/>
<path d="M541.393 252.9L556.449 273.649" stroke="#393939"/>
<line x1="540.995" y1="252.963" x2="556.433" y2="232.598" stroke="#393939"/>
<line x1="415.487" y1="397.124" x2="400.434" y2="376.373" stroke="#393939"/>
<line x1="415.679" y1="397.381" x2="400.237" y2="417.743" stroke="#393939"/>
<line x1="375.839" y1="417.579" x2="400.839" y2="417.579" stroke="#393939"/>
<line x1="375.839" y1="376.579" x2="400.839" y2="376.579" stroke="#393939"/>
<path d="M360.839 397.079L375.895 417.828" stroke="#393939"/>
<line x1="360.44" y1="397.142" x2="375.879" y2="376.777" stroke="#393939"/>
<line x1="323.662" y1="399.155" x2="308.609" y2="378.404" stroke="#393939"/>
<line x1="323.855" y1="399.412" x2="308.412" y2="419.774" stroke="#393939"/>
<line x1="284.014" y1="419.61" x2="309.014" y2="419.61" stroke="#393939"/>
<line x1="284.014" y1="378.61" x2="309.014" y2="378.61" stroke="#393939"/>
<path d="M269.014 399.11L284.07 419.859" stroke="#393939"/>
<line x1="268.616" y1="399.172" x2="284.054" y2="378.808" stroke="#393939"/>
<line x1="231.837" y1="399.155" x2="216.785" y2="378.404" stroke="#393939"/>
<line x1="232.03" y1="399.412" x2="216.588" y2="419.774" stroke="#393939"/>
<line x1="192.189" y1="419.61" x2="217.189" y2="419.61" stroke="#393939"/>
<line x1="192.189" y1="378.61" x2="217.189" y2="378.61" stroke="#393939"/>
<path d="M177.189 399.11L192.246 419.859" stroke="#393939"/>
<line x1="176.791" y1="399.172" x2="192.23" y2="378.808" stroke="#393939"/>
<line x1="232.869" y1="352.449" x2="217.816" y2="331.698" stroke="#393939"/>
<line x1="233.062" y1="352.706" x2="217.62" y2="373.068" stroke="#393939"/>
<line x1="193.221" y1="372.904" x2="218.221" y2="372.904" stroke="#393939"/>
<line x1="193.221" y1="331.904" x2="218.221" y2="331.904" stroke="#393939"/>
<path d="M178.221 352.404L193.278 373.153" stroke="#393939"/>
<line x1="177.823" y1="352.467" x2="193.261" y2="332.102" stroke="#393939"/>
<line x1="323.662" y1="352.449" x2="308.609" y2="331.698" stroke="#393939"/>
<line x1="323.855" y1="352.706" x2="308.412" y2="373.068" stroke="#393939"/>
<line x1="284.014" y1="372.904" x2="309.014" y2="372.904" stroke="#393939"/>
<line x1="284.014" y1="331.904" x2="309.014" y2="331.904" stroke="#393939"/>
<path d="M269.014 352.404L284.07 373.153" stroke="#393939"/>
<line x1="268.616" y1="352.467" x2="284.054" y2="332.102" stroke="#393939"/>
<line x1="278.266" y1="328.081" x2="263.213" y2="307.329" stroke="#393939"/>
<line x1="278.458" y1="328.338" x2="263.016" y2="348.7" stroke="#393939"/>
<line x1="238.618" y1="348.536" x2="263.618" y2="348.536" stroke="#393939"/>
<line x1="238.618" y1="307.536" x2="263.618" y2="307.536" stroke="#393939"/>
<path d="M223.618 328.036L238.674 348.785" stroke="#393939"/>
<line x1="223.219" y1="328.098" x2="238.658" y2="307.734" stroke="#393939"/>
<line x1="278.266" y1="375.802" x2="263.213" y2="355.051" stroke="#393939"/>
<line x1="278.458" y1="376.059" x2="263.016" y2="396.421" stroke="#393939"/>
<line x1="238.618" y1="396.257" x2="263.618" y2="396.257" stroke="#393939"/>
<line x1="238.618" y1="355.257" x2="263.618" y2="355.257" stroke="#393939"/>
<path d="M223.618 375.757L238.674 396.506" stroke="#393939"/>
<line x1="223.219" y1="375.82" x2="238.658" y2="355.455" stroke="#393939"/>
<line x1="459.852" y1="371.741" x2="444.799" y2="350.989" stroke="#393939"/>
<line x1="460.044" y1="371.998" x2="444.602" y2="392.36" stroke="#393939"/>
<line x1="420.204" y1="392.196" x2="445.204" y2="392.196" stroke="#393939"/>
<line x1="420.204" y1="351.196" x2="445.204" y2="351.196" stroke="#393939"/>
<path d="M405.204 371.696L420.26 392.445" stroke="#393939"/>
<line x1="404.805" y1="371.758" x2="420.244" y2="351.394" stroke="#393939"/>
<line x1="550.644" y1="371.741" x2="535.592" y2="350.989" stroke="#393939"/>
<line x1="550.837" y1="371.998" x2="535.395" y2="392.36" stroke="#393939"/>
<line x1="510.996" y1="392.196" x2="535.996" y2="392.196" stroke="#393939"/>
<line x1="510.996" y1="351.196" x2="535.996" y2="351.196" stroke="#393939"/>
<path d="M495.996 371.696L511.053 392.445" stroke="#393939"/>
<line x1="495.598" y1="371.758" x2="511.037" y2="351.394" stroke="#393939"/>
<line x1="505.248" y1="347.373" x2="490.195" y2="326.621" stroke="#393939"/>
<line x1="505.44" y1="347.63" x2="489.998" y2="367.991" stroke="#393939"/>
<line x1="465.6" y1="367.827" x2="490.6" y2="367.827" stroke="#393939"/>
<line x1="465.6" y1="326.827" x2="490.6" y2="326.827" stroke="#393939"/>
<path d="M450.6 347.327L465.656 368.076" stroke="#393939"/>
<line x1="450.202" y1="347.39" x2="465.64" y2="327.025" stroke="#393939"/>
<line x1="505.248" y1="395.094" x2="490.195" y2="374.342" stroke="#393939"/>
<line x1="505.44" y1="395.351" x2="489.998" y2="415.713" stroke="#393939"/>
<line x1="465.6" y1="415.549" x2="490.6" y2="415.549" stroke="#393939"/>
<line x1="465.6" y1="374.549" x2="490.6" y2="374.549" stroke="#393939"/>
<path d="M450.6 395.049L465.656 415.798" stroke="#393939"/>
<line x1="450.202" y1="395.111" x2="465.64" y2="374.747" stroke="#393939"/>
<line x1="369.059" y1="326.05" x2="354.006" y2="305.299" stroke="#393939"/>
<line x1="369.251" y1="326.307" x2="353.809" y2="346.669" stroke="#393939"/>
<line x1="329.411" y1="346.505" x2="354.411" y2="346.505" stroke="#393939"/>
<line x1="329.411" y1="305.505" x2="354.411" y2="305.505" stroke="#393939"/>
<path d="M314.411 326.005L329.467 346.754" stroke="#393939"/>
<line x1="314.012" y1="326.068" x2="329.451" y2="305.703" stroke="#393939"/>
<line x1="459.852" y1="326.05" x2="444.799" y2="305.299" stroke="#393939"/>
<line x1="460.044" y1="326.307" x2="444.602" y2="346.669" stroke="#393939"/>
<line x1="420.204" y1="346.505" x2="445.204" y2="346.505" stroke="#393939"/>
<line x1="420.204" y1="305.505" x2="445.204" y2="305.505" stroke="#393939"/>
<path d="M405.204 326.005L420.26 346.754" stroke="#393939"/>
<line x1="404.805" y1="326.068" x2="420.244" y2="305.703" stroke="#393939"/>
<line x1="414.455" y1="301.682" x2="399.402" y2="280.93" stroke="#393939"/>
<line x1="414.647" y1="301.939" x2="399.205" y2="322.301" stroke="#393939"/>
<line x1="374.807" y1="322.137" x2="399.807" y2="322.137" stroke="#393939"/>
<line x1="374.807" y1="281.137" x2="399.807" y2="281.137" stroke="#393939"/>
<path d="M359.807 301.637L374.863 322.386" stroke="#393939"/>
<line x1="359.409" y1="301.699" x2="374.847" y2="281.335" stroke="#393939"/>
<line x1="414.455" y1="349.403" x2="399.402" y2="328.652" stroke="#393939"/>
<line x1="414.647" y1="349.66" x2="399.205" y2="370.022" stroke="#393939"/>
<line x1="374.807" y1="369.858" x2="399.807" y2="369.858" stroke="#393939"/>
<line x1="374.807" y1="328.858" x2="399.807" y2="328.858" stroke="#393939"/>
<path d="M359.807 349.358L374.863 370.107" stroke="#393939"/>
<line x1="359.409" y1="349.421" x2="374.847" y2="329.056" stroke="#393939"/>
<line x1="278.266" y1="277.314" x2="263.213" y2="256.562" stroke="#393939"/>
<line x1="278.458" y1="277.571" x2="263.016" y2="297.933" stroke="#393939"/>
<line x1="238.618" y1="297.769" x2="263.618" y2="297.769" stroke="#393939"/>
<line x1="238.618" y1="256.769" x2="263.618" y2="256.769" stroke="#393939"/>
<path d="M223.618 277.269L238.674 298.018" stroke="#393939"/>
<line x1="223.219" y1="277.331" x2="238.658" y2="256.966" stroke="#393939"/>
<line x1="369.059" y1="277.314" x2="354.006" y2="256.562" stroke="#393939"/>
<line x1="369.251" y1="277.571" x2="353.809" y2="297.933" stroke="#393939"/>
<line x1="329.411" y1="297.769" x2="354.411" y2="297.769" stroke="#393939"/>
<line x1="329.411" y1="256.769" x2="354.411" y2="256.769" stroke="#393939"/>
<path d="M314.411 277.269L329.467 298.018" stroke="#393939"/>
<line x1="314.012" y1="277.331" x2="329.451" y2="256.966" stroke="#393939"/>
<line x1="323.662" y1="252.945" x2="308.609" y2="232.194" stroke="#393939"/>
<line x1="323.855" y1="253.202" x2="308.412" y2="273.564" stroke="#393939"/>
<line x1="284.014" y1="273.4" x2="309.014" y2="273.4" stroke="#393939"/>
<line x1="284.014" y1="232.4" x2="309.014" y2="232.4" stroke="#393939"/>
<path d="M269.014 252.9L284.07 273.649" stroke="#393939"/>
<line x1="268.616" y1="252.963" x2="284.054" y2="232.598" stroke="#393939"/>
<line x1="323.662" y1="300.667" x2="308.609" y2="279.915" stroke="#393939"/>
<line x1="323.855" y1="300.924" x2="308.412" y2="321.285" stroke="#393939"/>
<line x1="284.014" y1="321.121" x2="309.014" y2="321.121" stroke="#393939"/>
<line x1="284.014" y1="280.121" x2="309.014" y2="280.121" stroke="#393939"/>
<path d="M269.014 300.621L284.07 321.37" stroke="#393939"/>
<line x1="268.616" y1="300.684" x2="284.054" y2="280.319" stroke="#393939"/>
<line x1="187.473" y1="231.623" x2="172.42" y2="210.872" stroke="#393939"/>
<line x1="187.665" y1="231.88" x2="172.223" y2="252.242" stroke="#393939"/>
<line x1="147.825" y1="252.078" x2="172.825" y2="252.078" stroke="#393939"/>
<line x1="147.825" y1="211.078" x2="172.825" y2="211.078" stroke="#393939"/>
<path d="M132.825 231.578L147.881 252.327" stroke="#393939"/>
<line x1="132.426" y1="231.64" x2="147.865" y2="211.276" stroke="#393939"/>
<line x1="278.266" y1="231.623" x2="263.213" y2="210.872" stroke="#393939"/>
<line x1="278.458" y1="231.88" x2="263.016" y2="252.242" stroke="#393939"/>
<line x1="238.618" y1="252.078" x2="263.618" y2="252.078" stroke="#393939"/>
<line x1="238.618" y1="211.078" x2="263.618" y2="211.078" stroke="#393939"/>
<path d="M223.618 231.578L238.674 252.327" stroke="#393939"/>
<line x1="223.219" y1="231.64" x2="238.658" y2="211.276" stroke="#393939"/>
<line x1="232.869" y1="207.255" x2="217.816" y2="186.503" stroke="#393939"/>
<line x1="233.062" y1="207.512" x2="217.62" y2="227.874" stroke="#393939"/>
<line x1="193.221" y1="227.71" x2="218.221" y2="227.71" stroke="#393939"/>
<line x1="193.221" y1="186.71" x2="218.221" y2="186.71" stroke="#393939"/>
<path d="M178.221 207.21L193.278 227.959" stroke="#393939"/>
<line x1="177.823" y1="207.272" x2="193.261" y2="186.908" stroke="#393939"/>
<line x1="232.869" y1="254.976" x2="217.816" y2="234.225" stroke="#393939"/>
<line x1="233.062" y1="255.233" x2="217.62" y2="275.595" stroke="#393939"/>
<line x1="193.221" y1="275.431" x2="218.221" y2="275.431" stroke="#393939"/>
<line x1="193.221" y1="234.431" x2="218.221" y2="234.431" stroke="#393939"/>
<path d="M178.221 254.931L193.278 275.68" stroke="#393939"/>
<line x1="177.823" y1="254.993" x2="193.261" y2="234.629" stroke="#393939"/>
<line x1="550.644" y1="323.004" x2="535.592" y2="302.253" stroke="#393939"/>
<line x1="550.837" y1="323.261" x2="535.395" y2="343.623" stroke="#393939"/>
<line x1="510.996" y1="343.459" x2="535.996" y2="343.459" stroke="#393939"/>
<line x1="510.996" y1="302.459" x2="535.996" y2="302.459" stroke="#393939"/>
<path d="M495.996 322.959L511.053 343.708" stroke="#393939"/>
<line x1="495.598" y1="323.022" x2="511.037" y2="302.657" stroke="#393939"/>
<line x1="641.437" y1="323.004" x2="626.385" y2="302.253" stroke="#393939"/>
<line x1="641.63" y1="323.261" x2="626.188" y2="343.623" stroke="#393939"/>
<line x1="601.789" y1="343.459" x2="626.789" y2="343.459" stroke="#393939"/>
<line x1="601.789" y1="302.459" x2="626.789" y2="302.459" stroke="#393939"/>
<path d="M586.789 322.959L601.846 343.708" stroke="#393939"/>
<line x1="586.391" y1="323.022" x2="601.829" y2="302.657" stroke="#393939"/>
<line x1="596.041" y1="298.636" x2="580.988" y2="277.884" stroke="#393939"/>
<line x1="596.233" y1="298.893" x2="580.791" y2="319.255" stroke="#393939"/>
<line x1="556.393" y1="319.091" x2="581.393" y2="319.091" stroke="#393939"/>
<line x1="556.393" y1="278.091" x2="581.393" y2="278.091" stroke="#393939"/>
<path d="M541.393 298.591L556.449 319.34" stroke="#393939"/>
<line x1="540.995" y1="298.653" x2="556.433" y2="278.289" stroke="#393939"/>
<line x1="596.041" y1="346.357" x2="580.988" y2="325.606" stroke="#393939"/>
<line x1="596.233" y1="346.614" x2="580.791" y2="366.976" stroke="#393939"/>
<line x1="556.393" y1="366.812" x2="581.393" y2="366.812" stroke="#393939"/>
<line x1="556.393" y1="325.812" x2="581.393" y2="325.812" stroke="#393939"/>
<path d="M541.393 346.312L556.449 367.061" stroke="#393939"/>
<line x1="540.995" y1="346.375" x2="556.433" y2="326.01" stroke="#393939"/>
<line x1="459.852" y1="277.314" x2="444.799" y2="256.562" stroke="#393939"/>
<line x1="460.044" y1="277.571" x2="444.602" y2="297.933" stroke="#393939"/>
<line x1="420.204" y1="297.769" x2="445.204" y2="297.769" stroke="#393939"/>
<line x1="420.204" y1="256.769" x2="445.204" y2="256.769" stroke="#393939"/>
<path d="M405.204 277.269L420.26 298.018" stroke="#393939"/>
<line x1="404.805" y1="277.331" x2="420.244" y2="256.966" stroke="#393939"/>
<line x1="550.644" y1="277.314" x2="535.592" y2="256.562" stroke="#393939"/>
<line x1="550.837" y1="277.571" x2="535.395" y2="297.933" stroke="#393939"/>
<line x1="510.996" y1="297.769" x2="535.996" y2="297.769" stroke="#393939"/>
<line x1="510.996" y1="256.769" x2="535.996" y2="256.769" stroke="#393939"/>
<path d="M495.996 277.269L511.053 298.018" stroke="#393939"/>
<line x1="495.598" y1="277.331" x2="511.037" y2="256.966" stroke="#393939"/>
<line x1="505.248" y1="252.945" x2="490.195" y2="232.194" stroke="#393939"/>
<line x1="505.44" y1="253.202" x2="489.998" y2="273.564" stroke="#393939"/>
<line x1="465.6" y1="273.4" x2="490.6" y2="273.4" stroke="#393939"/>
<line x1="465.6" y1="232.4" x2="490.6" y2="232.4" stroke="#393939"/>
<path d="M450.6 252.9L465.656 273.649" stroke="#393939"/>
<line x1="450.202" y1="252.963" x2="465.64" y2="232.598" stroke="#393939"/>
<line x1="505.248" y1="300.667" x2="490.195" y2="279.915" stroke="#393939"/>
<line x1="505.44" y1="300.924" x2="489.998" y2="321.285" stroke="#393939"/>
<line x1="465.6" y1="321.121" x2="490.6" y2="321.121" stroke="#393939"/>
<line x1="465.6" y1="280.121" x2="490.6" y2="280.121" stroke="#393939"/>
<path d="M450.6 300.621L465.656 321.37" stroke="#393939"/>
<line x1="450.202" y1="300.684" x2="465.64" y2="280.319" stroke="#393939"/>
<line x1="369.059" y1="228.577" x2="354.006" y2="207.826" stroke="#393939"/>
<line x1="369.251" y1="228.834" x2="353.809" y2="249.196" stroke="#393939"/>
<line x1="329.411" y1="249.032" x2="354.411" y2="249.032" stroke="#393939"/>
<line x1="329.411" y1="208.032" x2="354.411" y2="208.032" stroke="#393939"/>
<path d="M314.411 228.532L329.467 249.281" stroke="#393939"/>
<line x1="314.012" y1="228.594" x2="329.451" y2="208.23" stroke="#393939"/>
<line x1="459.852" y1="228.577" x2="444.799" y2="207.826" stroke="#393939"/>
<line x1="460.044" y1="228.834" x2="444.602" y2="249.196" stroke="#393939"/>
<line x1="420.204" y1="249.032" x2="445.204" y2="249.032" stroke="#393939"/>
<line x1="420.204" y1="208.032" x2="445.204" y2="208.032" stroke="#393939"/>
<path d="M405.204 228.532L420.26 249.281" stroke="#393939"/>
<line x1="404.805" y1="228.594" x2="420.244" y2="208.23" stroke="#393939"/>
<line x1="414.455" y1="204.209" x2="399.402" y2="183.457" stroke="#393939"/>
<line x1="414.647" y1="204.466" x2="399.205" y2="224.828" stroke="#393939"/>
<line x1="374.807" y1="224.664" x2="399.807" y2="224.664" stroke="#393939"/>
<line x1="374.807" y1="183.664" x2="399.807" y2="183.664" stroke="#393939"/>
<path d="M359.807 204.164L374.863 224.913" stroke="#393939"/>
<line x1="359.409" y1="204.226" x2="374.847" y2="183.862" stroke="#393939"/>
<line x1="414.455" y1="251.93" x2="399.402" y2="231.178" stroke="#393939"/>
<line x1="414.647" y1="252.187" x2="399.205" y2="272.549" stroke="#393939"/>
<line x1="374.807" y1="272.385" x2="399.807" y2="272.385" stroke="#393939"/>
<line x1="374.807" y1="231.385" x2="399.807" y2="231.385" stroke="#393939"/>
<path d="M359.807 251.885L374.863 272.634" stroke="#393939"/>
<line x1="359.409" y1="251.947" x2="374.847" y2="231.583" stroke="#393939"/>
<line x1="278.266" y1="182.887" x2="263.213" y2="162.135" stroke="#393939"/>
<line x1="278.458" y1="183.144" x2="263.016" y2="203.505" stroke="#393939"/>
<line x1="238.618" y1="203.341" x2="263.618" y2="203.341" stroke="#393939"/>
<line x1="238.618" y1="162.341" x2="263.618" y2="162.341" stroke="#393939"/>
<path d="M223.618 182.841L238.674 203.59" stroke="#393939"/>
<line x1="223.219" y1="182.904" x2="238.658" y2="162.539" stroke="#393939"/>
<line x1="369.059" y1="182.887" x2="354.006" y2="162.135" stroke="#393939"/>
<line x1="369.251" y1="183.144" x2="353.809" y2="203.505" stroke="#393939"/>
<line x1="329.411" y1="203.341" x2="354.411" y2="203.341" stroke="#393939"/>
<line x1="329.411" y1="162.341" x2="354.411" y2="162.341" stroke="#393939"/>
<path d="M314.411 182.841L329.467 203.59" stroke="#393939"/>
<line x1="314.012" y1="182.904" x2="329.451" y2="162.539" stroke="#393939"/>
<line x1="323.662" y1="158.518" x2="308.609" y2="137.767" stroke="#393939"/>
<line x1="323.855" y1="158.775" x2="308.412" y2="179.137" stroke="#393939"/>
<line x1="284.014" y1="178.973" x2="309.014" y2="178.973" stroke="#393939"/>
<line x1="284.014" y1="137.973" x2="309.014" y2="137.973" stroke="#393939"/>
<path d="M269.014 158.473L284.07 179.222" stroke="#393939"/>
<line x1="268.616" y1="158.536" x2="284.054" y2="138.171" stroke="#393939"/>
<line x1="323.662" y1="206.24" x2="308.609" y2="185.488" stroke="#393939"/>
<line x1="323.855" y1="206.496" x2="308.412" y2="226.858" stroke="#393939"/>
<line x1="284.014" y1="226.694" x2="309.014" y2="226.694" stroke="#393939"/>
<line x1="284.014" y1="185.694" x2="309.014" y2="185.694" stroke="#393939"/>
<path d="M269.014 206.194L284.07 226.943" stroke="#393939"/>
<line x1="268.616" y1="206.257" x2="284.054" y2="185.892" stroke="#393939"/>
<line x1="186.441" y1="376.818" x2="171.388" y2="356.066" stroke="#393939"/>
<line x1="186.633" y1="377.075" x2="171.191" y2="397.436" stroke="#393939"/>
<line x1="146.793" y1="397.272" x2="171.793" y2="397.272" stroke="#393939"/>
<line x1="146.793" y1="356.272" x2="171.793" y2="356.272" stroke="#393939"/>
<path d="M131.793 376.772L146.849 397.521" stroke="#393939"/>
<line x1="131.395" y1="376.835" x2="146.833" y2="356.47" stroke="#393939"/>
<line x1="641.437" y1="179.841" x2="626.385" y2="159.089" stroke="#393939"/>
<line x1="641.63" y1="180.098" x2="626.188" y2="200.459" stroke="#393939"/>
<line x1="601.789" y1="200.295" x2="626.789" y2="200.295" stroke="#393939"/>
<line x1="601.789" y1="159.295" x2="626.789" y2="159.295" stroke="#393939"/>
<path d="M586.789 179.795L601.846 200.544" stroke="#393939"/>
<line x1="586.391" y1="179.858" x2="601.829" y2="159.493" stroke="#393939"/>
<line x1="732.23" y1="179.841" x2="717.178" y2="159.089" stroke="#393939"/>
<line x1="732.423" y1="180.098" x2="716.981" y2="200.459" stroke="#393939"/>
<line x1="692.582" y1="200.295" x2="717.582" y2="200.295" stroke="#393939"/>
<line x1="692.582" y1="159.295" x2="717.582" y2="159.295" stroke="#393939"/>
<path d="M677.582 179.795L692.639 200.544" stroke="#393939"/>
<line x1="677.184" y1="179.858" x2="692.622" y2="159.493" stroke="#393939"/>
<line x1="686.834" y1="155.472" x2="671.781" y2="134.721" stroke="#393939"/>
<line x1="687.026" y1="155.729" x2="671.584" y2="176.091" stroke="#393939"/>
<line x1="647.186" y1="175.927" x2="672.186" y2="175.927" stroke="#393939"/>
<line x1="647.186" y1="134.927" x2="672.186" y2="134.927" stroke="#393939"/>
<path d="M632.186 155.427L647.242 176.176" stroke="#393939"/>
<line x1="631.787" y1="155.49" x2="647.226" y2="135.125" stroke="#393939"/>
<line x1="686.834" y1="203.194" x2="671.781" y2="182.442" stroke="#393939"/>
<line x1="687.026" y1="203.45" x2="671.584" y2="223.812" stroke="#393939"/>
<line x1="647.186" y1="223.648" x2="672.186" y2="223.648" stroke="#393939"/>
<line x1="647.186" y1="182.648" x2="672.186" y2="182.648" stroke="#393939"/>
<path d="M632.186 203.148L647.242 223.897" stroke="#393939"/>
<line x1="631.787" y1="203.211" x2="647.226" y2="182.846" stroke="#393939"/>
<line x1="550.644" y1="134.15" x2="535.592" y2="113.398" stroke="#393939"/>
<line x1="550.837" y1="134.407" x2="535.395" y2="154.769" stroke="#393939"/>
<line x1="510.996" y1="154.605" x2="535.996" y2="154.605" stroke="#393939"/>
<line x1="510.996" y1="113.605" x2="535.996" y2="113.605" stroke="#393939"/>
<path d="M495.996 134.105L511.053 154.854" stroke="#393939"/>
<line x1="495.598" y1="134.167" x2="511.037" y2="113.803" stroke="#393939"/>
<line x1="641.437" y1="134.15" x2="626.385" y2="113.398" stroke="#393939"/>
<line x1="641.63" y1="134.407" x2="626.188" y2="154.769" stroke="#393939"/>
<line x1="601.789" y1="154.605" x2="626.789" y2="154.605" stroke="#393939"/>
<line x1="601.789" y1="113.605" x2="626.789" y2="113.605" stroke="#393939"/>
<path d="M586.789 134.105L601.846 154.854" stroke="#393939"/>
<line x1="586.391" y1="134.167" x2="601.829" y2="113.803" stroke="#393939"/>
<line x1="596.041" y1="109.782" x2="580.988" y2="89.0302" stroke="#393939"/>
<line x1="596.233" y1="110.039" x2="580.791" y2="130.401" stroke="#393939"/>
<line x1="556.393" y1="130.237" x2="581.393" y2="130.237" stroke="#393939"/>
<line x1="556.393" y1="89.2366" x2="581.393" y2="89.2366" stroke="#393939"/>
<path d="M541.393 109.737L556.449 130.486" stroke="#393939"/>
<line x1="540.995" y1="109.799" x2="556.433" y2="89.4345" stroke="#393939"/>
<line x1="596.041" y1="157.503" x2="580.988" y2="136.751" stroke="#393939"/>
<line x1="596.233" y1="157.76" x2="580.791" y2="178.122" stroke="#393939"/>
<line x1="556.393" y1="177.958" x2="581.393" y2="177.958" stroke="#393939"/>
<line x1="556.393" y1="136.958" x2="581.393" y2="136.958" stroke="#393939"/>
<path d="M541.393 157.458L556.449 178.207" stroke="#393939"/>
<line x1="540.995" y1="157.52" x2="556.433" y2="137.156" stroke="#393939"/>
<line x1="186.441" y1="135.165" x2="171.388" y2="114.414" stroke="#393939"/>
<line x1="186.633" y1="135.422" x2="171.191" y2="155.784" stroke="#393939"/>
<line x1="146.793" y1="155.62" x2="171.793" y2="155.62" stroke="#393939"/>
<line x1="146.793" y1="114.62" x2="171.793" y2="114.62" stroke="#393939"/>
<path d="M131.793 135.12L146.849 155.869" stroke="#393939"/>
<line x1="131.395" y1="135.183" x2="146.833" y2="114.818" stroke="#393939"/>
<line x1="277.234" y1="135.165" x2="262.181" y2="114.414" stroke="#393939"/>
<line x1="277.426" y1="135.422" x2="261.984" y2="155.784" stroke="#393939"/>
<line x1="237.586" y1="155.62" x2="262.586" y2="155.62" stroke="#393939"/>
<line x1="237.586" y1="114.62" x2="262.586" y2="114.62" stroke="#393939"/>
<path d="M222.586 135.12L237.642 155.869" stroke="#393939"/>
<line x1="222.187" y1="135.183" x2="237.626" y2="114.818" stroke="#393939"/>
<line x1="231.837" y1="110.797" x2="216.785" y2="90.0455" stroke="#393939"/>
<line x1="232.03" y1="111.054" x2="216.588" y2="131.416" stroke="#393939"/>
<line x1="192.189" y1="131.252" x2="217.189" y2="131.252" stroke="#393939"/>
<line x1="192.189" y1="90.2519" x2="217.189" y2="90.2519" stroke="#393939"/>
<path d="M177.189 110.752L192.246 131.501" stroke="#393939"/>
<line x1="176.791" y1="110.814" x2="192.23" y2="90.4499" stroke="#393939"/>
<line x1="231.837" y1="158.518" x2="216.785" y2="137.767" stroke="#393939"/>
<line x1="232.03" y1="158.775" x2="216.588" y2="179.137" stroke="#393939"/>
<line x1="192.189" y1="178.973" x2="217.189" y2="178.973" stroke="#393939"/>
<line x1="192.189" y1="137.973" x2="217.189" y2="137.973" stroke="#393939"/>
<path d="M177.189 158.473L192.246 179.222" stroke="#393939"/>
<line x1="176.791" y1="158.536" x2="192.23" y2="138.171" stroke="#393939"/>
<line x1="95.648" y1="89.4749" x2="80.5952" y2="68.7233" stroke="#393939"/>
<line x1="95.8404" y1="89.7318" x2="80.3984" y2="110.094" stroke="#393939"/>
<line x1="56" y1="109.93" x2="81" y2="109.93" stroke="#393939"/>
<line x1="56" y1="68.9297" x2="81" y2="68.9297" stroke="#393939"/>
<path d="M41 89.4297L56.0563 110.179" stroke="#393939"/>
<line x1="40.6016" y1="89.4922" x2="56.0401" y2="69.1276" stroke="#393939"/>
<line x1="186.441" y1="89.4749" x2="171.388" y2="68.7233" stroke="#393939"/>
<line x1="186.633" y1="89.7318" x2="171.191" y2="110.094" stroke="#393939"/>
<line x1="146.793" y1="109.93" x2="171.793" y2="109.93" stroke="#393939"/>
<line x1="146.793" y1="68.9297" x2="171.793" y2="68.9297" stroke="#393939"/>
<path d="M131.793 89.4297L146.849 110.179" stroke="#393939"/>
<line x1="131.395" y1="89.4922" x2="146.833" y2="69.1276" stroke="#393939"/>
<line x1="141.044" y1="65.1066" x2="125.992" y2="44.355" stroke="#393939"/>
<line x1="141.237" y1="65.3635" x2="125.795" y2="85.7254" stroke="#393939"/>
<line x1="101.396" y1="85.5614" x2="126.396" y2="85.5614" stroke="#393939"/>
<line x1="101.396" y1="44.5614" x2="126.396" y2="44.5614" stroke="#393939"/>
<path d="M86.3965 65.0614L101.453 85.8104" stroke="#393939"/>
<line x1="85.998" y1="65.1239" x2="101.437" y2="44.7593" stroke="#393939"/>
<line x1="141.044" y1="112.828" x2="125.992" y2="92.0762" stroke="#393939"/>
<line x1="141.237" y1="113.085" x2="125.795" y2="133.447" stroke="#393939"/>
<line x1="101.396" y1="133.283" x2="126.396" y2="133.283" stroke="#393939"/>
<line x1="101.396" y1="92.2826" x2="126.396" y2="92.2826" stroke="#393939"/>
<path d="M86.3965 112.783L101.453 133.532" stroke="#393939"/>
<line x1="85.998" y1="112.845" x2="101.437" y2="92.4805" stroke="#393939"/>
<line x1="732.23" y1="131.104" x2="717.178" y2="110.352" stroke="#393939"/>
<line x1="732.423" y1="131.361" x2="716.981" y2="151.723" stroke="#393939"/>
<line x1="692.582" y1="151.559" x2="717.582" y2="151.559" stroke="#393939"/>
<line x1="692.582" y1="110.559" x2="717.582" y2="110.559" stroke="#393939"/>
<path d="M677.582 131.059L692.639 151.808" stroke="#393939"/>
<line x1="677.184" y1="131.121" x2="692.622" y2="110.757" stroke="#393939"/>
<line x1="823.023" y1="131.104" x2="807.971" y2="110.352" stroke="#393939"/>
<line x1="823.216" y1="131.361" x2="807.774" y2="151.723" stroke="#393939"/>
<line x1="783.375" y1="151.559" x2="808.375" y2="151.559" stroke="#393939"/>
<line x1="783.375" y1="110.559" x2="808.375" y2="110.559" stroke="#393939"/>
<path d="M768.375 131.059L783.432 151.808" stroke="#393939"/>
<line x1="767.977" y1="131.121" x2="783.415" y2="110.757" stroke="#393939"/>
<line x1="777.627" y1="106.736" x2="762.574" y2="85.9841" stroke="#393939"/>
<line x1="777.819" y1="106.993" x2="762.377" y2="127.355" stroke="#393939"/>
<line x1="737.979" y1="127.191" x2="762.979" y2="127.191" stroke="#393939"/>
<line x1="737.979" y1="86.1905" x2="762.979" y2="86.1905" stroke="#393939"/>
<path d="M722.979 106.691L738.035 127.44" stroke="#393939"/>
<line x1="722.58" y1="106.753" x2="738.019" y2="86.3885" stroke="#393939"/>
<line x1="777.627" y1="154.457" x2="762.574" y2="133.705" stroke="#393939"/>
<line x1="777.819" y1="154.714" x2="762.377" y2="175.076" stroke="#393939"/>
<line x1="737.979" y1="174.912" x2="762.979" y2="174.912" stroke="#393939"/>
<line x1="737.979" y1="133.912" x2="762.979" y2="133.912" stroke="#393939"/>
<path d="M722.979 154.412L738.035 175.161" stroke="#393939"/>
<line x1="722.58" y1="154.474" x2="738.019" y2="134.11" stroke="#393939"/>
<line x1="641.437" y1="85.4135" x2="626.385" y2="64.6619" stroke="#393939"/>
<line x1="641.63" y1="85.6704" x2="626.188" y2="106.032" stroke="#393939"/>
<line x1="601.789" y1="105.868" x2="626.789" y2="105.868" stroke="#393939"/>
<line x1="601.789" y1="64.8683" x2="626.789" y2="64.8683" stroke="#393939"/>
<path d="M586.789 85.3683L601.846 106.117" stroke="#393939"/>
<line x1="586.391" y1="85.4308" x2="601.829" y2="65.0662" stroke="#393939"/>
<line x1="732.23" y1="85.4135" x2="717.178" y2="64.6619" stroke="#393939"/>
<line x1="732.423" y1="85.6704" x2="716.981" y2="106.032" stroke="#393939"/>
<line x1="692.582" y1="105.868" x2="717.582" y2="105.868" stroke="#393939"/>
<line x1="692.582" y1="64.8683" x2="717.582" y2="64.8683" stroke="#393939"/>
<path d="M677.582 85.3683L692.639 106.117" stroke="#393939"/>
<line x1="677.184" y1="85.4308" x2="692.622" y2="65.0662" stroke="#393939"/>
<line x1="686.834" y1="61.0452" x2="671.781" y2="40.2936" stroke="#393939"/>
<line x1="687.026" y1="61.3021" x2="671.584" y2="81.664" stroke="#393939"/>
<line x1="647.186" y1="81.5" x2="672.186" y2="81.5" stroke="#393939"/>
<line x1="647.186" y1="40.5" x2="672.186" y2="40.5" stroke="#393939"/>
<path d="M632.186 61L647.242 81.749" stroke="#393939"/>
<line x1="631.787" y1="61.0625" x2="647.226" y2="40.6979" stroke="#393939"/>
<line x1="686.834" y1="108.766" x2="671.781" y2="88.0148" stroke="#393939"/>
<line x1="687.026" y1="109.023" x2="671.584" y2="129.385" stroke="#393939"/>
<line x1="647.186" y1="129.221" x2="672.186" y2="129.221" stroke="#393939"/>
<line x1="647.186" y1="88.2212" x2="672.186" y2="88.2212" stroke="#393939"/>
<path d="M632.186 108.721L647.242 129.47" stroke="#393939"/>
<line x1="631.787" y1="108.784" x2="647.226" y2="88.4192" stroke="#393939"/>
<line x1="458.82" y1="179.841" x2="443.767" y2="159.089" stroke="#393939"/>
<line x1="459.012" y1="180.098" x2="443.57" y2="200.459" stroke="#393939"/>
<line x1="419.172" y1="200.295" x2="444.172" y2="200.295" stroke="#393939"/>
<line x1="419.172" y1="159.295" x2="444.172" y2="159.295" stroke="#393939"/>
<path d="M404.172 179.795L419.228 200.544" stroke="#393939"/>
<line x1="403.773" y1="179.858" x2="419.212" y2="159.493" stroke="#393939"/>
<line x1="549.613" y1="179.841" x2="534.56" y2="159.089" stroke="#393939"/>
<line x1="549.805" y1="180.098" x2="534.363" y2="200.459" stroke="#393939"/>
<line x1="509.965" y1="200.295" x2="534.965" y2="200.295" stroke="#393939"/>
<line x1="509.965" y1="159.295" x2="534.965" y2="159.295" stroke="#393939"/>
<path d="M494.965 179.795L510.021 200.544" stroke="#393939"/>
<line x1="494.566" y1="179.858" x2="510.005" y2="159.493" stroke="#393939"/>
<line x1="504.216" y1="155.472" x2="489.163" y2="134.721" stroke="#393939"/>
<line x1="504.409" y1="155.729" x2="488.967" y2="176.091" stroke="#393939"/>
<line x1="464.568" y1="175.927" x2="489.568" y2="175.927" stroke="#393939"/>
<line x1="464.568" y1="134.927" x2="489.568" y2="134.927" stroke="#393939"/>
<path d="M449.568 155.427L464.625 176.176" stroke="#393939"/>
<line x1="449.17" y1="155.49" x2="464.608" y2="135.125" stroke="#393939"/>
<line x1="504.216" y1="203.194" x2="489.163" y2="182.442" stroke="#393939"/>
<line x1="504.409" y1="203.45" x2="488.967" y2="223.812" stroke="#393939"/>
<line x1="464.568" y1="223.648" x2="489.568" y2="223.648" stroke="#393939"/>
<line x1="464.568" y1="182.648" x2="489.568" y2="182.648" stroke="#393939"/>
<path d="M449.568 203.148L464.625 223.897" stroke="#393939"/>
<line x1="449.17" y1="203.211" x2="464.608" y2="182.846" stroke="#393939"/>
<line x1="368.027" y1="134.15" x2="352.974" y2="113.398" stroke="#393939"/>
<line x1="368.219" y1="134.407" x2="352.777" y2="154.769" stroke="#393939"/>
<line x1="328.379" y1="154.605" x2="353.379" y2="154.605" stroke="#393939"/>
<line x1="328.379" y1="113.605" x2="353.379" y2="113.605" stroke="#393939"/>
<path d="M313.379 134.105L328.435 154.854" stroke="#393939"/>
<line x1="312.98" y1="134.167" x2="328.419" y2="113.803" stroke="#393939"/>
<line x1="458.82" y1="134.15" x2="443.767" y2="113.398" stroke="#393939"/>
<line x1="459.012" y1="134.407" x2="443.57" y2="154.769" stroke="#393939"/>
<line x1="419.172" y1="154.605" x2="444.172" y2="154.605" stroke="#393939"/>
<line x1="419.172" y1="113.605" x2="444.172" y2="113.605" stroke="#393939"/>
<path d="M404.172 134.105L419.228 154.854" stroke="#393939"/>
<line x1="403.773" y1="134.167" x2="419.212" y2="113.803" stroke="#393939"/>
<line x1="413.423" y1="109.782" x2="398.371" y2="89.0302" stroke="#393939"/>
<line x1="413.616" y1="110.039" x2="398.174" y2="130.401" stroke="#393939"/>
<line x1="373.775" y1="130.237" x2="398.775" y2="130.237" stroke="#393939"/>
<line x1="373.775" y1="89.2366" x2="398.775" y2="89.2366" stroke="#393939"/>
<path d="M358.775 109.737L373.832 130.486" stroke="#393939"/>
<line x1="358.377" y1="109.799" x2="373.815" y2="89.4345" stroke="#393939"/>
<line x1="413.423" y1="157.503" x2="398.371" y2="136.751" stroke="#393939"/>
<line x1="413.616" y1="157.76" x2="398.174" y2="178.122" stroke="#393939"/>
<line x1="373.775" y1="177.958" x2="398.775" y2="177.958" stroke="#393939"/>
<line x1="373.775" y1="136.958" x2="398.775" y2="136.958" stroke="#393939"/>
<path d="M358.775 157.458L373.832 178.207" stroke="#393939"/>
<line x1="358.377" y1="157.52" x2="373.815" y2="137.156" stroke="#393939"/>
<line x1="370.09" y1="374.787" x2="355.038" y2="354.035" stroke="#393939"/>
<line x1="370.283" y1="375.044" x2="354.841" y2="395.406" stroke="#393939"/>
<line x1="330.442" y1="395.242" x2="355.442" y2="395.242" stroke="#393939"/>
<line x1="330.442" y1="354.242" x2="355.442" y2="354.242" stroke="#393939"/>
<path d="M315.442 374.742L330.499 395.491" stroke="#393939"/>
<line x1="315.044" y1="374.804" x2="330.482" y2="354.44" stroke="#393939"/>
<line x1="778.659" y1="392.048" x2="763.606" y2="371.296" stroke="#393939"/>
<line x1="778.851" y1="392.305" x2="763.409" y2="412.667" stroke="#393939"/>
<line x1="739.011" y1="412.503" x2="764.011" y2="412.503" stroke="#393939"/>
<line x1="739.011" y1="371.503" x2="764.011" y2="371.503" stroke="#393939"/>
<path d="M724.011 392.003L739.067 412.752" stroke="#393939"/>
<line x1="723.612" y1="392.065" x2="739.051" y2="371.701" stroke="#393939"/>
<line x1="869.452" y1="392.048" x2="854.399" y2="371.296" stroke="#393939"/>
<line x1="869.644" y1="392.305" x2="854.202" y2="412.667" stroke="#393939"/>
<line x1="829.803" y1="412.503" x2="854.803" y2="412.503" stroke="#393939"/>
<line x1="829.803" y1="371.503" x2="854.803" y2="371.503" stroke="#393939"/>
<path d="M814.803 392.003L829.86 412.752" stroke="#393939"/>
<line x1="814.405" y1="392.065" x2="829.844" y2="371.701" stroke="#393939"/>
<line x1="824.055" y1="367.679" x2="809.002" y2="346.928" stroke="#393939"/>
<line x1="824.247" y1="367.936" x2="808.805" y2="388.298" stroke="#393939"/>
<line x1="784.407" y1="388.134" x2="809.407" y2="388.134" stroke="#393939"/>
<line x1="784.407" y1="347.134" x2="809.407" y2="347.134" stroke="#393939"/>
<path d="M769.407 367.634L784.463 388.383" stroke="#393939"/>
<line x1="769.009" y1="367.697" x2="784.447" y2="347.332" stroke="#393939"/>
<line x1="824.055" y1="415.401" x2="809.002" y2="394.649" stroke="#393939"/>
<line x1="824.247" y1="415.658" x2="808.805" y2="436.02" stroke="#393939"/>
<line x1="784.407" y1="435.855" x2="809.407" y2="435.855" stroke="#393939"/>
<line x1="784.407" y1="394.855" x2="809.407" y2="394.855" stroke="#393939"/>
<path d="M769.407 415.355L784.463 436.105" stroke="#393939"/>
<line x1="769.009" y1="415.418" x2="784.447" y2="395.053" stroke="#393939"/>
<line x1="687.866" y1="346.357" x2="672.813" y2="325.606" stroke="#393939"/>
<line x1="688.058" y1="346.614" x2="672.616" y2="366.976" stroke="#393939"/>
<line x1="648.218" y1="366.812" x2="673.218" y2="366.812" stroke="#393939"/>
<line x1="648.218" y1="325.812" x2="673.218" y2="325.812" stroke="#393939"/>
<path d="M633.218 346.312L648.274 367.061" stroke="#393939"/>
<line x1="632.819" y1="346.375" x2="648.258" y2="326.01" stroke="#393939"/>
<line x1="778.659" y1="346.357" x2="763.606" y2="325.606" stroke="#393939"/>
<line x1="778.851" y1="346.614" x2="763.409" y2="366.976" stroke="#393939"/>
<line x1="739.011" y1="366.812" x2="764.011" y2="366.812" stroke="#393939"/>
<line x1="739.011" y1="325.812" x2="764.011" y2="325.812" stroke="#393939"/>
<path d="M724.011 346.312L739.067 367.061" stroke="#393939"/>
<line x1="723.612" y1="346.375" x2="739.051" y2="326.01" stroke="#393939"/>
<line x1="733.262" y1="321.989" x2="718.209" y2="301.237" stroke="#393939"/>
<line x1="733.455" y1="322.246" x2="718.013" y2="342.608" stroke="#393939"/>
<line x1="693.614" y1="342.444" x2="718.614" y2="342.444" stroke="#393939"/>
<line x1="693.614" y1="301.444" x2="718.614" y2="301.444" stroke="#393939"/>
<path d="M678.614 321.944L693.67 342.693" stroke="#393939"/>
<line x1="678.216" y1="322.006" x2="693.654" y2="301.642" stroke="#393939"/>
<line x1="733.262" y1="369.71" x2="718.209" y2="348.959" stroke="#393939"/>
<line x1="733.455" y1="369.967" x2="718.013" y2="390.329" stroke="#393939"/>
<line x1="693.614" y1="390.165" x2="718.614" y2="390.165" stroke="#393939"/>
<line x1="693.614" y1="349.165" x2="718.614" y2="349.165" stroke="#393939"/>
<path d="M678.614 369.665L693.67 390.414" stroke="#393939"/>
<line x1="678.216" y1="369.727" x2="693.654" y2="349.363" stroke="#393939"/>
<line x1="141.044" y1="303.713" x2="125.992" y2="282.961" stroke="#393939"/>
<line x1="141.237" y1="303.97" x2="125.795" y2="324.332" stroke="#393939"/>
<line x1="101.396" y1="324.168" x2="126.396" y2="324.168" stroke="#393939"/>
<line x1="101.396" y1="283.168" x2="126.396" y2="283.168" stroke="#393939"/>
<path d="M86.3965 303.668L101.453 324.417" stroke="#393939"/>
<line x1="85.998" y1="303.73" x2="101.437" y2="283.365" stroke="#393939"/>
<line x1="231.837" y1="303.713" x2="216.785" y2="282.961" stroke="#393939"/>
<line x1="232.03" y1="303.97" x2="216.588" y2="324.332" stroke="#393939"/>
<line x1="192.189" y1="324.168" x2="217.189" y2="324.168" stroke="#393939"/>
<line x1="192.189" y1="283.168" x2="217.189" y2="283.168" stroke="#393939"/>
<path d="M177.189 303.668L192.246 324.417" stroke="#393939"/>
<line x1="176.791" y1="303.73" x2="192.23" y2="283.365" stroke="#393939"/>
<line x1="186.441" y1="279.344" x2="171.388" y2="258.593" stroke="#393939"/>
<line x1="186.633" y1="279.601" x2="171.191" y2="299.963" stroke="#393939"/>
<line x1="146.793" y1="299.799" x2="171.793" y2="299.799" stroke="#393939"/>
<line x1="146.793" y1="258.799" x2="171.793" y2="258.799" stroke="#393939"/>
<path d="M131.793 279.299L146.849 300.048" stroke="#393939"/>
<line x1="131.395" y1="279.362" x2="146.833" y2="258.997" stroke="#393939"/>
<line x1="186.441" y1="327.066" x2="171.388" y2="306.314" stroke="#393939"/>
<line x1="186.633" y1="327.323" x2="171.191" y2="347.684" stroke="#393939"/>
<line x1="146.793" y1="347.52" x2="171.793" y2="347.52" stroke="#393939"/>
<line x1="146.793" y1="306.52" x2="171.793" y2="306.52" stroke="#393939"/>
<path d="M131.793 327.02L146.849 347.769" stroke="#393939"/>
<line x1="131.395" y1="327.083" x2="146.833" y2="306.718" stroke="#393939"/>
<line x1="458.82" y1="85.4135" x2="443.767" y2="64.6619" stroke="#393939"/>
<line x1="459.012" y1="85.6704" x2="443.57" y2="106.032" stroke="#393939"/>
<line x1="419.172" y1="105.868" x2="444.172" y2="105.868" stroke="#393939"/>
<line x1="419.172" y1="64.8683" x2="444.172" y2="64.8683" stroke="#393939"/>
<path d="M404.172 85.3683L419.228 106.117" stroke="#393939"/>
<line x1="403.773" y1="85.4308" x2="419.212" y2="65.0662" stroke="#393939"/>
<line x1="549.613" y1="85.4135" x2="534.56" y2="64.6619" stroke="#393939"/>
<line x1="549.805" y1="85.6704" x2="534.363" y2="106.032" stroke="#393939"/>
<line x1="509.965" y1="105.868" x2="534.965" y2="105.868" stroke="#393939"/>
<line x1="509.965" y1="64.8683" x2="534.965" y2="64.8683" stroke="#393939"/>
<path d="M494.965 85.3683L510.021 106.117" stroke="#393939"/>
<line x1="494.566" y1="85.4308" x2="510.005" y2="65.0662" stroke="#393939"/>
<line x1="504.216" y1="61.0452" x2="489.163" y2="40.2936" stroke="#393939"/>
<line x1="504.409" y1="61.3021" x2="488.967" y2="81.664" stroke="#393939"/>
<line x1="464.568" y1="81.5" x2="489.568" y2="81.5" stroke="#393939"/>
<line x1="464.568" y1="40.5" x2="489.568" y2="40.5" stroke="#393939"/>
<path d="M449.568 61L464.625 81.749" stroke="#393939"/>
<line x1="449.17" y1="61.0625" x2="464.608" y2="40.6979" stroke="#393939"/>
<line x1="504.216" y1="108.766" x2="489.163" y2="88.0148" stroke="#393939"/>
<line x1="504.409" y1="109.023" x2="488.967" y2="129.385" stroke="#393939"/>
<line x1="464.568" y1="129.221" x2="489.568" y2="129.221" stroke="#393939"/>
<line x1="464.568" y1="88.2212" x2="489.568" y2="88.2212" stroke="#393939"/>
<path d="M449.568 108.721L464.625 129.47" stroke="#393939"/>
<line x1="449.17" y1="108.784" x2="464.608" y2="88.4192" stroke="#393939"/>
<line x1="277.234" y1="86.4288" x2="262.181" y2="65.6772" stroke="#393939"/>
<line x1="277.426" y1="86.6858" x2="261.984" y2="107.048" stroke="#393939"/>
<line x1="237.586" y1="106.884" x2="262.586" y2="106.884" stroke="#393939"/>
<line x1="237.586" y1="65.8836" x2="262.586" y2="65.8836" stroke="#393939"/>
<path d="M222.586 86.3836L237.642 107.133" stroke="#393939"/>
<line x1="222.187" y1="86.4461" x2="237.626" y2="66.0816" stroke="#393939"/>
<line x1="368.027" y1="86.4288" x2="352.974" y2="65.6772" stroke="#393939"/>
<line x1="368.219" y1="86.6858" x2="352.777" y2="107.048" stroke="#393939"/>
<line x1="328.379" y1="106.884" x2="353.379" y2="106.884" stroke="#393939"/>
<line x1="328.379" y1="65.8836" x2="353.379" y2="65.8836" stroke="#393939"/>
<path d="M313.379 86.3836L328.435 107.133" stroke="#393939"/>
<line x1="312.98" y1="86.4461" x2="328.419" y2="66.0816" stroke="#393939"/>
<line x1="322.63" y1="62.0605" x2="307.578" y2="41.3089" stroke="#393939"/>
<line x1="322.823" y1="62.3175" x2="307.381" y2="82.6794" stroke="#393939"/>
<line x1="282.982" y1="82.5154" x2="307.982" y2="82.5154" stroke="#393939"/>
<line x1="282.982" y1="41.5154" x2="307.982" y2="41.5154" stroke="#393939"/>
<path d="M267.982 62.0154L283.039 82.7644" stroke="#393939"/>
<line x1="267.584" y1="62.0778" x2="283.022" y2="41.7133" stroke="#393939"/>
<line x1="322.63" y1="109.782" x2="307.578" y2="89.0302" stroke="#393939"/>
<line x1="322.823" y1="110.039" x2="307.381" y2="130.401" stroke="#393939"/>
<line x1="282.982" y1="130.237" x2="307.982" y2="130.237" stroke="#393939"/>
<line x1="282.982" y1="89.2366" x2="307.982" y2="89.2366" stroke="#393939"/>
<path d="M267.982 109.737L283.039 130.486" stroke="#393939"/>
<line x1="267.584" y1="109.799" x2="283.022" y2="89.4345" stroke="#393939"/>
<line x1="824.055" y1="272.237" x2="809.002" y2="251.485" stroke="#393939"/>
<line x1="824.247" y1="272.494" x2="808.805" y2="292.856" stroke="#393939"/>
<line x1="784.407" y1="292.692" x2="809.407" y2="292.692" stroke="#393939"/>
<line x1="784.407" y1="251.692" x2="809.407" y2="251.692" stroke="#393939"/>
<path d="M769.407 272.192L784.463 292.941" stroke="#393939"/>
<line x1="769.009" y1="272.254" x2="784.447" y2="251.89" stroke="#393939"/>
<line x1="914.848" y1="272.237" x2="899.795" y2="251.485" stroke="#393939"/>
<line x1="915.04" y1="272.494" x2="899.598" y2="292.856" stroke="#393939"/>
<line x1="875.2" y1="292.692" x2="900.2" y2="292.692" stroke="#393939"/>
<line x1="875.2" y1="251.692" x2="900.2" y2="251.692" stroke="#393939"/>
<path d="M860.2 272.192L875.256 292.941" stroke="#393939"/>
<line x1="859.802" y1="272.254" x2="875.24" y2="251.89" stroke="#393939"/>
<line x1="869.452" y1="247.869" x2="854.399" y2="227.117" stroke="#393939"/>
<line x1="869.644" y1="248.126" x2="854.202" y2="268.488" stroke="#393939"/>
<line x1="829.804" y1="268.324" x2="854.804" y2="268.324" stroke="#393939"/>
<line x1="829.804" y1="227.324" x2="854.804" y2="227.324" stroke="#393939"/>
<path d="M814.804 247.824L829.86 268.573" stroke="#393939"/>
<line x1="814.405" y1="247.886" x2="829.844" y2="227.521" stroke="#393939"/>
<line x1="869.452" y1="295.59" x2="854.399" y2="274.838" stroke="#393939"/>
<line x1="869.644" y1="295.847" x2="854.202" y2="316.209" stroke="#393939"/>
<line x1="829.804" y1="316.045" x2="854.804" y2="316.045" stroke="#393939"/>
<line x1="829.804" y1="275.045" x2="854.804" y2="275.045" stroke="#393939"/>
<path d="M814.804 295.545L829.86 316.294" stroke="#393939"/>
<line x1="814.405" y1="295.607" x2="829.844" y2="275.243" stroke="#393939"/>
<line x1="733.262" y1="226.546" x2="718.209" y2="205.795" stroke="#393939"/>
<line x1="733.455" y1="226.803" x2="718.013" y2="247.165" stroke="#393939"/>
<line x1="693.614" y1="247.001" x2="718.614" y2="247.001" stroke="#393939"/>
<line x1="693.614" y1="206.001" x2="718.614" y2="206.001" stroke="#393939"/>
<path d="M678.614 226.501L693.67 247.25" stroke="#393939"/>
<line x1="678.216" y1="226.564" x2="693.654" y2="206.199" stroke="#393939"/>
<line x1="824.055" y1="226.546" x2="809.002" y2="205.795" stroke="#393939"/>
<line x1="824.247" y1="226.803" x2="808.805" y2="247.165" stroke="#393939"/>
<line x1="784.407" y1="247.001" x2="809.407" y2="247.001" stroke="#393939"/>
<line x1="784.407" y1="206.001" x2="809.407" y2="206.001" stroke="#393939"/>
<path d="M769.407 226.501L784.463 247.25" stroke="#393939"/>
<line x1="769.009" y1="226.564" x2="784.447" y2="206.199" stroke="#393939"/>
<line x1="778.659" y1="202.178" x2="763.606" y2="181.427" stroke="#393939"/>
<line x1="778.851" y1="202.435" x2="763.409" y2="222.797" stroke="#393939"/>
<line x1="739.011" y1="222.633" x2="764.011" y2="222.633" stroke="#393939"/>
<line x1="739.011" y1="181.633" x2="764.011" y2="181.633" stroke="#393939"/>
<path d="M724.011 202.133L739.067 222.882" stroke="#393939"/>
<line x1="723.612" y1="202.195" x2="739.051" y2="181.831" stroke="#393939"/>
<line x1="778.659" y1="249.899" x2="763.606" y2="229.148" stroke="#393939"/>
<line x1="778.851" y1="250.156" x2="763.409" y2="270.518" stroke="#393939"/>
<line x1="739.011" y1="270.354" x2="764.011" y2="270.354" stroke="#393939"/>
<line x1="739.011" y1="229.354" x2="764.011" y2="229.354" stroke="#393939"/>
<path d="M724.011 249.854L739.067 270.603" stroke="#393939"/>
<line x1="723.612" y1="249.917" x2="739.051" y2="229.552" stroke="#393939"/>
<line x1="641.437" y1="371.741" x2="626.385" y2="350.989" stroke="#393939"/>
<line x1="641.63" y1="371.998" x2="626.188" y2="392.36" stroke="#393939"/>
<line x1="601.789" y1="392.196" x2="626.789" y2="392.196" stroke="#393939"/>
<line x1="601.789" y1="351.196" x2="626.789" y2="351.196" stroke="#393939"/>
<path d="M586.789 371.696L601.846 392.445" stroke="#393939"/>
<line x1="586.391" y1="371.758" x2="601.829" y2="351.394" stroke="#393939"/>
<line x1="596.041" y1="395.094" x2="580.988" y2="374.342" stroke="#393939"/>
<line x1="596.233" y1="395.351" x2="580.791" y2="415.713" stroke="#393939"/>
<line x1="556.393" y1="415.549" x2="581.393" y2="415.549" stroke="#393939"/>
<line x1="556.393" y1="374.549" x2="581.393" y2="374.549" stroke="#393939"/>
<path d="M541.393 395.049L556.449 415.798" stroke="#393939"/>
<line x1="540.995" y1="395.111" x2="556.433" y2="374.747" stroke="#393939"/>
<line x1="779.69" y1="297.621" x2="764.638" y2="276.869" stroke="#393939"/>
<line x1="779.883" y1="297.878" x2="764.441" y2="318.239" stroke="#393939"/>
<line x1="740.042" y1="318.075" x2="765.042" y2="318.075" stroke="#393939"/>
<line x1="740.042" y1="277.075" x2="765.042" y2="277.075" stroke="#393939"/>
<path d="M725.042 297.575L740.099 318.324" stroke="#393939"/>
<line x1="724.644" y1="297.638" x2="740.082" y2="277.273" stroke="#393939"/>
<line x1="687.866" y1="393.063" x2="672.813" y2="372.312" stroke="#393939"/>
<line x1="688.058" y1="393.32" x2="672.616" y2="413.682" stroke="#393939"/>
<line x1="648.218" y1="413.518" x2="673.218" y2="413.518" stroke="#393939"/>
<line x1="648.218" y1="372.518" x2="673.218" y2="372.518" stroke="#393939"/>
<path d="M633.218 393.018L648.274 413.767" stroke="#393939"/>
<line x1="632.819" y1="393.08" x2="648.258" y2="372.716" stroke="#393939"/>
<line x1="187.473" y1="183.902" x2="172.42" y2="163.15" stroke="#393939"/>
<line x1="187.665" y1="184.159" x2="172.223" y2="204.521" stroke="#393939"/>
<line x1="147.825" y1="204.357" x2="172.825" y2="204.357" stroke="#393939"/>
<line x1="147.825" y1="163.357" x2="172.825" y2="163.357" stroke="#393939"/>
<path d="M132.825 183.857L147.881 204.606" stroke="#393939"/>
<line x1="132.426" y1="183.919" x2="147.865" y2="163.555" stroke="#393939"/>
<line x1="826.119" y1="323.004" x2="811.066" y2="302.253" stroke="black"/>
<line x1="826.311" y1="323.261" x2="810.869" y2="343.623" stroke="black"/>
<line x1="786.471" y1="343.459" x2="811.471" y2="343.459" stroke="black"/>
<line x1="786.471" y1="302.459" x2="811.471" y2="302.459" stroke="black"/>
<path d="M771.471 322.959L786.527 343.708" stroke="black"/>
<line x1="771.072" y1="323.022" x2="786.511" y2="302.657" stroke="black"/>
<rect x="163" y="77" width="66.0312" height="30" rx="3" fill="#404040"/>
<rect x="163.5" y="77.5" width="65.0312" height="29" rx="2.5" stroke="black" stroke-opacity="0.14902"/>
<path d="M174.344 89C174.297 88.6042 174.107 88.2969 173.773 88.0781C173.44 87.8594 173.031 87.75 172.547 87.75C172.193 87.75 171.883 87.8073 171.617 87.9219C171.354 88.0365 171.148 88.194 171 88.3945C170.854 88.5951 170.781 88.8229 170.781 89.0781C170.781 89.2917 170.832 89.4753 170.934 89.6289C171.038 89.7799 171.171 89.9062 171.332 90.0078C171.493 90.1068 171.663 90.1888 171.84 90.2539C172.017 90.3164 172.18 90.3672 172.328 90.4062L173.141 90.625C173.349 90.6797 173.581 90.7552 173.836 90.8516C174.094 90.9479 174.34 91.0794 174.574 91.2461C174.811 91.4102 175.007 91.6211 175.16 91.8789C175.314 92.1367 175.391 92.4531 175.391 92.8281C175.391 93.2604 175.277 93.651 175.051 94C174.827 94.349 174.499 94.6263 174.066 94.832C173.637 95.0378 173.115 95.1406 172.5 95.1406C171.927 95.1406 171.431 95.0482 171.012 94.8633C170.595 94.6784 170.267 94.4206 170.027 94.0898C169.79 93.7591 169.656 93.375 169.625 92.9375H170.625C170.651 93.2396 170.753 93.4896 170.93 93.6875C171.109 93.8828 171.336 94.0286 171.609 94.125C171.885 94.2187 172.182 94.2656 172.5 94.2656C172.87 94.2656 173.202 94.2057 173.496 94.0859C173.79 93.9635 174.023 93.7943 174.195 93.5781C174.367 93.3594 174.453 93.1042 174.453 92.8125C174.453 92.5469 174.379 92.3307 174.23 92.1641C174.082 91.9974 173.887 91.862 173.645 91.7578C173.402 91.6536 173.141 91.5625 172.859 91.4844L171.875 91.2031C171.25 91.0234 170.755 90.7669 170.391 90.4336C170.026 90.1003 169.844 89.6641 169.844 89.125C169.844 88.6771 169.965 88.2865 170.207 87.9531C170.452 87.6172 170.78 87.3568 171.191 87.1719C171.605 86.9844 172.068 86.8906 172.578 86.8906C173.094 86.8906 173.552 86.9831 173.953 87.168C174.354 87.3503 174.672 87.6003 174.906 87.918C175.143 88.2357 175.268 88.5964 175.281 89H174.344ZM179.374 95.125C178.796 95.125 178.297 94.9974 177.878 94.7422C177.461 94.4844 177.14 94.125 176.913 93.6641C176.689 93.2005 176.577 92.6615 176.577 92.0469C176.577 91.4323 176.689 90.8906 176.913 90.4219C177.14 89.9505 177.455 89.5833 177.858 89.3203C178.265 89.0547 178.739 88.9219 179.28 88.9219C179.593 88.9219 179.901 88.974 180.206 89.0781C180.511 89.1823 180.788 89.3516 181.038 89.5859C181.288 89.8177 181.487 90.125 181.636 90.5078C181.784 90.8906 181.858 91.362 181.858 91.9219V92.3125H177.233V91.5156H180.921C180.921 91.1771 180.853 90.875 180.718 90.6094C180.585 90.3437 180.395 90.1341 180.147 89.9805C179.903 89.8268 179.614 89.75 179.28 89.75C178.913 89.75 178.595 89.8411 178.327 90.0234C178.062 90.2031 177.857 90.4375 177.714 90.7266C177.571 91.0156 177.499 91.3255 177.499 91.6562V92.1875C177.499 92.6406 177.577 93.0247 177.733 93.3398C177.892 93.6523 178.112 93.8906 178.394 94.0547C178.675 94.2161 179.002 94.2969 179.374 94.2969C179.616 94.2969 179.835 94.263 180.03 94.1953C180.228 94.125 180.399 94.0208 180.542 93.8828C180.685 93.7422 180.796 93.5677 180.874 93.3594L181.765 93.6094C181.671 93.9115 181.513 94.1771 181.292 94.4062C181.071 94.6328 180.797 94.8099 180.472 94.9375C180.146 95.0625 179.78 95.125 179.374 95.125ZM185.698 95.125C185.136 95.125 184.651 94.9922 184.245 94.7266C183.839 94.4609 183.526 94.0951 183.308 93.6289C183.089 93.1628 182.979 92.6302 182.979 92.0312C182.979 91.4219 183.091 90.8841 183.315 90.418C183.542 89.9492 183.857 89.5833 184.261 89.3203C184.667 89.0547 185.141 88.9219 185.683 88.9219C186.104 88.9219 186.485 89 186.823 89.1562C187.162 89.3125 187.439 89.5312 187.655 89.8125C187.871 90.0937 188.006 90.4219 188.058 90.7969H187.136C187.065 90.5234 186.909 90.2812 186.667 90.0703C186.427 89.8568 186.104 89.75 185.698 89.75C185.339 89.75 185.024 89.8437 184.753 90.0312C184.485 90.2161 184.275 90.4779 184.124 90.8164C183.976 91.1523 183.901 91.5469 183.901 92C183.901 92.4635 183.974 92.8672 184.12 93.2109C184.269 93.5547 184.477 93.8216 184.745 94.0117C185.016 94.2018 185.334 94.2969 185.698 94.2969C185.938 94.2969 186.155 94.2552 186.351 94.1719C186.546 94.0885 186.711 93.9688 186.847 93.8125C186.982 93.6562 187.078 93.4687 187.136 93.25H188.058C188.006 93.6042 187.877 93.9232 187.671 94.207C187.468 94.4883 187.198 94.7122 186.862 94.8789C186.529 95.043 186.141 95.125 185.698 95.125ZM192.015 89V89.7812H188.905V89H192.015ZM189.812 87.5625H190.733V93.2812C190.733 93.5417 190.771 93.737 190.847 93.8672C190.925 93.9948 191.024 94.0807 191.144 94.125C191.266 94.1667 191.395 94.1875 191.53 94.1875C191.632 94.1875 191.715 94.1823 191.78 94.1719C191.845 94.1589 191.897 94.1484 191.937 94.1406L192.124 94.9687C192.062 94.9922 191.974 95.0156 191.862 95.0391C191.75 95.0651 191.608 95.0781 191.437 95.0781C191.176 95.0781 190.921 95.0221 190.671 94.9102C190.424 94.7982 190.218 94.6276 190.054 94.3984C189.892 94.1693 189.812 93.8802 189.812 93.5312V87.5625ZM193.401 95V89H194.323V95H193.401ZM193.87 88C193.69 88 193.535 87.9388 193.405 87.8164C193.278 87.694 193.214 87.5469 193.214 87.375C193.214 87.2031 193.278 87.056 193.405 86.9336C193.535 86.8112 193.69 86.75 193.87 86.75C194.05 86.75 194.203 86.8112 194.331 86.9336C194.461 87.056 194.526 87.2031 194.526 87.375C194.526 87.5469 194.461 87.694 194.331 87.8164C194.203 87.9388 194.05 88 193.87 88ZM198.449 95.125C197.908 95.125 197.432 94.9961 197.023 94.7383C196.617 94.4805 196.299 94.1198 196.07 93.6562C195.844 93.1927 195.73 92.651 195.73 92.0312C195.73 91.4062 195.844 90.8607 196.07 90.3945C196.299 89.9284 196.617 89.5664 197.023 89.3086C197.432 89.0508 197.908 88.9219 198.449 88.9219C198.991 88.9219 199.465 89.0508 199.871 89.3086C200.28 89.5664 200.598 89.9284 200.824 90.3945C201.053 90.8607 201.168 91.4062 201.168 92.0312C201.168 92.651 201.053 93.1927 200.824 93.6562C200.598 94.1198 200.28 94.4805 199.871 94.7383C199.465 94.9961 198.991 95.125 198.449 95.125ZM198.449 94.2969C198.861 94.2969 199.199 94.1914 199.465 93.9805C199.73 93.7695 199.927 93.4922 200.055 93.1484C200.182 92.8047 200.246 92.4323 200.246 92.0312C200.246 91.6302 200.182 91.2565 200.055 90.9102C199.927 90.5638 199.73 90.2839 199.465 90.0703C199.199 89.8568 198.861 89.75 198.449 89.75C198.038 89.75 197.699 89.8568 197.434 90.0703C197.168 90.2839 196.971 90.5638 196.844 90.9102C196.716 91.2565 196.652 91.6302 196.652 92.0312C196.652 92.4323 196.716 92.8047 196.844 93.1484C196.971 93.4922 197.168 93.7695 197.434 93.9805C197.699 94.1914 198.038 94.2969 198.449 94.2969ZM203.497 91.3906V95H202.575V89H203.466V89.9375H203.544C203.685 89.6328 203.898 89.388 204.185 89.2031C204.471 89.0156 204.841 88.9219 205.294 88.9219C205.7 88.9219 206.056 89.0052 206.36 89.1719C206.665 89.3359 206.902 89.5859 207.071 89.9219C207.241 90.2552 207.325 90.6771 207.325 91.1875V95H206.403V91.25C206.403 90.7786 206.281 90.4115 206.036 90.1484C205.791 89.8828 205.455 89.75 205.028 89.75C204.734 89.75 204.471 89.8138 204.239 89.9414C204.01 90.069 203.829 90.2552 203.696 90.5C203.563 90.7448 203.497 91.0417 203.497 91.3906ZM212.088 95V94.2969L214.729 91.4062C215.038 91.0677 215.294 90.7734 215.494 90.5234C215.695 90.2708 215.843 90.0339 215.939 89.8125C216.038 89.5885 216.088 89.3542 216.088 89.1094C216.088 88.8281 216.02 88.5846 215.885 88.3789C215.752 88.1732 215.57 88.0143 215.338 87.9023C215.106 87.7904 214.846 87.7344 214.557 87.7344C214.249 87.7344 213.981 87.7982 213.752 87.9258C213.525 88.0508 213.35 88.2266 213.225 88.4531C213.102 88.6797 213.041 88.9453 213.041 89.25H212.119C212.119 88.7812 212.227 88.3698 212.443 88.0156C212.66 87.6615 212.954 87.3854 213.326 87.1875C213.701 86.9896 214.122 86.8906 214.588 86.8906C215.057 86.8906 215.472 86.9896 215.834 87.1875C216.196 87.3854 216.48 87.6523 216.686 87.9883C216.891 88.3242 216.994 88.6979 216.994 89.1094C216.994 89.4036 216.941 89.6914 216.834 89.9727C216.73 90.2513 216.548 90.5625 216.287 90.9062C216.029 91.2474 215.671 91.6641 215.213 92.1562L213.416 94.0781V94.1406H217.135V95H212.088ZM221.561 87V95H220.592V88.0156H220.545L218.592 89.3125V88.3281L220.592 87H221.561Z" fill="white"/>
</svg>
